<?xml version="1.0" encoding="utf-8"?>
<!-- Generator: Adobe Illustrator 15.0.0, SVG Export Plug-In . SVG Version: 6.00 Build 0)  -->
<!DOCTYPE svg PUBLIC "-//W3C//DTD SVG 1.1//EN" "http://www.w3.org/Graphics/SVG/1.1/DTD/svg11.dtd">
<svg version="1.1" id="Calque_1" xmlns="http://www.w3.org/2000/svg" xmlns:xlink="http://www.w3.org/1999/xlink" x="0px" y="0px"
	 width="572.718px" height="576.004px" viewBox="0 0 572.718 576.004" enable-background="new 0 0 572.718 576.004"
	 xml:space="preserve">
<g>
	<g>
		<defs>
			<rect id="SVGID_1_" x="3.8" y="217.071" width="565.118" height="355.137"/>
		</defs>
		<clipPath id="SVGID_2_">
			<use xlink:href="#SVGID_1_"  overflow="visible"/>
		</clipPath>
		<rect x="3.8" y="217.071" clip-path="url(#SVGID_2_)" fill="#F8F1E7" width="565.118" height="410.293"/>
		<polygon clip-path="url(#SVGID_2_)" fill="#E0BF66" points="40.031,420.713 115.044,394.768 172.572,391.317 206.559,517.356 
			198.779,518.499 187.881,551.269 68.434,561.274 		"/>
		<polygon clip-path="url(#SVGID_2_)" fill="#BDC787" points="392.736,385.411 401.071,437.426 443.157,427.844 445.057,417.93 
			455.471,407.471 462.705,413.825 461.562,405.754 446.087,409.448 452.441,429.214 507.684,410.167 505.762,397.616 
			486.743,400.6 477.984,373.223 		"/>
		<polyline clip-path="url(#SVGID_2_)" fill="#E0BF66" points="367.88,300.908 356.805,267.559 369.368,263.154 381.929,258.745 
			397.325,284.311 452.714,266.611 460.103,289.131 464.302,291.752 466.752,294.809 475.244,315.667 383.554,344.944 
			317.613,368.392 304.051,329.692 302.939,326.516 367.295,296.387 		"/>
		<path clip-path="url(#SVGID_2_)" fill="#BFC0C1" d="M314.818,372.529l-33.595-95.86l3.599-1.41
			c0.478-0.184,47.797-18.72,56.575-22.581c5.146-2.265,8.726-2.646,11.61-1.23c3.479,1.708,4.465,5.364,5.151,8.124l11.531,31.688
			c9.268-3.344,32.645-11.725,38.568-13.287c9.284-2.451,14.161,1.768,15.6,6.258c0.537,1.16,2.705,5.846,3.816,8.367
			c0.175,0.396,0.352,0.797,2.247,0.299c1.266-0.395,16.696-5.209,23.703-7.496c8.308-2.707,14.501,3.686,16.619,7.447l0.217,0.451
			l8.493,20.861l-7.419,3.021l-8.375-20.571c-0.56-0.879-3.314-4.811-7.054-3.592c-7.321,2.387-23.715,7.502-23.882,7.552
			l-0.153,0.044c-7.765,2.089-10.788-2.651-11.729-4.787c-1.213-2.76-3.844-8.42-3.87-8.475l-0.138-0.297l-0.088-0.316
			c-0.623-2.238-4.708-1.348-5.944-1.02c-6.926,1.828-41.294,14.309-41.638,14.435l-3.767,1.365l-14.461-39.808
			c-0.193-0.773-0.629-2.528-1.006-3.067c-0.324-0.032-1.619-0.035-4.808,1.365c-7.583,3.34-41.925,16.845-53.283,21.304
			l28.721,81.957l59.472-21.146l-4.361,6.309L314.818,372.529z"/>
		
			<rect x="331.404" y="278.812" transform="matrix(0.3668 0.9303 -0.9303 0.3668 504.2379 -113.3843)" clip-path="url(#SVGID_2_)" fill="#BFC0C1" width="8.011" height="69.806"/>
		
			<rect x="349.822" y="316.658" transform="matrix(0.3175 0.9482 -0.9482 0.3175 560.2769 -137.1562)" clip-path="url(#SVGID_2_)" fill="#BFC0C1" width="51.207" height="8.013"/>
		
			<path clip-path="url(#SVGID_2_)" fill="none" stroke="#1B171B" stroke-width="32.9995" stroke-linecap="round" stroke-miterlimit="10" d="
			M381.929,258.745"/>
		
			<path clip-path="url(#SVGID_2_)" fill="none" stroke="#1B171B" stroke-width="32.9995" stroke-linecap="round" stroke-miterlimit="10" d="
			M356.805,267.559"/>
		<path clip-path="url(#SVGID_2_)" fill="#BFC0C1" d="M533.688,460.978c-1.801,0-3.434-1.219-3.887-3.044l-22.306-90.371
			l-17.611-55.531c-0.671-2.106,0.498-4.356,2.605-5.024c2.107-0.671,4.359,0.495,5.028,2.607l17.725,55.903l22.337,90.494
			c0.529,2.147-0.782,4.318-2.928,4.849C534.329,460.943,534.005,460.978,533.688,460.978z"/>
		<polygon clip-path="url(#SVGID_2_)" fill="#D9D9DA" points="407.679,383.254 391.505,342.53 398.948,339.579 415.125,380.298 		
			"/>
		<path clip-path="url(#SVGID_2_)" fill="#BFC0C1" d="M490.406,530.654c-2.689,0-4.966-2.077-5.175-4.805l-4.016-52.385
			c-0.218-2.862,1.925-5.361,4.786-5.581c2.874-0.226,5.36,1.922,5.581,4.787l4.013,52.385c0.22,2.859-1.921,5.361-4.786,5.584
			C490.675,530.648,490.541,530.654,490.406,530.654z"/>
		<path clip-path="url(#SVGID_2_)" fill="#BFC0C1" d="M140.362,394.768l-6.59-4.556c-0.212,0.302-0.289,0.507-0.29,0.513
			c0.114-0.316,2.698-8.145-8.246-44.631c-4.188-13.956-3.442-26.123,2.212-36.154c8.038-14.264,23.216-19.066,25.639-19.758
			l108.567-45.351c5.524-2.423,9.672-1.436,12.18-0.179c4.419,2.212,7.723,7.189,9.309,14.027
			c1.648,7.096,6.747,18.563,6.797,18.676l-7.313,3.268c-0.224-0.498-5.468-12.297-7.287-20.133
			c-1.008-4.342-2.911-7.582-5.092-8.675c-0.53-0.27-2.142-1.078-5.404,0.36l-0.07,0.032l-109.099,45.573l-0.277,0.076
			c-0.132,0.032-14.166,3.861-21.008,16.084c-4.512,8.054-5.01,18.097-1.481,29.85C144.569,382.663,142.006,392.389,140.362,394.768
			z"/>
		<polygon clip-path="url(#SVGID_2_)" fill="#E6E1DA" points="40.031,391.859 40.031,420.713 89.761,399.397 		"/>
		<path clip-path="url(#SVGID_2_)" fill="none" stroke="#1B171B" stroke-width="32.9995" stroke-miterlimit="10" d="M223.139,264.34
			"/>
		<path clip-path="url(#SVGID_2_)" fill="none" stroke="#1B171B" stroke-width="32.9995" stroke-miterlimit="10" d="M265.653,386.5"
			/>
		<polygon clip-path="url(#SVGID_2_)" fill="#BFC0C1" points="311.931,493.394 303.513,477 258.642,421.879 200.449,424.903 
			200.035,416.901 262.285,413.667 310.257,472.594 319.059,489.732 		"/>
		
			<rect x="209.333" y="399.895" transform="matrix(0.3609 0.9326 -0.9326 0.3609 521.0078 47.5528)" clip-path="url(#SVGID_2_)" fill="#BFC0C1" width="32.953" height="8.014"/>
		
			<rect x="336.737" y="365.875" transform="matrix(0.2643 0.9644 -0.9644 0.2643 662.8092 -14.2478)" clip-path="url(#SVGID_2_)" fill="#BFC0C1" width="8.014" height="122.912"/>
		<polygon clip-path="url(#SVGID_2_)" fill="#BFC0C1" points="351.462,447.334 348.632,439.843 395.191,422.233 398.027,429.724 		
			"/>
		<polygon clip-path="url(#SVGID_2_)" fill="#BFC0C1" points="508.274,413.924 476.549,422.354 471.866,436.544 464.258,434.034 
			470.329,415.641 507.205,406.471 		"/>
		<path clip-path="url(#SVGID_2_)" fill="#BFC0C1" d="M505.55,436.486l-21.095-17.763c-1.69-1.43-1.907-3.949-0.483-5.643
			c1.427-1.695,3.953-1.912,5.646-0.488l21.092,17.765L505.55,436.486z"/>
		<g clip-path="url(#SVGID_2_)">
			<path fill="#1B171B" d="M177.846,372.658c-0.391,0.208-1.267,0.463-2.399,0.504c-2.958,0.105-4.821-1.682-4.922-4.526
				c-0.11-3.067,1.966-4.995,4.811-5.098c1.121-0.041,1.916,0.164,2.268,0.331l-0.311,1.371c-0.45-0.179-1.077-0.322-1.838-0.296
				c-1.891,0.067-3.217,1.304-3.136,3.542c0.073,2.057,1.308,3.313,3.366,3.24c0.677-0.023,1.39-0.188,1.841-0.396L177.846,372.658z
				"/>
			<path fill="#1B171B" d="M178.854,363.066l1.699-0.062l0.144,3.99h0.027c0.195-0.325,0.477-0.598,0.814-0.791
				c0.34-0.205,0.735-0.331,1.163-0.346c1.148-0.041,2.376,0.677,2.454,2.833l0.142,3.964l-1.699,0.062l-0.136-3.785
				c-0.034-0.967-0.419-1.702-1.358-1.667c-0.663,0.023-1.119,0.483-1.293,1.002c-0.05,0.152-0.058,0.334-0.052,0.513l0.146,4.034
				l-1.699,0.062L178.854,363.066z"/>
			<path fill="#1B171B" d="M188.212,369.658c0.085,1.216,1.043,1.705,2.136,1.667c0.787-0.029,1.334-0.17,1.854-0.369l0.289,1.151
				c-0.571,0.27-1.365,0.478-2.333,0.513c-2.183,0.079-3.516-1.219-3.589-3.275c-0.066-1.866,1.003-3.662,3.158-3.738
				c2.184-0.079,2.966,1.693,3.019,3.173c0.012,0.319-0.007,0.568-0.029,0.718L188.212,369.658z M191.127,368.366
				c-0.009-0.621-0.322-1.635-1.456-1.597c-1.049,0.038-1.458,1.011-1.501,1.702L191.127,368.366z"/>
			<path fill="#1B171B" d="M194.08,367.61c-0.026-0.773-0.078-1.424-0.126-2.001l1.452-0.053l0.119,0.993l0.041-0.003
				c0.297-0.539,0.883-1.181,2.032-1.222c0.883-0.032,1.591,0.442,1.909,1.178h0.028c0.221-0.384,0.488-0.668,0.785-0.873
				c0.376-0.278,0.8-0.431,1.367-0.451c1.104-0.038,2.265,0.683,2.342,2.839l0.142,3.964l-1.658,0.059l-0.134-3.715
				c-0.039-1.122-0.449-1.77-1.265-1.74c-0.58,0.021-0.993,0.448-1.154,0.94c-0.051,0.155-0.07,0.375-0.064,0.568l0.145,4.034
				l-1.658,0.059l-0.139-3.896c-0.034-0.94-0.429-1.588-1.217-1.559c-0.636,0.021-1.047,0.536-1.195,0.999
				c-0.05,0.179-0.07,0.375-0.063,0.568l0.142,3.979l-1.658,0.059L194.08,367.61z"/>
			<path fill="#1B171B" d="M207.478,363.245c0.018,0.498-0.34,0.926-0.933,0.946c-0.567,0.021-0.955-0.381-0.973-0.879
				c-0.019-0.524,0.353-0.94,0.92-0.96C207.072,362.331,207.445,362.721,207.478,363.245z M205.976,371.917l-0.24-6.729l1.699-0.062
				l0.24,6.729L205.976,371.917z"/>
			<path fill="#1B171B" d="M209.347,367.062c-0.026-0.773-0.078-1.421-0.126-2.001l1.478-0.053l0.119,1.005h0.041
				c0.286-0.536,0.995-1.198,2.113-1.239c1.174-0.041,2.417,0.677,2.493,2.804l0.144,3.993l-1.699,0.062l-0.136-3.8
				c-0.035-0.967-0.419-1.688-1.346-1.652c-0.675,0.023-1.129,0.521-1.291,1.043c-0.05,0.138-0.07,0.349-0.063,0.542l0.142,3.964
				l-1.699,0.059L209.347,367.062z"/>
			<path fill="#1B171B" d="M220.264,369.549c0.549,0.299,1.402,0.545,2.272,0.516c1.078-0.038,1.668-0.574,1.641-1.336
				c-0.025-0.7-0.51-1.099-1.699-1.485c-1.566-0.498-2.577-1.277-2.625-2.619c-0.054-1.532,1.175-2.722,3.207-2.794
				c1.008-0.035,1.748,0.158,2.241,0.389l-0.352,1.383c-0.353-0.167-1.011-0.407-1.881-0.378c-1.078,0.041-1.515,0.624-1.496,1.172
				c0.026,0.721,0.579,1.034,1.838,1.471c1.638,0.554,2.44,1.339,2.489,2.678c0.054,1.506-1.031,2.848-3.422,2.933
				c-0.995,0.035-2.027-0.202-2.55-0.504L220.264,369.549z"/>
			<path fill="#1B171B" d="M232.71,369.338c0.022,0.609,0.072,1.201,0.169,1.614l-1.533,0.056l-0.151-0.744l-0.041,0.003
				c-0.382,0.542-1.072,0.938-1.957,0.97c-1.354,0.05-2.149-0.905-2.186-1.928c-0.062-1.685,1.414-2.607,3.901-2.687l-0.004-0.108
				c-0.016-0.442-0.221-1.169-1.409-1.125c-0.664,0.023-1.348,0.252-1.792,0.56l-0.372-1.093c0.488-0.322,1.348-0.645,2.411-0.683
				c2.156-0.076,2.824,1.269,2.877,2.748L232.71,369.338z M230.995,367.73c-1.203,0.026-2.342,0.316-2.306,1.336
				c0.025,0.665,0.464,0.955,1.003,0.938c0.69-0.026,1.157-0.486,1.305-0.976c0.038-0.126,0.034-0.249,0.029-0.375L230.995,367.73z"
				/>
			<path fill="#1B171B" d="M236.075,362.219c0.018,0.498-0.341,0.929-0.935,0.949c-0.565,0.021-0.954-0.381-0.971-0.879
				c-0.019-0.523,0.353-0.939,0.918-0.961C235.668,361.309,236.043,361.696,236.075,362.219z M234.574,370.891l-0.24-6.729
				l1.699-0.059l0.24,6.729L234.574,370.891z"/>
			<path fill="#1B171B" d="M237.943,366.04c-0.026-0.773-0.078-1.424-0.126-2.001l1.479-0.053l0.118,1.005l0.041-0.003
				c0.284-0.533,0.996-1.195,2.115-1.236c1.173-0.041,2.416,0.677,2.492,2.804l0.144,3.993l-1.699,0.062l-0.136-3.803
				c-0.035-0.967-0.419-1.685-1.345-1.652c-0.677,0.023-1.131,0.524-1.292,1.043c-0.05,0.141-0.07,0.349-0.063,0.542l0.142,3.964
				l-1.699,0.062L237.943,366.04z"/>
			<path fill="#1B171B" d="M247.599,361.961l0.063,1.726l1.615-0.059l0.046,1.271l-1.616,0.059l0.105,2.971
				c0.029,0.829,0.267,1.233,0.914,1.21c0.305-0.012,0.469-0.029,0.661-0.091l0.073,1.286c-0.245,0.105-0.697,0.202-1.222,0.223
				c-0.636,0.021-1.154-0.167-1.485-0.504c-0.386-0.372-0.573-0.987-0.605-1.872l-0.112-3.164l-0.955,0.035l-0.045-1.271
				l0.955-0.035l-0.045-1.253L247.599,361.961z"/>
			<path fill="#1B171B" d="M251.822,367.381c0.085,1.216,1.044,1.705,2.136,1.667c0.788-0.026,1.336-0.17,1.853-0.369l0.292,1.151
				c-0.571,0.27-1.367,0.478-2.335,0.513c-2.183,0.079-3.514-1.219-3.589-3.275c-0.066-1.866,1.003-3.659,3.158-3.738
				c2.184-0.076,2.966,1.693,3.019,3.173c0.012,0.319-0.007,0.568-0.029,0.718L251.822,367.381z M254.737,366.089
				c-0.009-0.621-0.322-1.635-1.456-1.597c-1.049,0.038-1.458,1.011-1.501,1.702L254.737,366.089z"/>
			<path fill="#1B171B" d="M261.134,365.667l0.041,1.175l-3.523,0.126l-0.041-1.175L261.134,365.667z"/>
			<path fill="#1B171B" d="M262.351,360.577l5.389-0.193l0.05,1.395l-3.688,0.131l0.092,2.569l3.425-0.123l0.05,1.383l-3.425,0.123
				l0.142,3.964l-1.701,0.062L262.351,360.577z"/>
			<path fill="#1B171B" d="M275.541,365.999c0.089,2.47-1.613,3.639-3.325,3.7c-1.893,0.067-3.417-1.181-3.495-3.349
				c-0.079-2.209,1.323-3.617,3.354-3.691C274.077,362.588,275.467,363.951,275.541,365.999z M270.474,366.245
				c0.047,1.298,0.731,2.259,1.753,2.221c0.967-0.035,1.61-0.999,1.56-2.364c-0.037-1.052-0.549-2.25-1.711-2.209
				C270.875,363.936,270.434,365.125,270.474,366.245z"/>
			<path fill="#1B171B" d="M277.795,362.61l1.33,3.564c0.152,0.404,0.322,0.911,0.432,1.28h0.043
				c0.083-0.378,0.19-0.894,0.312-1.324l0.922-3.632l1.812-0.064l-1.523,4.648c-0.835,2.546-1.418,3.691-2.181,4.406
				c-0.655,0.606-1.337,0.85-1.75,0.92l-0.438-1.406c0.289-0.079,0.628-0.243,0.965-0.504c0.324-0.22,0.682-0.636,0.899-1.102
				c0.066-0.123,0.09-0.223,0.087-0.305c-0.003-0.07-0.021-0.167-0.096-0.331l-2.69-6.085L277.795,362.61z"/>
		</g>
		<g clip-path="url(#SVGID_2_)">
			<path fill="#1B171B" d="M65.633,365.609l2.667,0.709l0.063,1.755l-9.419-2.654l-0.078-2.168l9.204-3.357l0.066,1.838
				l-2.609,0.938L65.633,365.609z M64.253,362.99l-2.268,0.814c-0.56,0.202-1.191,0.375-1.723,0.533v0.026
				c0.543,0.117,1.198,0.246,1.756,0.381l2.32,0.636L64.253,362.99z"/>
			<path fill="#1B171B" d="M65.8,352.895c0.803-0.027,1.463-0.08,2.016-0.127l0.053,1.48l-1.005,0.119l0.001,0.041
				c0.479,0.273,1.195,0.912,1.238,2.127c0.044,1.217-0.649,2.361-2.846,2.441l-3.951,0.141l-0.06-1.699l3.661-0.133
				c1.119-0.041,1.825-0.424,1.793-1.324c-0.025-0.688-0.511-1.115-0.959-1.262c-0.139-0.068-0.334-0.086-0.528-0.08l-4.062,0.146
				l-0.062-1.701L65.8,352.895z"/>
			<path fill="#1B171B" d="M59.227,349.334l1.727-0.061l-0.059-1.617l1.271-0.047l0.059,1.617l2.969-0.105
				c0.831-0.029,1.238-0.264,1.214-0.914c-0.012-0.305-0.032-0.469-0.095-0.662l1.285-0.074c0.105,0.246,0.205,0.701,0.224,1.225
				c0.022,0.637-0.167,1.154-0.501,1.486c-0.374,0.387-0.989,0.574-1.874,0.605l-3.163,0.111l0.034,0.953l-1.271,0.047l-0.034-0.953
				l-1.257,0.045L59.227,349.334z"/>
			<path fill="#1B171B" d="M63.928,339.936c2.473-0.09,3.639,1.611,3.7,3.322c0.067,1.896-1.178,3.42-3.347,3.496
				c-2.21,0.078-3.617-1.322-3.69-3.352C60.519,341.401,61.883,340.006,63.928,339.936z M64.178,345.004
				c1.298-0.047,2.256-0.732,2.219-1.754c-0.035-0.971-0.999-1.611-2.367-1.563c-1.049,0.039-2.249,0.551-2.208,1.711
				C61.867,344.6,63.058,345.043,64.178,345.004z"/>
			<path fill="#1B171B" d="M62.743,338.571c-0.911,0.035-1.573,0.07-2.167,0.133l-0.053-1.463l1.269-0.113l-0.001-0.041
				c-0.953-0.299-1.463-1.07-1.49-1.803c-0.006-0.164,0.006-0.26,0.026-0.404l1.589-0.055c-0.022,0.152-0.031,0.305-0.023,0.512
				c0.028,0.803,0.561,1.352,1.34,1.477c0.152,0.021,0.334,0.029,0.513,0.021l3.495-0.123l0.06,1.699L62.743,338.571z"/>
			<path fill="#1B171B" d="M63.477,327.339c2.473-0.091,3.639,1.608,3.7,3.322c0.067,1.896-1.176,3.419-3.346,3.495
				c-2.21,0.078-3.618-1.322-3.69-3.352C60.069,328.798,61.432,327.41,63.477,327.339z M63.727,332.407
				c1.298-0.047,2.256-0.731,2.219-1.754c-0.035-0.97-0.999-1.614-2.366-1.564c-1.05,0.038-2.25,0.551-2.208,1.714
				C61.416,332.003,62.606,332.446,63.727,332.407z"/>
			<path fill="#1B171B" d="M64.619,319.86c0.803-0.026,1.462-0.079,2.014-0.126l0.053,1.479l-1.005,0.12l0.001,0.041
				c0.479,0.272,1.195,0.911,1.237,2.13c0.044,1.213-0.648,2.358-2.846,2.438l-3.951,0.141l-0.06-1.699l3.661-0.132
				c1.119-0.041,1.825-0.425,1.793-1.321c-0.025-0.691-0.511-1.119-0.959-1.266c-0.139-0.067-0.334-0.085-0.527-0.079l-4.062,0.146
				l-0.06-1.702L64.619,319.86z"/>
			<path fill="#1B171B" d="M58.045,316.297l1.727-0.062l-0.059-1.614l1.272-0.047l0.059,1.614l2.969-0.105
				c0.831-0.029,1.236-0.264,1.214-0.914c-0.012-0.305-0.032-0.469-0.095-0.662l1.285-0.073c0.105,0.246,0.205,0.7,0.224,1.225
				c0.022,0.636-0.167,1.154-0.501,1.485c-0.374,0.387-0.989,0.574-1.874,0.606l-3.163,0.111l0.034,0.955l-1.271,0.047l-0.034-0.955
				l-1.257,0.044L58.045,316.297z"/>
			<path fill="#1B171B" d="M63.469,312.076c1.214-0.085,1.707-1.043,1.667-2.136c-0.028-0.785-0.173-1.333-0.372-1.854l1.151-0.29
				c0.271,0.571,0.478,1.368,0.513,2.332c0.078,2.186-1.216,3.519-3.274,3.595c-1.866,0.064-3.661-1.005-3.738-3.161
				c-0.078-2.183,1.692-2.965,3.171-3.018c0.318-0.012,0.567,0.006,0.721,0.029L63.469,312.076z M62.174,309.161
				c-0.623,0.009-1.633,0.325-1.594,1.456c0.038,1.049,1.006,1.456,1.701,1.5L62.174,309.161z"/>
			<path fill="#1B171B" d="M73.723,367.188c-0.148-0.647-0.265-1.585-0.3-2.566c-0.047-1.336,0.142-2.24,0.645-2.896
				c0.409-0.527,1.049-0.842,1.85-0.871c1.201-0.041,2.046,0.748,2.382,1.621h0.041c0.224-0.689,0.858-1.113,1.749-1.365
				c1.148-0.35,2.219-0.637,2.571-0.826l0.063,1.74c-0.272,0.148-1.023,0.412-2.175,0.703c-1.206,0.318-1.578,0.758-1.57,1.728
				l0.031,0.855l3.828-0.138l0.06,1.688L73.723,367.188z M77.765,365.354l-0.037-1.005c-0.041-1.148-0.674-1.831-1.598-1.796
				c-1.009,0.035-1.468,0.756-1.428,1.863c0.019,0.536,0.073,0.879,0.12,1.043L77.765,365.354z"/>
			<path fill="#1B171B" d="M78.96,352.745c2.473-0.088,3.642,1.611,3.703,3.322c0.067,1.896-1.179,3.422-3.349,3.498
				c-2.21,0.08-3.615-1.324-3.688-3.354C75.554,354.208,76.915,352.819,78.96,352.745z M79.21,357.813
				c1.299-0.047,2.256-0.732,2.219-1.754c-0.034-0.967-0.998-1.609-2.366-1.563c-1.049,0.039-2.249,0.551-2.208,1.711
				C76.899,357.409,78.091,357.854,79.21,357.813z"/>
			<path fill="#1B171B" d="M72.526,351.573l-0.06-1.699l4.006-0.143l-0.001-0.027c-0.662-0.393-1.118-1.109-1.154-2.117
				c-0.059-1.645,1.266-2.869,3.312-2.928c2.418-0.084,3.675,1.4,3.729,2.924c0.032,0.871-0.272,1.656-1.085,2.168l0.001,0.029
				l1.012,0.047l0.052,1.447c-0.456-0.012-1.204-0.008-1.894,0.016L72.526,351.573z M79.499,349.622
				c0.138-0.006,0.275-0.025,0.4-0.055c0.684-0.205,1.159-0.818,1.132-1.551c-0.038-1.066-0.902-1.682-2.272-1.635
				c-1.187,0.045-2.134,0.645-2.095,1.779c0.025,0.691,0.546,1.309,1.299,1.461c0.124,0.023,0.278,0.045,0.444,0.039L79.499,349.622
				z"/>
			<path fill="#1B171B" d="M79.117,342.032c1.214-0.086,1.705-1.041,1.666-2.133c-0.028-0.789-0.171-1.336-0.371-1.855l1.153-0.293
				c0.27,0.572,0.478,1.369,0.511,2.336c0.079,2.182-1.216,3.518-3.274,3.592c-1.865,0.064-3.661-1.006-3.737-3.158
				c-0.079-2.186,1.692-2.969,3.17-3.021c0.318-0.012,0.567,0.006,0.721,0.029L79.117,342.032z M77.823,339.12
				c-0.624,0.006-1.636,0.322-1.595,1.455c0.038,1.047,1.006,1.453,1.701,1.5L77.823,339.12z"/>
			<path fill="#1B171B" d="M77.233,336.161c-0.913,0.031-1.576,0.066-2.168,0.129l-0.051-1.465l1.267-0.111l-0.001-0.045
				c-0.951-0.299-1.462-1.068-1.488-1.801c-0.006-0.164,0.004-0.262,0.026-0.404l1.589-0.057c-0.022,0.152-0.032,0.305-0.025,0.516
				c0.029,0.803,0.563,1.348,1.342,1.475c0.151,0.02,0.333,0.029,0.511,0.023l3.497-0.127l0.06,1.703L77.233,336.161z"/>
			<path fill="#1B171B" d="M73.077,329.106l1.729-0.062l-0.057-1.614l1.27-0.044L76.077,329l2.971-0.108
				c0.829-0.029,1.235-0.264,1.211-0.914c-0.01-0.302-0.031-0.469-0.094-0.659l1.285-0.073c0.105,0.246,0.207,0.697,0.224,1.222
				c0.023,0.636-0.167,1.157-0.501,1.485c-0.374,0.387-0.99,0.574-1.874,0.606l-3.164,0.114l0.035,0.955l-1.27,0.044l-0.035-0.955
				l-1.258,0.044L73.077,329.106z"/>
			<path fill="#1B171B" d="M77.056,323.071l1.173-0.041l0.126,3.521l-1.173,0.041L77.056,323.071z"/>
			<path fill="#1B171B" d="M72.102,321.846c-0.132-0.536-0.264-1.515-0.297-2.481c-0.045-1.242,0.092-2.036,0.5-2.672
				c0.324-0.595,0.917-1.002,1.718-1.031c0.855-0.032,1.649,0.48,2.06,1.477h0.041c0.214-0.99,0.955-1.919,2.227-1.963
				c0.829-0.029,1.491,0.308,1.966,0.814c0.59,0.645,0.92,1.726,0.98,3.437c0.034,0.94-0.009,1.649-0.05,2.092L72.102,321.846z
				 M75.714,320.027l-0.031-0.87c-0.042-1.187-0.62-1.816-1.406-1.79c-0.885,0.032-1.261,0.712-1.222,1.787
				c0.018,0.498,0.056,0.788,0.103,0.964L75.714,320.027z M79.982,319.875c0.034-0.223,0.023-0.513,0.009-0.899
				c-0.038-1.09-0.473-2.057-1.62-2.016c-1.091,0.041-1.499,1.008-1.456,2.18l0.029,0.844L79.982,319.875z"/>
			<path fill="#1B171B" d="M77.334,307.28c2.473-0.091,3.64,1.611,3.702,3.322c0.067,1.896-1.179,3.419-3.349,3.495
				c-2.21,0.079-3.615-1.321-3.688-3.352C73.927,308.745,75.289,307.353,77.334,307.28z M77.584,312.348
				c1.299-0.047,2.256-0.732,2.219-1.755c-0.035-0.97-0.999-1.611-2.367-1.562c-1.049,0.038-2.249,0.551-2.208,1.711
				C75.273,311.944,76.465,312.389,77.584,312.348z"/>
			<path fill="#1B171B" d="M78.477,299.8c0.801-0.026,1.463-0.076,2.016-0.126l0.053,1.477l-1.006,0.12l0.001,0.041
				c0.48,0.272,1.195,0.911,1.239,2.13c0.044,1.216-0.649,2.358-2.846,2.438l-3.951,0.141l-0.06-1.696l3.661-0.132
				c1.119-0.038,1.824-0.425,1.792-1.324c-0.025-0.691-0.51-1.116-0.958-1.266c-0.141-0.064-0.334-0.085-0.527-0.079l-4.062,0.146
				l-0.062-1.699L78.477,299.8z"/>
			<path fill="#1B171B" d="M75.869,298.051c-0.913,0.032-1.576,0.067-2.168,0.129l-0.051-1.465l1.267-0.111l-0.001-0.043
				c-0.951-0.299-1.462-1.066-1.488-1.799c-0.006-0.164,0.004-0.262,0.026-0.404l1.589-0.057c-0.022,0.152-0.032,0.309-0.023,0.514
				c0.028,0.803,0.561,1.348,1.34,1.473c0.151,0.021,0.333,0.029,0.511,0.023l3.497-0.125l0.06,1.701L75.869,298.051z"/>
			<path fill="#1B171B" d="M78.452,287.924c0.608-0.023,1.203-0.074,1.614-0.17l0.054,1.535l-0.743,0.148l0.001,0.045
				c0.541,0.381,0.939,1.072,0.971,1.953c0.048,1.354-0.907,2.15-1.929,2.189c-1.686,0.059-2.609-1.416-2.684-3.902l-0.111,0.002
				c-0.442,0.016-1.169,0.223-1.126,1.41c0.025,0.662,0.256,1.348,0.564,1.793l-1.093,0.371c-0.322-0.488-0.645-1.348-0.683-2.41
				c-0.076-2.156,1.267-2.828,2.747-2.881L78.452,287.924z M76.84,289.641c0.028,1.203,0.318,2.338,1.342,2.303
				c0.662-0.023,0.951-0.463,0.932-1c-0.025-0.691-0.485-1.16-0.973-1.309c-0.126-0.035-0.25-0.033-0.375-0.027L76.84,289.641z"/>
			<path fill="#1B171B" d="M78.431,286.186c0.223-0.381,0.458-1.121,0.437-1.73c-0.026-0.748-0.356-1.066-0.797-1.053
				c-0.457,0.018-0.668,0.303-0.942,1.141c-0.396,1.332-1.094,1.895-1.896,1.924c-1.189,0.045-2.136-0.904-2.191-2.467
				c-0.026-0.746,0.13-1.402,0.337-1.813l1.198,0.305c-0.155,0.281-0.356,0.84-0.335,1.436c0.022,0.609,0.338,0.932,0.753,0.914
				c0.428-0.016,0.611-0.34,0.899-1.207c0.382-1.246,0.984-1.82,1.979-1.869c1.229-0.045,2.147,0.875,2.212,2.66
				c0.028,0.814-0.139,1.555-0.397,2.059L78.431,286.186z"/>
			<path fill="#1B171B" d="M78.225,280.42c0.223-0.381,0.458-1.121,0.437-1.73c-0.026-0.748-0.356-1.066-0.797-1.053
				c-0.457,0.018-0.668,0.303-0.942,1.141c-0.396,1.332-1.094,1.895-1.896,1.924c-1.19,0.045-2.136-0.904-2.191-2.467
				c-0.026-0.744,0.13-1.4,0.337-1.811l1.2,0.303c-0.157,0.283-0.357,0.84-0.337,1.436c0.022,0.609,0.338,0.932,0.753,0.914
				c0.428-0.016,0.612-0.34,0.899-1.207c0.382-1.242,0.984-1.82,1.979-1.869c1.229-0.045,2.147,0.879,2.211,2.66
				c0.03,0.814-0.139,1.555-0.395,2.063L78.225,280.42z"/>
			<path fill="#1B171B" d="M77.788,269.364c0.608-0.023,1.201-0.072,1.613-0.17l0.056,1.535l-0.743,0.15l0.001,0.043
				c0.541,0.381,0.939,1.072,0.97,1.955c0.048,1.354-0.905,2.15-1.928,2.186c-1.686,0.061-2.61-1.412-2.684-3.9l-0.112,0.004
				c-0.442,0.014-1.168,0.223-1.126,1.408c0.023,0.662,0.256,1.348,0.563,1.793l-1.093,0.373c-0.322-0.49-0.643-1.348-0.681-2.412
				c-0.078-2.156,1.267-2.826,2.747-2.879L77.788,269.364z M76.177,271.081c0.028,1.205,0.318,2.338,1.342,2.303
				c0.662-0.023,0.949-0.463,0.93-0.998c-0.025-0.691-0.483-1.16-0.971-1.311c-0.126-0.035-0.25-0.031-0.375-0.025L76.177,271.081z"
				/>
		</g>
		<g clip-path="url(#SVGID_2_)">
			<g>
				<path fill="#1B171B" d="M356.822,514.221c0.523-0.167,1.489-0.363,2.453-0.463c1.236-0.129,2.037-0.047,2.703,0.313
					c0.611,0.284,1.059,0.847,1.143,1.644c0.089,0.855-0.367,1.682-1.332,2.156l0.004,0.041c1.004,0.146,1.979,0.826,2.109,2.089
					c0.087,0.826-0.201,1.506-0.676,2.016c-0.603,0.636-1.658,1.034-3.363,1.213c-0.936,0.1-1.645,0.103-2.09,0.094L356.822,514.221
					z M358.881,517.705l0.867-0.091c1.183-0.126,1.771-0.744,1.689-1.526c-0.092-0.879-0.795-1.21-1.867-1.099
					c-0.496,0.053-0.779,0.111-0.955,0.173L358.881,517.705z M359.325,521.953c0.224,0.018,0.515-0.015,0.899-0.053
					c1.084-0.114,2.02-0.615,1.9-1.755c-0.113-1.087-1.109-1.427-2.277-1.304l-0.839,0.088L359.325,521.953z"/>
				<path fill="#1B171B" d="M371.712,518.449c0.258,2.458-1.361,3.741-3.064,3.92c-1.884,0.196-3.491-0.943-3.716-3.103
					c-0.23-2.197,1.073-3.697,3.095-3.908C370.02,515.15,371.499,516.41,371.712,518.449z M366.674,519.041
					c0.135,1.295,0.882,2.203,1.9,2.098c0.962-0.1,1.538-1.104,1.396-2.467c-0.108-1.046-0.703-2.206-1.858-2.083
					C366.916,516.711,366.559,517.927,366.674,519.041z"/>
				<path fill="#1B171B" d="M379.25,519.079c0.083,0.797,0.179,1.453,0.265,2.001l-1.469,0.152l-0.189-0.993l-0.041,0.003
					c-0.241,0.498-0.829,1.254-2.039,1.38c-1.21,0.129-2.399-0.486-2.628-2.672l-0.41-3.932l1.692-0.176l0.381,3.642
					c0.115,1.116,0.546,1.79,1.441,1.696c0.687-0.07,1.079-0.583,1.198-1.04c0.054-0.146,0.062-0.34,0.041-0.533l-0.422-4.04
					l1.69-0.176L379.25,519.079z"/>
				<path fill="#1B171B" d="M380.276,511.13l1.69-0.176l1.021,9.762l-1.69,0.176L380.276,511.13z"/>
				<path fill="#1B171B" d="M385.729,517.526c0.167,1.204,1.156,1.626,2.243,1.512c0.783-0.082,1.319-0.258,1.825-0.492l0.367,1.128
					c-0.551,0.308-1.33,0.571-2.294,0.671c-2.172,0.226-3.59-0.976-3.804-3.023c-0.195-1.854,0.751-3.718,2.896-3.943
					c2.174-0.226,3.073,1.485,3.228,2.956c0.033,0.316,0.032,0.568,0.021,0.724L385.729,517.526z M388.547,516.035
					c-0.051-0.618-0.434-1.611-1.562-1.491c-1.044,0.108-1.384,1.104-1.381,1.799L388.547,516.035z"/>
				<path fill="#1B171B" d="M392.265,512.979l1.441,3.278c0.254,0.571,0.448,1.093,0.629,1.632l0.041-0.006
					c0.065-0.563,0.162-1.102,0.279-1.726l0.718-3.504l1.772-0.188l-1.857,6.964l-1.662,0.173l-3.189-6.434L392.265,512.979z"/>
				<path fill="#1B171B" d="M403.829,516.911c0.063,0.606,0.152,1.192,0.28,1.597l-1.528,0.158l-0.2-0.727l-0.041,0.003
					c-0.346,0.565-1.008,1.008-1.889,1.102c-1.348,0.141-2.204-0.756-2.312-1.772c-0.176-1.679,1.235-2.704,3.708-2.95l-0.011-0.105
					c-0.047-0.442-0.3-1.148-1.483-1.025c-0.659,0.067-1.326,0.343-1.749,0.68l-0.445-1.063c0.466-0.357,1.301-0.735,2.358-0.847
					c2.146-0.223,2.906,1.072,3.06,2.546L403.829,516.911z M402.006,515.419c-1.197,0.108-2.313,0.478-2.208,1.494
					c0.069,0.662,0.527,0.92,1.063,0.864c0.688-0.073,1.124-0.563,1.236-1.061c0.031-0.129,0.018-0.252,0.005-0.375L402.006,515.419
					z"/>
				<path fill="#1B171B" d="M405.317,513.796c-0.095-0.911-0.179-1.567-0.279-2.153l1.456-0.152l0.202,1.254l0.041-0.003
					c0.231-0.97,0.965-1.532,1.694-1.608c0.164-0.018,0.263-0.012,0.401,0l0.166,1.582c-0.154-0.015-0.305-0.009-0.513,0.012
					c-0.797,0.082-1.309,0.65-1.379,1.438c-0.012,0.149-0.006,0.331,0.012,0.51l0.365,3.478l-1.692,0.179L405.317,513.796z"/>
				<path fill="#1B171B" d="M415.721,507.424l0.823,7.881c0.072,0.683,0.178,1.424,0.252,1.875l-1.498,0.158l-0.193-1.052
					l-0.028,0.003c-0.32,0.785-1.084,1.339-2.045,1.438c-1.609,0.167-3.018-1.061-3.232-3.123c-0.248-2.241,1.015-3.721,2.625-3.888
					c0.921-0.097,1.618,0.202,1.975,0.665l0.026-0.003l-0.396-3.779L415.721,507.424z M414.642,513.457
					c-0.015-0.135-0.047-0.313-0.088-0.448c-0.22-0.63-0.812-1.11-1.581-1.028c-1.087,0.114-1.591,1.14-1.462,2.373
					c0.131,1.239,0.828,2.071,1.9,1.957c0.687-0.07,1.245-0.604,1.333-1.348c0.024-0.155,0.021-0.322,0.003-0.501L414.642,513.457z"
					/>
				<path fill="#1B171B" d="M420.513,507.424l1.691-0.179l0.822,7.852l3.809-0.396l0.147,1.412l-5.5,0.577L420.513,507.424z"/>
				<path fill="#1B171B" d="M433.227,513.837c0.063,0.606,0.152,1.192,0.278,1.597l-1.526,0.158l-0.202-0.727l-0.039,0.003
					c-0.346,0.565-1.008,1.008-1.889,1.102c-1.348,0.141-2.204-0.756-2.311-1.772c-0.176-1.679,1.232-2.704,3.707-2.95l-0.011-0.105
					c-0.047-0.442-0.3-1.151-1.483-1.025c-0.66,0.067-1.326,0.343-1.748,0.68l-0.446-1.063c0.464-0.357,1.301-0.735,2.358-0.847
					c2.146-0.223,2.906,1.072,3.06,2.546L433.227,513.837z M431.403,512.346c-1.198,0.108-2.313,0.478-2.207,1.494
					c0.07,0.662,0.526,0.92,1.063,0.864c0.688-0.073,1.124-0.563,1.236-1.061c0.029-0.132,0.018-0.255,0.005-0.378L431.403,512.346z
					"/>
				<path fill="#1B171B" d="M440.975,512.625c0.083,0.797,0.18,1.453,0.264,2.001l-1.47,0.152l-0.188-0.993l-0.041,0.006
					c-0.242,0.495-0.829,1.251-2.039,1.38c-1.21,0.126-2.399-0.486-2.627-2.672l-0.411-3.932l1.691-0.179l0.381,3.642
					c0.116,1.116,0.547,1.79,1.441,1.699c0.688-0.073,1.078-0.586,1.198-1.043c0.055-0.146,0.062-0.34,0.041-0.533l-0.422-4.04
					l1.692-0.176L440.975,512.625z"/>
				<path fill="#1B171B" d="M442.545,509.903c-0.096-0.911-0.179-1.564-0.281-2.153l1.457-0.152l0.201,1.257l0.041-0.006
					c0.231-0.97,0.965-1.532,1.694-1.608c0.166-0.015,0.263-0.012,0.403,0l0.165,1.582c-0.155-0.012-0.306-0.009-0.513,0.012
					c-0.797,0.085-1.308,0.65-1.38,1.438c-0.01,0.149-0.004,0.334,0.014,0.513l0.364,3.478l-1.691,0.176L442.545,509.903z"/>
				<path fill="#1B171B" d="M448.823,505.171c0.051,0.495-0.277,0.946-0.866,1.008c-0.563,0.062-0.979-0.313-1.031-0.809
					c-0.054-0.521,0.289-0.961,0.852-1.02C448.354,504.29,448.756,504.653,448.823,505.171z M447.919,513.925l-0.7-6.694l1.69-0.176
					l0.7,6.694L447.919,513.925z"/>
				<path fill="#1B171B" d="M452.337,510.562c0.167,1.201,1.156,1.626,2.243,1.512c0.783-0.082,1.319-0.258,1.825-0.492l0.369,1.128
					c-0.553,0.308-1.332,0.568-2.296,0.671c-2.172,0.226-3.59-0.976-3.804-3.023c-0.195-1.854,0.751-3.718,2.896-3.943
					c2.174-0.229,3.073,1.485,3.228,2.956c0.033,0.316,0.032,0.568,0.021,0.724L452.337,510.562z M455.155,509.071
					c-0.051-0.621-0.434-1.611-1.562-1.494c-1.044,0.111-1.384,1.104-1.381,1.802L455.155,509.071z"/>
				<path fill="#1B171B" d="M458.069,508.28c-0.096-0.911-0.179-1.564-0.281-2.153l1.457-0.152l0.202,1.257l0.04-0.006
					c0.23-0.97,0.965-1.532,1.695-1.608c0.164-0.015,0.263-0.012,0.402,0l0.165,1.582c-0.153-0.012-0.306-0.009-0.513,0.012
					c-0.797,0.085-1.309,0.65-1.379,1.438c-0.012,0.149-0.006,0.334,0.012,0.513l0.365,3.478l-1.691,0.176L458.069,508.28z"/>
			</g>
		</g>
		<g clip-path="url(#SVGID_2_)">
			<g>
				<path fill="#1B171B" d="M235.13,478.725c0.517-0.188,1.475-0.418,2.435-0.557c1.23-0.176,2.035-0.123,2.711,0.215
					c0.623,0.26,1.091,0.805,1.204,1.602c0.122,0.85-0.303,1.69-1.25,2.2l0.006,0.044c1.006,0.105,2.007,0.747,2.186,2.007
					c0.117,0.82-0.146,1.515-0.604,2.036c-0.577,0.656-1.617,1.099-3.313,1.342c-0.932,0.132-1.639,0.164-2.084,0.173
					L235.13,478.725z M237.317,482.126l0.863-0.123c1.178-0.167,1.743-0.809,1.632-1.588c-0.126-0.876-0.839-1.181-1.906-1.028
					c-0.494,0.07-0.776,0.141-0.951,0.209L237.317,482.126z M237.919,486.357c0.226,0.009,0.514-0.032,0.896-0.085
					c1.081-0.155,1.995-0.691,1.834-1.825c-0.154-1.081-1.16-1.386-2.323-1.222l-0.836,0.12L237.919,486.357z"/>
				<path fill="#1B171B" d="M250.168,482.39c0.349,2.449-1.22,3.791-2.918,4.034c-1.875,0.267-3.522-0.812-3.829-2.962
					c-0.312-2.188,0.935-3.735,2.949-4.022C248.354,479.159,249.878,480.364,250.168,482.39z M245.154,483.172
					c0.183,1.289,0.965,2.168,1.979,2.024c0.957-0.138,1.496-1.163,1.304-2.517c-0.149-1.04-0.786-2.18-1.937-2.016
					C245.31,480.834,244.996,482.065,245.154,483.172z"/>
				<path fill="#1B171B" d="M257.724,482.736c0.114,0.797,0.233,1.447,0.34,1.995l-1.463,0.208l-0.227-0.987l-0.038,0.006
					c-0.223,0.504-0.784,1.283-1.988,1.453c-1.204,0.173-2.416-0.393-2.726-2.569l-0.557-3.913l1.685-0.24l0.516,3.623
					c0.158,1.11,0.613,1.772,1.504,1.644c0.684-0.097,1.056-0.624,1.159-1.084c0.048-0.149,0.048-0.346,0.022-0.536l-0.573-4.021
					l1.682-0.24L257.724,482.736z"/>
				<path fill="#1B171B" d="M258.45,474.759l1.685-0.237l1.386,9.717l-1.685,0.24L258.45,474.759z"/>
				<path fill="#1B171B" d="M264.14,480.943c0.211,1.198,1.216,1.588,2.298,1.436c0.779-0.111,1.31-0.313,1.805-0.563l0.41,1.113
					c-0.541,0.328-1.308,0.615-2.268,0.753c-2.162,0.308-3.624-0.838-3.916-2.877c-0.262-1.848,0.612-3.746,2.748-4.049
					c2.164-0.311,3.127,1.369,3.335,2.834c0.045,0.316,0.053,0.564,0.048,0.717L264.14,480.943z M266.901,479.352
					c-0.075-0.617-0.494-1.594-1.616-1.436c-1.04,0.15-1.342,1.158-1.314,1.852L266.901,479.352z"/>
				<path fill="#1B171B" d="M270.5,476.16l1.564,3.222c0.275,0.563,0.488,1.075,0.688,1.605l0.041-0.006
					c0.045-0.565,0.123-1.104,0.214-1.734l0.586-3.529l1.767-0.252l-1.597,7.027l-1.655,0.237l-3.428-6.313L270.5,476.16z"/>
				<path fill="#1B171B" d="M282.205,479.657c0.087,0.604,0.195,1.184,0.338,1.585l-1.52,0.217l-0.229-0.724l-0.04,0.006
					c-0.323,0.577-0.97,1.046-1.846,1.172c-1.341,0.19-2.23-0.674-2.375-1.684c-0.238-1.67,1.131-2.746,3.594-3.086l-0.015-0.107
					c-0.063-0.439-0.343-1.137-1.519-0.97c-0.658,0.094-1.313,0.396-1.724,0.743l-0.485-1.042c0.451-0.375,1.273-0.782,2.326-0.935
					c2.136-0.302,2.944,0.964,3.152,2.428L282.205,479.657z M280.327,478.233c-1.193,0.156-2.295,0.566-2.15,1.58
					c0.094,0.655,0.561,0.896,1.094,0.819c0.686-0.097,1.102-0.603,1.196-1.106c0.025-0.129,0.008-0.252-0.01-0.375L280.327,478.233
					z"/>
				<path fill="#1B171B" d="M283.575,476.487c-0.129-0.904-0.236-1.558-0.36-2.141l1.45-0.205l0.249,1.245l0.041-0.006
					c0.195-0.976,0.907-1.564,1.633-1.67c0.164-0.023,0.262-0.021,0.403-0.015l0.224,1.576c-0.155-0.009-0.306,0.003-0.513,0.032
					c-0.792,0.111-1.283,0.697-1.324,1.485c-0.006,0.152,0.007,0.334,0.032,0.512l0.494,3.463l-1.685,0.24L283.575,476.487z"/>
				<path fill="#1B171B" d="M293.732,469.735l1.119,7.842c0.097,0.684,0.23,1.416,0.322,1.867l-1.493,0.213l-0.231-1.043
					l-0.028,0.004c-0.291,0.793-1.034,1.373-1.99,1.512c-1.601,0.229-3.054-0.947-3.346-3c-0.331-2.227,0.875-3.756,2.477-3.984
					c0.917-0.132,1.626,0.144,1.998,0.595l0.026-0.003l-0.536-3.762L293.732,469.735z M292.881,475.805
					c-0.019-0.138-0.059-0.316-0.105-0.445c-0.243-0.624-0.853-1.081-1.619-0.973c-1.081,0.155-1.547,1.198-1.371,2.428
					c0.176,1.234,0.905,2.039,1.972,1.887c0.683-0.1,1.22-0.652,1.282-1.4c0.019-0.158,0.009-0.318-0.016-0.498L292.881,475.805z"/>
				<path fill="#1B171B" d="M298.543,469.691c0.625-0.217,1.543-0.428,2.515-0.568c1.329-0.188,2.249-0.097,2.953,0.334
					c0.567,0.352,0.944,0.952,1.06,1.749c0.17,1.189-0.523,2.112-1.357,2.537l0.006,0.041c0.705,0.152,1.194,0.738,1.541,1.597
					c0.465,1.106,0.863,2.138,1.092,2.47l-1.725,0.246c-0.176-0.252-0.517-0.977-0.926-2.089c-0.445-1.166-0.926-1.488-1.887-1.377
					l-0.85,0.12l0.541,3.791l-1.669,0.236L298.543,469.691z M300.789,473.517l1-0.144c1.137-0.161,1.75-0.861,1.618-1.781
					c-0.142-0.996-0.908-1.377-2.003-1.222c-0.533,0.076-0.869,0.167-1.031,0.231L300.789,473.517z"/>
				<path fill="#1B171B" d="M308.387,474.642c0.213,1.198,1.217,1.585,2.299,1.433c0.779-0.111,1.31-0.313,1.805-0.563l0.41,1.113
					c-0.54,0.328-1.308,0.615-2.268,0.752c-2.162,0.309-3.623-0.838-3.914-2.876c-0.264-1.849,0.611-3.744,2.747-4.049
					c2.163-0.311,3.127,1.368,3.335,2.833c0.046,0.316,0.053,0.565,0.047,0.721L308.387,474.642z M311.148,473.048
					c-0.074-0.618-0.492-1.594-1.617-1.436c-1.039,0.149-1.342,1.157-1.313,1.854L311.148,473.048z"/>
				<path fill="#1B171B" d="M314.004,471.985c-0.108-0.768-0.228-1.406-0.336-1.978l1.465-0.208l0.223,0.984l0.041-0.006
					c0.229-0.56,0.864-1.295,1.972-1.453c1.163-0.164,2.476,0.416,2.776,2.522l0.563,3.958l-1.685,0.24l-0.536-3.765
					c-0.138-0.958-0.595-1.635-1.513-1.503c-0.67,0.097-1.068,0.642-1.174,1.175c-0.033,0.146-0.032,0.354-0.005,0.545l0.56,3.929
					l-1.684,0.24L314.004,471.985z"/>
				<path fill="#1B171B" d="M323.289,472.518c0.214,1.198,1.217,1.585,2.3,1.433c0.779-0.111,1.31-0.313,1.805-0.563l0.41,1.113
					c-0.539,0.328-1.308,0.618-2.267,0.753c-2.162,0.308-3.625-0.838-3.915-2.877c-0.264-1.849,0.612-3.744,2.747-4.049
					c2.163-0.308,3.127,1.368,3.335,2.833c0.046,0.316,0.053,0.568,0.047,0.721L323.289,472.518z M326.052,470.924
					c-0.075-0.615-0.492-1.594-1.614-1.433c-1.04,0.146-1.345,1.154-1.315,1.852L326.052,470.924z M326.02,465.302l-1.383,2.265
					l-1.163,0.167l0.902-2.197L326.02,465.302z"/>
				<path fill="#1B171B" d="M332.367,469.829l0.165,1.163l-3.489,0.498l-0.167-1.163L332.367,469.829z"/>
				<path fill="#1B171B" d="M333.042,464.634l1.685-0.237l1.113,7.813l3.791-0.542l0.201,1.412l-5.475,0.779L333.042,464.634z"/>
				<path fill="#1B171B" d="M341.673,469.899c0.214,1.198,1.219,1.585,2.3,1.433c0.78-0.111,1.31-0.313,1.806-0.563l0.41,1.113
					c-0.54,0.328-1.31,0.618-2.268,0.753c-2.161,0.308-3.624-0.838-3.915-2.877c-0.262-1.849,0.612-3.744,2.746-4.049
					c2.164-0.308,3.128,1.368,3.336,2.833c0.045,0.316,0.054,0.565,0.05,0.721L341.673,469.899z M344.436,468.305
					c-0.075-0.615-0.492-1.594-1.614-1.433c-1.04,0.146-1.345,1.154-1.315,1.852L344.436,468.305z M344.403,462.683l-1.383,2.265
					l-1.163,0.167l0.902-2.197L344.403,462.683z"/>
				<path fill="#1B171B" d="M348.035,465.112l1.563,3.223c0.275,0.563,0.487,1.075,0.69,1.605l0.041-0.006
					c0.043-0.565,0.121-1.104,0.213-1.734l0.586-3.53l1.764-0.249l-1.594,7.028l-1.656,0.234l-3.426-6.313L348.035,465.112z"/>
				<path fill="#1B171B" d="M355.482,467.93c0.211,1.198,1.218,1.588,2.299,1.433c0.781-0.111,1.31-0.311,1.805-0.563l0.412,1.113
					c-0.541,0.328-1.311,0.618-2.268,0.756c-2.162,0.308-3.626-0.838-3.918-2.877c-0.262-1.849,0.614-3.747,2.748-4.052
					c2.164-0.308,3.128,1.371,3.336,2.836c0.045,0.316,0.053,0.565,0.049,0.718L355.482,467.93z M358.244,466.339
					c-0.074-0.618-0.494-1.597-1.616-1.436c-1.04,0.149-1.341,1.157-1.313,1.852L358.244,466.339z"/>
				<path fill="#1B171B" d="M361.477,468.405c0.401,0.179,1.166,0.334,1.768,0.249c0.739-0.105,1.021-0.469,0.961-0.905
					c-0.064-0.451-0.371-0.63-1.234-0.817c-1.361-0.249-1.999-0.885-2.111-1.679c-0.168-1.178,0.676-2.221,2.223-2.44
					c0.74-0.105,1.406-0.021,1.836,0.146l-0.174,1.225c-0.298-0.126-0.875-0.267-1.464-0.182c-0.603,0.085-0.89,0.431-0.831,0.844
					c0.061,0.422,0.402,0.568,1.295,0.765c1.281,0.249,1.915,0.788,2.068,1.77c0.175,1.219-0.646,2.229-2.41,2.481
					c-0.808,0.114-1.561,0.026-2.091-0.176L361.477,468.405z"/>
				<path fill="#1B171B" d="M371.81,467.59l-0.026,0.003c-0.305,0.7-0.943,1.222-1.914,1.359c-1.508,0.217-2.979-0.899-3.274-2.982
					c-0.349-2.438,1.051-3.809,2.475-4.011c0.929-0.132,1.645,0.188,2.087,0.753l0.031,0.009l-0.087-0.896l1.629-0.231
					c0.059,0.604,0.12,1.239,0.22,1.937l1.061,7.444l-1.683,0.24L371.81,467.59z M371.384,464.59c-0.02-0.135-0.055-0.287-0.1-0.401
					c-0.24-0.609-0.85-1.066-1.603-0.961c-1.096,0.158-1.567,1.157-1.388,2.417c0.173,1.219,0.893,2.051,1.96,1.898
					c0.685-0.097,1.184-0.615,1.279-1.313c0.035-0.158,0.032-0.366,0.009-0.53L371.384,464.59z"/>
				<path fill="#1B171B" d="M381.122,465.156c0.112,0.797,0.232,1.447,0.34,1.995l-1.464,0.208l-0.226-0.987l-0.041,0.006
					c-0.221,0.504-0.782,1.283-1.984,1.453c-1.206,0.173-2.416-0.393-2.727-2.569l-0.557-3.914l1.682-0.24l0.518,3.624
					c0.158,1.11,0.615,1.772,1.504,1.644c0.686-0.097,1.058-0.624,1.16-1.084c0.047-0.152,0.047-0.346,0.021-0.536l-0.574-4.022
					l1.685-0.24L381.122,465.156z"/>
				<path fill="#1B171B" d="M384.018,463.864c0.211,1.198,1.218,1.588,2.299,1.436c0.779-0.111,1.31-0.313,1.806-0.563l0.409,1.113
					c-0.539,0.328-1.309,0.615-2.267,0.753c-2.162,0.308-3.624-0.838-3.914-2.877c-0.264-1.849,0.611-3.747,2.745-4.049
					c2.164-0.311,3.128,1.368,3.336,2.833c0.045,0.316,0.054,0.565,0.048,0.718L384.018,463.864z M386.779,462.273
					c-0.075-0.618-0.494-1.594-1.616-1.436c-1.04,0.149-1.342,1.157-1.313,1.852L386.779,462.273z"/>
			</g>
		</g>
		<g clip-path="url(#SVGID_2_)">
			<g>
				<path fill="#1B171B" d="M342.523,337.157c0.48-0.268,1.386-0.66,2.309-0.949c1.187-0.379,1.988-0.455,2.712-0.234
					c0.655,0.152,1.208,0.617,1.45,1.379c0.259,0.82-0.021,1.721-0.871,2.379l0.012,0.041c1.012-0.061,2.104,0.408,2.488,1.621
					c0.25,0.791,0.104,1.518-0.262,2.109c-0.459,0.744-1.414,1.348-3.049,1.865c-0.896,0.285-1.588,0.428-2.026,0.514
					L342.523,337.157z M345.241,340.151l0.829-0.262c1.134-0.359,1.588-1.084,1.349-1.834c-0.267-0.844-1.021-1.027-2.049-0.703
					c-0.475,0.152-0.743,0.27-0.902,0.361L345.241,340.151z M346.53,344.223c0.223-0.027,0.501-0.115,0.87-0.229
					c1.039-0.332,1.854-1.012,1.508-2.104c-0.33-1.041-1.372-1.176-2.492-0.82l-0.805,0.254L346.53,344.223z"/>
				<path fill="#1B171B" d="M357.959,338.299c0.746,2.357-0.579,3.939-2.214,4.455c-1.806,0.574-3.608-0.219-4.265-2.287
					c-0.664-2.107,0.309-3.842,2.248-4.453C355.639,335.407,357.34,336.348,357.959,338.299z M353.144,339.895
					c0.393,1.242,1.308,1.98,2.284,1.674c0.922-0.293,1.283-1.395,0.869-2.699c-0.316-1.004-1.131-2.018-2.238-1.67
					C352.91,337.563,352.805,338.829,353.144,339.895z"/>
				<path fill="#1B171B" d="M365.47,337.403c0.242,0.764,0.469,1.389,0.662,1.906l-1.409,0.445l-0.385-0.934l-0.038,0.012
					c-0.136,0.533-0.562,1.391-1.72,1.76c-1.16,0.367-2.449,0.006-3.113-2.086l-1.193-3.773l1.621-0.512l1.106,3.492
					c0.339,1.068,0.897,1.643,1.755,1.373c0.659-0.211,0.939-0.787,0.964-1.26c0.022-0.154-0.008-0.348-0.065-0.533l-1.229-3.873
					l1.62-0.512L365.47,337.403z"/>
				<path fill="#1B171B" d="M364.877,329.414l1.621-0.516l2.962,9.356l-1.62,0.516L364.877,329.414z"/>
				<path fill="#1B171B" d="M376.915,325.599l2.392,7.552c0.208,0.656,0.46,1.363,0.624,1.791l-1.438,0.453l-0.398-0.99l-0.026,0.01
					c-0.158,0.832-0.794,1.525-1.715,1.816c-1.543,0.488-3.169-0.432-3.796-2.408c-0.692-2.142,0.246-3.85,1.79-4.339
					c0.882-0.278,1.626-0.12,2.068,0.261l0.026-0.009l-1.146-3.621L376.915,325.599z M377.071,331.728
					c-0.041-0.129-0.111-0.302-0.179-0.422c-0.34-0.574-1.018-0.926-1.755-0.691c-1.041,0.328-1.328,1.436-0.953,2.618
					c0.376,1.188,1.228,1.861,2.254,1.535c0.659-0.207,1.096-0.838,1.034-1.59c-0.006-0.156-0.041-0.32-0.097-0.49L377.071,331.728z
					"/>
				<path fill="#1B171B" d="M381.898,331.289c0.405,1.142,1.462,1.362,2.503,1.03c0.752-0.236,1.239-0.521,1.688-0.849l0.589,1.028
					c-0.48,0.412-1.189,0.828-2.113,1.119c-2.082,0.658-3.714-0.232-4.335-2.194c-0.563-1.781-0.012-3.797,2.042-4.447
					c2.086-0.659,3.313,0.838,3.759,2.247c0.097,0.305,0.146,0.551,0.164,0.703L381.898,331.289z M384.36,329.261
					c-0.176-0.598-0.748-1.491-1.829-1.148c-1.001,0.316-1.136,1.362-0.992,2.042L384.36,329.261z"/>
				<path fill="#1B171B" d="M388.198,322.028l1.622-0.513l2.963,9.357l-1.623,0.513L388.198,322.028z"/>
				<path fill="#1B171B" d="M393.662,320.542c0.026,1.327-0.126,2.854-0.354,3.826l-0.967,0.422
					c0.032-1.084-0.026-2.502-0.205-3.618L393.662,320.542z"/>
				<path fill="#1B171B" d="M401.517,323.771l-3.349,1.061l0.826,2.607l3.744-1.187l0.422,1.333l-5.364,1.699l-2.813-8.883
					l5.168-1.635l0.42,1.33l-3.546,1.122l0.727,2.294l3.346-1.061L401.517,323.771z"/>
				<path fill="#1B171B" d="M403.096,322.646c-0.234-0.738-0.457-1.348-0.658-1.893l1.411-0.448l0.384,0.935l0.039-0.012
					c0.132-0.592,0.638-1.421,1.704-1.758c1.122-0.354,2.511,0.006,3.153,2.033l1.206,3.812l-1.62,0.513l-1.148-3.627
					c-0.293-0.92-0.855-1.512-1.74-1.233c-0.645,0.205-0.946,0.812-0.963,1.354c-0.01,0.146,0.025,0.354,0.084,0.536l1.198,3.785
					l-1.623,0.513L403.096,322.646z"/>
				<path fill="#1B171B" d="M411.308,316.13l0.521,1.646l1.542-0.486l0.384,1.213l-1.542,0.486l0.897,2.836
					c0.251,0.791,0.586,1.119,1.206,0.923c0.29-0.091,0.445-0.155,0.612-0.267l0.414,1.219c-0.208,0.167-0.618,0.381-1.119,0.539
					c-0.606,0.193-1.157,0.152-1.563-0.085c-0.475-0.255-0.819-0.797-1.087-1.641l-0.955-3.018l-0.911,0.287l-0.384-1.213
					l0.911-0.287l-0.38-1.198L411.308,316.13z"/>
				<path fill="#1B171B" d="M416.828,320.229c0.406,1.143,1.462,1.362,2.504,1.031c0.75-0.237,1.239-0.521,1.688-0.85l0.586,1.028
					c-0.478,0.413-1.187,0.826-2.109,1.119c-2.083,0.659-3.715-0.231-4.336-2.194c-0.563-1.781-0.012-3.797,2.042-4.447
					c2.086-0.659,3.312,0.838,3.759,2.247c0.097,0.305,0.145,0.551,0.165,0.703L416.828,320.229z M419.291,318.202
					c-0.175-0.598-0.749-1.491-1.83-1.148c-1,0.316-1.135,1.362-0.991,2.042L419.291,318.202z"/>
				<path fill="#1B171B" d="M421.935,316.681c-0.232-0.738-0.455-1.348-0.657-1.893l1.41-0.448l0.384,0.935l0.04-0.012
					c0.132-0.592,0.639-1.421,1.705-1.758c1.118-0.354,2.511,0.006,3.151,2.033l1.207,3.812l-1.623,0.513l-1.146-3.627
					c-0.291-0.92-0.854-1.512-1.738-1.233c-0.645,0.205-0.946,0.812-0.966,1.354c-0.01,0.146,0.026,0.354,0.085,0.539l1.197,3.782
					l-1.62,0.513L421.935,316.681z"/>
				<path fill="#1B171B" d="M430.146,310.166l0.521,1.646l1.542-0.486l0.384,1.213l-1.542,0.486l0.897,2.836
					c0.251,0.791,0.586,1.119,1.204,0.923c0.292-0.091,0.445-0.155,0.612-0.267l0.415,1.219c-0.208,0.167-0.617,0.381-1.118,0.539
					c-0.606,0.193-1.157,0.152-1.564-0.085c-0.473-0.255-0.818-0.797-1.087-1.641l-0.955-3.018l-0.909,0.287l-0.384-1.213
					l0.91-0.287l-0.38-1.198L430.146,310.166z"/>
				<path fill="#1B171B" d="M435.667,314.264c0.407,1.143,1.462,1.362,2.504,1.031c0.75-0.237,1.24-0.521,1.688-0.85l0.586,1.028
					c-0.479,0.413-1.188,0.826-2.112,1.119c-2.081,0.659-3.712-0.231-4.334-2.194c-0.564-1.781-0.014-3.797,2.043-4.447
					c2.083-0.659,3.311,0.838,3.756,2.247c0.097,0.305,0.146,0.551,0.166,0.703L435.667,314.264z M438.13,312.237
					c-0.176-0.598-0.749-1.491-1.83-1.148c-1,0.316-1.134,1.362-0.991,2.042L438.13,312.237z"/>
			</g>
		</g>
		<path clip-path="url(#SVGID_2_)" fill="#6B6969" d="M69.468,565.179c-3.548,0-6.728-2.484-7.479-6.091L32.89,419.336
			c-0.833-4.002,1.62-7.949,5.577-8.969l41.641-10.23l-42.621-3.992c-4.201-0.41-7.276-4.154-6.863-8.358
			c0.41-4.201,4.157-7.269,8.358-6.861l83.747,8.212c3.691,0.36,6.59,3.322,6.876,7.017c0.289,3.7-2.123,7.071-5.714,8.001
			l-74.542,19.203l27.613,132.613c0.861,4.137-1.793,8.186-5.928,9.047C70.509,565.124,69.985,565.179,69.468,565.179z"/>
		<path clip-path="url(#SVGID_2_)" fill="#9B9C9E" d="M36.58,392.937c-0.072,0-0.145,0-0.22-0.003l-57.321-1.611
			c-4.225-0.117-7.548-3.633-7.431-7.857c0.12-4.222,3.634-7.544,7.86-7.43l57.321,1.611c4.222,0.123,7.548,3.642,7.431,7.863
			C44.103,389.656,40.703,392.937,36.58,392.937z"/>
		<path clip-path="url(#SVGID_2_)" fill="#6B6969" d="M-14.992,435.22c-3.639,0-6.864-2.613-7.521-6.319
			c-0.735-4.156,2.041-8.127,6.199-8.861l48.496-8.582c-6.766-84.66-3.144-142.07,11.326-180.281
			c13.633-36.011,35.009-50.056,55.676-63.638c2.386-1.563,4.854-3.187,7.257-4.813c3.501-2.367,8.251-1.443,10.618,2.055
			c2.364,3.503,1.443,8.258-2.055,10.619c-2.484,1.679-4.994,3.325-7.421,4.922c-38.834,25.518-75.513,49.623-59.589,236.807
			c0.334,3.943-2.394,7.49-6.289,8.176L-13.65,435.1C-14.102,435.176-14.55,435.22-14.992,435.22z"/>
		<polygon clip-path="url(#SVGID_2_)" fill="#BFC0C1" points="404.754,481.88 389.393,384.582 398.025,383.216 413.385,480.524 		
			"/>
		<polygon clip-path="url(#SVGID_2_)" fill="#BFC0C1" points="201.565,523.42 171.813,394.25 180.28,391.859 210.032,518.121 		"/>
		<g clip-path="url(#SVGID_2_)">
			<path fill="#1B171B" d="M85.602,455.189v7.392c0,2.484,1.034,3.633,2.595,3.633c1.674,0,2.672-1.148,2.672-3.633v-7.392h2.314
				v7.242c0,3.914-2.013,5.646-5.061,5.646c-2.936,0-4.835-1.638-4.835-5.628v-7.26H85.602z"/>
			<path fill="#1B171B" d="M95.736,461.435c0-1.055-0.038-1.939-0.076-2.728h2.014l0.113,1.371h0.056
				c0.415-0.715,1.41-1.579,2.936-1.579c1.6,0,3.255,1.034,3.255,3.932v5.438h-2.314v-5.174c0-1.318-0.489-2.314-1.749-2.314
				c-0.923,0-1.563,0.659-1.806,1.354c-0.077,0.19-0.114,0.472-0.114,0.735v5.399h-2.313V461.435z"/>
			<path fill="#1B171B" d="M108.957,456.147c0,0.677-0.508,1.242-1.317,1.242c-0.771,0-1.279-0.565-1.279-1.242
				c0-0.715,0.526-1.26,1.298-1.26C108.448,454.887,108.938,455.432,108.957,456.147z M106.493,467.869v-9.161h2.313v9.161H106.493z
				"/>
			<path fill="#1B171B" d="M112.774,458.708l1.485,4.646c0.264,0.809,0.451,1.541,0.621,2.294h0.058
				c0.168-0.753,0.375-1.468,0.619-2.294l1.468-4.646h2.427l-3.5,9.161h-2.276l-3.406-9.161H112.774z"/>
			<path fill="#1B171B" d="M122.251,463.937c0.057,1.655,1.336,2.37,2.823,2.37c1.072,0,1.824-0.17,2.54-0.413l0.338,1.579
				c-0.791,0.34-1.882,0.583-3.199,0.583c-2.972,0-4.721-1.825-4.721-4.629c0-2.54,1.542-4.928,4.477-4.928
				c2.974,0,3.952,2.446,3.952,4.459c0,0.434-0.038,0.771-0.076,0.979H122.251z M126.278,462.32
				c0.019-0.847-0.358-2.241-1.901-2.241c-1.43,0-2.032,1.298-2.125,2.241H126.278z"/>
			<path fill="#1B171B" d="M130.318,461.661c0-1.242-0.019-2.145-0.076-2.953h1.995l0.094,1.729h0.057
				c0.451-1.277,1.523-1.937,2.521-1.937c0.226,0,0.357,0.018,0.545,0.056v2.165c-0.207-0.038-0.415-0.059-0.696-0.059
				c-1.091,0-1.863,0.697-2.07,1.752c-0.038,0.205-0.057,0.451-0.057,0.694v4.761h-2.313V461.661z"/>
			<path fill="#1B171B" d="M136.918,465.724c0.508,0.319,1.506,0.677,2.333,0.677c1.017,0,1.468-0.434,1.468-1.034
				c0-0.621-0.376-0.923-1.506-1.336c-1.787-0.604-2.521-1.582-2.521-2.672c0-1.617,1.336-2.859,3.463-2.859
				c1.015,0,1.9,0.243,2.445,0.545l-0.471,1.617c-0.376-0.226-1.127-0.524-1.938-0.524c-0.828,0-1.279,0.413-1.279,0.979
				c0,0.583,0.432,0.847,1.6,1.277c1.674,0.583,2.426,1.43,2.445,2.786c0,1.673-1.298,2.877-3.725,2.877
				c-1.11,0-2.106-0.264-2.785-0.639L136.918,465.724z"/>
			<path fill="#1B171B" d="M147.319,456.147c0,0.677-0.508,1.242-1.317,1.242c-0.771,0-1.279-0.565-1.279-1.242
				c0-0.715,0.526-1.26,1.298-1.26C146.811,454.887,147.3,455.432,147.319,456.147z M144.855,467.869v-9.161h2.313v9.161H144.855z"
				/>
			<path fill="#1B171B" d="M152.321,456.355v2.353h2.2v1.729h-2.2v4.046c0,1.128,0.3,1.693,1.185,1.693
				c0.413,0,0.64-0.018,0.902-0.094l0.038,1.749c-0.338,0.132-0.959,0.246-1.674,0.246c-0.866,0-1.561-0.284-1.995-0.753
				c-0.507-0.527-0.732-1.374-0.732-2.578v-4.31h-1.3v-1.729h1.3v-1.714L152.321,456.355z"/>
			<path fill="#1B171B" d="M157.792,463.937c0.057,1.655,1.336,2.37,2.823,2.37c1.072,0,1.825-0.17,2.54-0.413l0.338,1.579
				c-0.791,0.34-1.882,0.583-3.199,0.583c-2.972,0-4.721-1.825-4.721-4.629c0-2.54,1.542-4.928,4.477-4.928
				c2.974,0,3.952,2.446,3.952,4.459c0,0.434-0.039,0.771-0.076,0.979H157.792z M161.819,462.32
				c0.018-0.847-0.357-2.241-1.901-2.241c-1.43,0-2.032,1.298-2.125,2.241H161.819z M162.853,454.738l-2.295,2.783h-1.6l1.638-2.783
				H162.853z"/>
			<path fill="#1B171B" d="M103.399,477.756h2.314v10.742h5.211v1.937h-7.525V477.756z"/>
			<path fill="#1B171B" d="M119.688,488.235c0,0.826,0.037,1.635,0.149,2.2h-2.087l-0.17-1.017h-0.056
				c-0.547,0.715-1.506,1.225-2.71,1.225c-1.844,0-2.878-1.336-2.878-2.73c0-2.294,2.051-3.48,5.437-3.46V484.3
				c0-0.601-0.244-1.597-1.863-1.597c-0.902,0-1.842,0.281-2.464,0.677l-0.451-1.506c0.677-0.413,1.862-0.809,3.31-0.809
				c2.936,0,3.782,1.863,3.782,3.876V488.235z M117.429,485.958c-1.636-0.021-3.197,0.319-3.197,1.711
				c0,0.902,0.583,1.318,1.316,1.318c0.94,0,1.6-0.604,1.825-1.263c0.056-0.17,0.056-0.337,0.056-0.507V485.958z"/>
			<path fill="#1B171B" d="M123.408,481.274l1.485,4.646c0.264,0.809,0.451,1.541,0.621,2.294h0.057
				c0.168-0.753,0.375-1.468,0.62-2.294l1.468-4.646h2.427l-3.5,9.161h-2.276l-3.406-9.161H123.408z"/>
			<path fill="#1B171B" d="M138.493,488.235c0,0.826,0.037,1.635,0.149,2.2h-2.087l-0.17-1.017h-0.056
				c-0.546,0.715-1.506,1.225-2.71,1.225c-1.844,0-2.878-1.336-2.878-2.73c0-2.294,2.051-3.48,5.438-3.46V484.3
				c0-0.601-0.245-1.597-1.863-1.597c-0.902,0-1.843,0.281-2.464,0.677l-0.451-1.506c0.677-0.413,1.862-0.809,3.311-0.809
				c2.936,0,3.782,1.863,3.782,3.876V488.235z M136.234,485.958c-1.636-0.021-3.198,0.319-3.198,1.711
				c0,0.902,0.583,1.318,1.317,1.318c0.94,0,1.6-0.604,1.825-1.263c0.056-0.17,0.056-0.337,0.056-0.507V485.958z"/>
			<path fill="#1B171B" d="M140.934,477.077h2.313v13.358h-2.313V477.077z"/>
		</g>
		<path clip-path="url(#SVGID_2_)" fill="#6B6969" d="M-36.631,573.731c-4.039,0-7.415-3.164-7.629-7.239
			c-0.226-4.219,3.013-7.819,7.232-8.042l214.449-12.103c1.685-11.114,7.388-32.161,26.636-40.918
			c4.176-1.901,55.124-7.509,198.927-28.739c129.479-19.116,206.942-35.44,221.446-40.784c3.96-1.459,8.357,0.571,9.816,4.535
			c1.458,3.961-0.569,8.358-4.536,9.817c-14.81,5.452-49.768,15.765-224.496,41.563c-88.756,13.104-186.85,25.5-195.183,27.694
			c-17.065,8.118-18.019,34.065-18.025,34.323c-0.116,3.981-3.265,7.228-7.241,7.436l-220.989,12.445
			C-36.358,573.725-36.496,573.731-36.631,573.731z"/>
		<path clip-path="url(#SVGID_2_)" fill="#6B6969" d="M177.677,561.672c-3.924,0-11.309-3.645-11.653-7.629
			c-0.368-4.207,27.676-7.67,31.883-8.036l417.893-35.138c4.21-0.36,7.916,2.751,8.282,6.958s-2.748,7.913-6.956,8.279
			L182.48,561.403C182.256,561.423,177.898,561.672,177.677,561.672z"/>
		<path clip-path="url(#SVGID_2_)" fill="#04632E" d="M322.428,370.071l4.09,14.414l-7.33,2.279L313.012,365l71.494-25.819
			c0.853-0.289,79.658-27.189,123.13-38.812c0,0,12.633-5.927,15.139-15.626l3.879,8.164c-6.385,10.058-12.07,13.567-17.279,15.267
			c-43.259,11.575-121.648,38.331-122.433,38.599"/>
		<path clip-path="url(#SVGID_2_)" fill="#BFC0C1" d="M537.599,360.198c-0.682-14.654-11.502-50.935-20.197-80.09
			c-6.387-21.413-11.901-39.899-12.817-47.481l7.966-0.96c0.832,6.901,6.521,25.965,12.541,46.146
			c9.279,31.113,19.795,66.375,20.523,82.014L537.599,360.198z"/>
		<g clip-path="url(#SVGID_2_)">
			<path fill="#1B171B" d="M535.03,314.964l2.645,0.797l0.003,1.755l-9.324-2.965l-0.006-2.171l9.311-3.05l0.005,1.84l-2.639,0.85
				L535.03,314.964z M533.74,312.298l-2.294,0.738c-0.567,0.182-1.201,0.337-1.74,0.475v0.026c0.539,0.138,1.189,0.287,1.743,0.439
				l2.297,0.715L533.74,312.298z"/>
			<path fill="#1B171B" d="M530.922,307.406l3.411-1.099c0.595-0.196,1.134-0.337,1.687-0.463v-0.041
				c-0.554-0.123-1.08-0.275-1.688-0.451l-3.418-1.072l-0.004-1.784l6.738,2.558l0.004,1.673l-6.727,2.517L530.922,307.406z"/>
			<path fill="#1B171B" d="M534.749,300.421c1.216-0.044,1.739-0.984,1.737-2.077c-0.003-0.787-0.127-1.338-0.309-1.865l1.16-0.252
				c0.25,0.58,0.432,1.382,0.434,2.349c0.006,2.186-1.332,3.475-3.392,3.48c-1.866,0.003-3.625-1.128-3.631-3.284
				c-0.005-2.186,1.791-2.906,3.271-2.908c0.318,0,0.567,0.023,0.72,0.053L534.749,300.421z M533.553,297.465
				c-0.623-0.012-1.644,0.267-1.641,1.4c0.001,1.049,0.956,1.491,1.647,1.559L533.553,297.465z"/>
			<path fill="#1B171B" d="M532.896,294.493c-0.773,0-1.424,0.029-2.004,0.055l-0.005-1.477l1.01-0.088v-0.041
				c-0.526-0.301-1.165-1.033-1.166-2.152c-0.003-1.176,0.754-2.391,2.884-2.396l3.995-0.01l0.004,1.699l-3.801,0.01
				c-0.969,0.002-1.701,0.363-1.698,1.289c0.002,0.676,0.485,1.145,0.998,1.326c0.139,0.053,0.346,0.08,0.539,0.08l3.968-0.01
				l0.005,1.703L532.896,294.493z"/>
			<path fill="#1B171B" d="M535.572,280.542c0.802-0.004,1.467-0.033,2.019-0.063l0.005,1.48l-1.01,0.088v0.041
				c0.471,0.287,1.163,0.949,1.166,2.168c0.003,1.215-0.727,2.334-2.925,2.34l-3.954,0.01l-0.004-1.699l3.663-0.01
				c1.119-0.002,1.839-0.363,1.836-1.262c-0.002-0.691-0.474-1.135-0.916-1.295c-0.138-0.07-0.331-0.098-0.524-0.098l-4.064,0.01
				l-0.005-1.703L535.572,280.542z"/>
			<path fill="#1B171B" d="M534.695,277.491c1.216-0.043,1.74-0.984,1.737-2.076c-0.002-0.789-0.128-1.342-0.31-1.867l1.162-0.252
				c0.25,0.58,0.431,1.383,0.432,2.35c0.006,2.186-1.331,3.475-3.391,3.48c-1.866,0.004-3.626-1.127-3.63-3.283
				c-0.006-2.186,1.79-2.906,3.27-2.91c0.317,0,0.566,0.023,0.719,0.053L534.695,277.491z M533.5,274.536
				c-0.623-0.01-1.646,0.266-1.643,1.4c0.003,1.049,0.957,1.49,1.648,1.559L533.5,274.536z"/>
			<path fill="#1B171B" d="M550.428,332.879c0.316-0.539,0.592-1.383,0.589-2.256c-0.002-1.078-0.515-1.682-1.274-1.682
				c-0.705,0.003-1.119,0.472-1.546,1.649c-0.549,1.55-1.362,2.534-2.704,2.536c-1.533,0.004-2.685-1.268-2.689-3.298
				c-0.003-1.011,0.217-1.743,0.465-2.229l1.371,0.398c-0.179,0.349-0.439,0.999-0.438,1.869c0.003,1.078,0.57,1.532,1.124,1.532
				c0.719-0.003,1.049-0.542,1.53-1.787c0.604-1.62,1.418-2.396,2.759-2.399c1.507-0.003,2.81,1.128,2.815,3.519
				c0.001,0.996-0.272,2.019-0.589,2.534L550.428,332.879z"/>
			<path fill="#1B171B" d="M543.799,323.862l1.729-0.003l-0.004-1.617l1.271-0.003l0.004,1.617l2.973-0.009
				c0.829,0,1.243-0.223,1.242-0.873c0-0.305-0.017-0.469-0.072-0.665l1.286-0.029c0.097,0.249,0.182,0.706,0.184,1.23
				c0.001,0.636-0.205,1.148-0.551,1.468c-0.386,0.375-1.008,0.539-1.893,0.542l-3.166,0.009l0.003,0.955l-1.271,0.003l-0.003-0.955
				l-1.258,0.003L543.799,323.862z"/>
			<path fill="#1B171B" d="M547.974,317.958l1.175-0.003l0.009,3.524l-1.175,0.003L547.974,317.958z"/>
			<path fill="#1B171B" d="M550.39,316.582c0.316-0.539,0.592-1.383,0.589-2.256c-0.002-1.078-0.515-1.682-1.274-1.682
				c-0.705,0.003-1.119,0.472-1.546,1.649c-0.549,1.55-1.362,2.534-2.704,2.537c-1.533,0.003-2.685-1.266-2.689-3.299
				c-0.003-1.011,0.217-1.743,0.465-2.229l1.371,0.398c-0.179,0.349-0.439,0.999-0.438,1.869c0.003,1.078,0.57,1.532,1.124,1.532
				c0.719-0.003,1.049-0.542,1.53-1.787c0.604-1.62,1.418-2.396,2.759-2.399c1.507-0.003,2.81,1.128,2.813,3.519
				c0.003,0.996-0.271,2.019-0.587,2.534L550.39,316.582z"/>
			<path fill="#1B171B" d="M550.596,304.133c0.608-0.003,1.203-0.032,1.617-0.117l0.003,1.535l-0.747,0.126l0.002,0.044
				c0.525,0.396,0.9,1.102,0.903,1.986c0.003,1.354-0.977,2.118-2.001,2.121c-1.686,0.003-2.561-1.5-2.552-3.99h-0.111
				c-0.442,0-1.175,0.185-1.172,1.371c0.002,0.665,0.211,1.356,0.503,1.811l-1.106,0.334c-0.305-0.495-0.598-1.365-0.601-2.432
				c-0.004-2.156,1.362-2.78,2.842-2.783L550.596,304.133z M548.928,305.794c-0.012,1.204,0.238,2.35,1.263,2.347
				c0.663-0.003,0.967-0.431,0.965-0.97c-0.001-0.691-0.445-1.175-0.929-1.339c-0.124-0.041-0.249-0.041-0.373-0.041
				L548.928,305.794z"/>
			<path fill="#1B171B" d="M551.989,297.375c0.168,0.359,0.349,1.065,0.35,1.906c0.006,2.104-1.346,3.475-3.434,3.48
				c-2.017,0.006-3.583-1.374-3.589-3.738c-0.001-0.621,0.137-1.257,0.301-1.643l1.286,0.298c-0.138,0.278-0.261,0.68-0.26,1.286
				c0.003,1.301,0.958,2.071,2.188,2.054c1.383-0.003,2.17-0.902,2.167-2.065c-0.002-0.58-0.128-1.008-0.266-1.342L551.989,297.375z
				"/>
			<path fill="#1B171B" d="M547.633,296.124c-0.913,0.004-1.576,0.016-2.171,0.059l-0.003-1.465l1.271-0.07v-0.043
				c-0.942-0.332-1.427-1.117-1.429-1.85c0-0.164,0.014-0.26,0.04-0.4l1.591-0.006c-0.028,0.154-0.041,0.307-0.041,0.516
				c0.001,0.803,0.516,1.365,1.289,1.514c0.152,0.027,0.332,0.041,0.511,0.041l3.498-0.008l0.005,1.701L547.633,296.124z"/>
			<path fill="#1B171B" d="M549.292,290.116c1.216-0.045,1.739-0.988,1.736-2.08c-0.002-0.789-0.128-1.342-0.31-1.867l1.162-0.248
				c0.25,0.576,0.431,1.379,0.434,2.346c0.004,2.186-1.333,3.475-3.393,3.48c-1.866,0.004-3.626-1.125-3.63-3.281
				c-0.006-2.186,1.79-2.908,3.27-2.912c0.317,0,0.566,0.027,0.719,0.057L549.292,290.116z M548.096,287.159
				c-0.623-0.012-1.646,0.268-1.643,1.4c0.003,1.049,0.958,1.488,1.649,1.559L548.096,287.159z"/>
			<path fill="#1B171B" d="M547.438,284.182c-0.773,0.004-1.424,0.029-2.004,0.059l-0.003-1.449l0.995-0.086v-0.043
				c-0.526-0.316-1.15-0.924-1.153-2.068c-0.001-0.885,0.495-1.58,1.239-1.869v-0.029c-0.372-0.234-0.648-0.51-0.844-0.814
				c-0.264-0.385-0.402-0.814-0.404-1.381c-0.003-1.107,0.755-2.24,2.911-2.246l3.968-0.01l0.005,1.658l-3.72,0.01
				c-1.119,0.002-1.781,0.393-1.779,1.207c0.001,0.58,0.416,1.008,0.9,1.186c0.152,0.057,0.374,0.082,0.567,0.082l4.037-0.012
				l0.004,1.662l-3.897,0.008c-0.94,0.004-1.604,0.379-1.603,1.166c0.001,0.637,0.501,1.061,0.956,1.229
				c0.181,0.055,0.374,0.082,0.567,0.078l3.981-0.008l0.004,1.66L547.438,284.182z"/>
			<path fill="#1B171B" d="M549.247,271.243c1.216-0.045,1.74-0.988,1.737-2.08c-0.002-0.789-0.128-1.342-0.31-1.867l1.162-0.248
				c0.25,0.576,0.431,1.379,0.434,2.346c0.004,2.186-1.333,3.475-3.393,3.48c-1.866,0.004-3.626-1.125-3.63-3.281
				c-0.006-2.186,1.79-2.908,3.27-2.911c0.317,0,0.566,0.026,0.719,0.056L549.247,271.243z M548.052,268.286
				c-0.623-0.012-1.646,0.268-1.643,1.4c0.003,1.049,0.957,1.488,1.648,1.559L548.052,268.286z"/>
			<path fill="#1B171B" d="M547.394,265.31c-0.773,0.003-1.424,0.029-2.004,0.059l-0.003-1.477l1.01-0.088v-0.041
				c-0.527-0.305-1.165-1.034-1.168-2.153c-0.003-1.175,0.755-2.394,2.885-2.399l3.994-0.009l0.005,1.699l-3.802,0.009
				c-0.968,0.003-1.699,0.366-1.697,1.292c0.001,0.677,0.486,1.146,0.997,1.324c0.14,0.056,0.346,0.082,0.539,0.079l3.969-0.009
				l0.004,1.702L547.394,265.31z"/>
			<path fill="#1B171B" d="M543.638,255.519l1.729-0.003l-0.003-1.617l1.271-0.003l0.003,1.617l2.973-0.009
				c0.829,0,1.245-0.223,1.243-0.873c-0.001-0.305-0.016-0.469-0.071-0.665l1.286-0.029c0.097,0.249,0.182,0.706,0.183,1.23
				c0.002,0.636-0.205,1.148-0.551,1.468c-0.385,0.375-1.008,0.539-1.893,0.542l-3.165,0.009l0.003,0.955l-1.271,0.003l-0.003-0.955
				l-1.259,0.003L543.638,255.519z"/>
		</g>
		<path clip-path="url(#SVGID_2_)" fill="#6B6969" d="M587.455,243.346c-20.813,0-126.884-1.928-157.39-3.683
			c-18.019-1.028-33.573-1.925-42.072-2.133c-48.327-1.169-177.135-41.891-212.929-55.763c-3.938-1.526-5.893-5.956-4.368-9.894
			c1.526-3.94,5.958-5.892,9.896-4.365c34.05,13.195,161.965,53.624,207.773,54.735c8.749,0.211,24.425,1.113,42.576,2.152
			c35.649,2.049,156.959,4.852,170.052,3.123c4.184-0.545,8.03,2.395,8.582,6.583c0.553,4.187-2.395,8.027-6.581,8.578
			C599.471,243.147,594.116,243.346,587.455,243.346z"/>
		<path clip-path="url(#SVGID_2_)" fill="#6B6969" d="M116.865,403.899c-3.708,0,2.591-2.203,2.005-5.979
			c-0.647-4.175,2.21-8.08,6.382-8.733c27.284-4.233,97.189-9.302,143.847-10.421c7.363-0.179,15.953-0.349,25.048-0.53
			c47.678-0.949,119.733-2.385,150.121-7.676c14.49-2.525,36.697-5.865,60.209-9.403c35.325-5.318,75.36-11.342,93.133-15.27
			c29.324-6.473,20.765-16.942,21.685-17.15c4.117-0.917,8.207,1.682,9.125,5.807c0.917,4.119-1.68,8.203-5.804,9.125
			c-0.918,0.203,7.626,10.68-21.708,17.156c-18.281,4.034-56.854,9.841-94.157,15.454c-23.42,3.521-45.543,6.855-59.857,9.346
			c-31.54,5.496-101.418,6.885-152.441,7.904c-9.079,0.179-17.652,0.352-24.984,0.524c-45.307,1.09-131.159,9.072-157.449,13.156
			C111.621,407.272,117.253,403.899,116.865,403.899z"/>
		<g clip-path="url(#SVGID_2_)">
			<g>
				<path fill="#1B171B" d="M293.332,241.205l0.699-2.171l-3.882-1.248l0.338-1.055l5.213-4.204l1.907,0.612l-1.658,5.162
					l1.104,0.352l-0.393,1.225l-1.104-0.352l-0.699,2.168L293.332,241.205z M294.423,237.809l0.75-2.329
					c0.155-0.486,0.34-0.967,0.53-1.471l-0.053-0.018c-0.437,0.454-0.8,0.817-1.216,1.207l-2.335,1.834l-0.009,0.026
					L294.423,237.809z"/>
				<path fill="#1B171B" d="M300.396,243.475l0.698-2.171l-3.882-1.248l0.339-1.052l5.211-4.207l1.909,0.612l-1.657,5.159
					l1.104,0.357l-0.393,1.225l-1.104-0.357l-0.699,2.171L300.396,243.475z M301.486,240.08l0.75-2.329
					c0.156-0.486,0.338-0.967,0.531-1.471l-0.053-0.018c-0.439,0.454-0.803,0.817-1.217,1.207l-2.334,1.834l-0.01,0.026
					L301.486,240.08z"/>
				<path fill="#1B171B" d="M311.324,242.198c-0.887,2.763-2.521,4.14-4.572,3.48c-1.961-0.633-2.441-2.76-1.617-5.37
					c0.857-2.672,2.561-4.084,4.564-3.442C311.761,237.531,312.133,239.684,311.324,242.198z M306.773,240.821
					c-0.672,2.092-0.457,3.352,0.428,3.639c0.958,0.308,1.819-0.697,2.48-2.748c0.639-1.986,0.555-3.305-0.421-3.621
					C308.405,237.815,307.459,238.688,306.773,240.821z"/>
			</g>
		</g>
	</g>
	<path fill="#006742" d="M572.718,576.004H0v-362.73h572.718V576.004z M7.598,568.408h557.521V220.87H7.598V568.408z"/>
</g>
<g>
	<path fill="#FFFFFF" d="M530.568,132.697c0-65.082-52.76-117.837-117.837-117.837c-65.078,0-117.835,52.755-117.835,117.837
		c0,65.076,52.757,117.833,117.835,117.833C477.809,250.53,530.568,197.773,530.568,132.697z"/>
	<g>
		<defs>
			<path id="SVGID_3_" d="M505.345,37.665c52.482,51.152,53.564,135.162,2.412,187.645c-51.144,52.484-135.15,53.564-187.634,2.416
				c-52.485-51.146-53.568-135.158-2.42-187.641C368.848-12.403,452.857-13.484,505.345,37.665z M332.273,54.288
				c-43.298,44.438-42.382,115.56,2.055,158.859c44.434,43.307,115.557,42.39,158.856-2.047
				c43.305-44.434,42.39-115.557-2.047-158.857C446.703,8.936,375.58,9.85,332.273,54.288z"/>
		</defs>
		<clipPath id="SVGID_4_">
			<use xlink:href="#SVGID_3_"  overflow="visible"/>
		</clipPath>
		<path clip-path="url(#SVGID_4_)" fill="#182C80" d="M465.441,83.006c-27.44-29.108-73.285-30.468-102.396-3.023
			c-29.112,27.445-30.466,73.291-3.025,102.397c27.442,29.112,73.286,30.466,102.398,3.023
			C491.528,157.961,492.878,112.116,465.441,83.006z"/>
		
			<linearGradient id="SVGID_5_" gradientUnits="userSpaceOnUse" x1="634.748" y1="-351.2158" x2="900.1338" y2="-351.2158" gradientTransform="matrix(0.7277 -0.6859 0.6859 0.7277 95.1634 914.6627)">
			<stop  offset="0" style="stop-color:#80B41C"/>
			<stop  offset="0.9879" style="stop-color:#025D39"/>
		</linearGradient>
		<path clip-path="url(#SVGID_4_)" fill="url(#SVGID_5_)" d="M509.286,41.675c50.273,53.329,47.791,137.307-5.537,187.577
			c-53.328,50.264-137.305,47.787-187.573-5.537c-50.27-53.326-47.791-137.307,5.537-187.576
			C375.038-14.125,459.017-11.65,509.286,41.675z M348.375,64.427c-37.701,35.54-39.455,94.917-3.913,132.625
			c35.542,37.701,94.917,39.453,132.622,3.911c37.701-35.539,39.458-94.918,3.917-132.622
			C445.454,30.639,386.077,28.885,348.375,64.427z"/>
		<g clip-path="url(#SVGID_4_)">
			<path fill="#84B819" d="M484.15,34.077c-45.312-48.073-121.018-50.309-169.091-4.998
				c-48.071,45.314-50.303,121.023-4.991,169.096c45.318,48.072,121.019,50.305,169.088,4.988
				C527.229,157.85,529.469,82.149,484.15,34.077z"/>
			
				<linearGradient id="SVGID_6_" gradientUnits="userSpaceOnUse" x1="646.8223" y1="-328.4419" x2="888.0615" y2="-328.4419" gradientTransform="matrix(0.7277 -0.6859 0.6859 0.7277 95.1634 914.6627)">
				<stop  offset="0.0121" style="stop-color:#025D39"/>
				<stop  offset="1" style="stop-color:#80B41C"/>
			</linearGradient>
			<path fill="url(#SVGID_6_)" d="M516.121,66.528c-45.69-48.475-122.031-50.725-170.504-5.033
				c-48.474,45.696-50.728,122.037-5.037,170.508c45.701,48.482,122.034,50.727,170.51,5.036
				C559.563,191.342,561.821,115.007,516.121,66.528z"/>
		</g>
	</g>
	<g>
		<defs>
			<path id="SVGID_7_" d="M514.683,132.697c0-56.308-45.646-101.948-101.951-101.948c-56.306,0-101.952,45.641-101.952,101.948
				c0,56.305,45.646,101.945,101.952,101.945C469.036,234.642,514.683,189.001,514.683,132.697z"/>
		</defs>
		<clipPath id="SVGID_8_">
			<use xlink:href="#SVGID_7_"  overflow="visible"/>
		</clipPath>
		<rect x="283.415" y="-16.176" clip-path="url(#SVGID_8_)" fill="#B3DBEB" width="355.357" height="212.569"/>
		<rect x="283.415" y="190.244" clip-path="url(#SVGID_8_)" fill="#E6E1DA" width="355.357" height="58.944"/>
		<rect x="283.415" y="190.244" clip-path="url(#SVGID_8_)" fill="#FFFFFF" width="355.357" height="10.89"/>
		<polygon clip-path="url(#SVGID_8_)" fill="#96BE0E" points="376.854,190.244 283.415,190.244 283.415,249.188 370.051,249.188 
			384.245,197.383 376.78,195.01 		"/>
		<path clip-path="url(#SVGID_8_)" fill="none" d="M566.914,132.697c0-64.338-52.156-116.495-116.493-116.495
			c-64.339,0-116.494,52.157-116.494,116.495c0,64.335,52.155,116.491,116.494,116.491
			C514.758,249.188,566.914,197.032,566.914,132.697z"/>
		<polygon clip-path="url(#SVGID_8_)" fill="#96BE0E" points="469.092,198.731 380.745,198.731 380.745,212.022 464.537,212.022 		
			"/>
		<rect x="539.002" y="198.731" clip-path="url(#SVGID_8_)" fill="#96BE0E" width="94.179" height="13.291"/>
		<g clip-path="url(#SVGID_8_)">
			<polygon fill="#ADA895" points="567.205,129.562 555.079,129.562 554.416,129.562 552.5,129.562 552.5,119.185 544.203,113.027 
				535.903,119.185 535.903,129.562 436.434,129.562 436.434,119.185 428.136,113.027 419.836,119.185 419.836,129.562 
				417.918,129.562 417.256,129.562 405.132,129.562 376.854,129.562 376.854,190.853 405.132,190.853 421.545,190.853 
				421.545,193.375 434.491,193.375 434.491,190.853 465.591,190.853 465.591,199.217 510.783,199.217 510.783,190.853 
				537.845,190.853 537.845,193.375 550.791,193.375 550.791,190.853 567.205,190.853 595.48,190.853 595.48,129.562 			"/>
			<polygon fill="#2F6827" points="548.532,86.727 527.04,86.727 445.3,86.727 423.809,86.727 367.395,127.054 402.713,127.054 
				417.729,127.054 417.729,117.776 428.138,110.124 438.546,117.776 438.546,127.054 533.794,127.054 533.794,117.776 
				544.203,110.124 554.606,117.776 554.606,127.054 569.624,127.054 604.943,127.054 			"/>
			<rect x="565.279" y="140.834" fill="#E7F5FB" width="11.028" height="39.199"/>
			<rect x="540.752" y="122.759" fill="#E7F5FB" width="6.896" height="66.963"/>
			<polygon fill="#FFFFFF" points="414.241,117.067 413.14,115.579 428.245,104.39 443.129,115.435 442.03,116.926 428.245,106.696 
							"/>
			<polygon fill="#FFFFFF" points="530.31,117.067 529.206,115.579 544.312,104.39 559.196,115.435 558.096,116.926 
				544.312,106.696 			"/>
			<g>
				<g>
					<polygon fill="#FFFFFF" points="462.781,103.895 455.343,111.439 455.343,122.425 470.217,122.425 470.217,111.439 					"/>
					<polygon fill="#FFFFFF" points="453.795,109.224 452.732,108.158 462.853,98.034 472.83,108.008 471.762,109.069 
						462.853,100.161 					"/>
					<rect x="458.634" y="114.955" fill="#1B171B" width="8.293" height="5.64"/>
					<rect x="458.634" y="111.585" fill="#1B171B" width="8.293" height="1.576"/>
				</g>
				<g>
					<polygon fill="#FFFFFF" points="486.211,103.895 478.774,111.439 478.774,122.425 493.647,122.425 493.647,111.439 					"/>
					<polygon fill="#FFFFFF" points="477.228,109.224 476.164,108.158 486.286,98.034 496.258,108.008 495.194,109.069 
						486.286,100.161 					"/>
					<rect x="482.068" y="114.955" fill="#1B171B" width="8.29" height="5.64"/>
					<rect x="482.068" y="111.585" fill="#1B171B" width="8.29" height="1.576"/>
				</g>
				<g>
					<polygon fill="#FFFFFF" points="509.643,103.895 502.204,111.439 502.204,122.425 517.081,122.425 517.081,111.439 					"/>
					<polygon fill="#FFFFFF" points="500.66,109.224 499.595,108.158 509.717,98.034 519.691,108.008 518.626,109.069 
						509.717,100.161 					"/>
					<rect x="505.495" y="114.955" fill="#1B171B" width="8.291" height="5.64"/>
					<rect x="505.495" y="111.585" fill="#1B171B" width="8.291" height="1.576"/>
				</g>
			</g>
			<polygon fill="#1B171B" points="425.594,76.204 427.346,83.819 423.836,83.819 			"/>
			<polygon fill="#1B171B" points="546.696,76.204 548.453,83.819 544.94,83.819 			"/>
			<rect x="396.028" y="140.834" fill="#E7F5FB" width="11.031" height="39.199"/>
			<rect x="424.688" y="122.759" fill="#E7F5FB" width="6.895" height="66.963"/>
			<g>
				<polygon fill="#1B171B" points="553.018,193.332 553.018,196.024 535.861,196.024 535.861,193.332 514.23,193.332 
					514.23,168.224 506.546,168.224 506.546,193.332 467.2,193.332 467.2,168.224 458.193,168.224 458.193,193.332 436.478,193.332 
					436.478,196.024 419.321,196.024 419.321,193.332 369.284,193.332 369.284,199.402 413.285,199.402 413.285,202.096 
					442.795,202.096 442.795,199.402 459.11,199.402 465.148,199.402 465.148,199.411 469.13,199.411 503.292,199.411 
					507.273,199.411 507.273,199.402 513.229,199.402 529.539,199.402 529.539,202.096 559.051,202.096 559.051,199.402 
					603.051,199.402 603.051,193.332 				"/>
				<path fill="#1B171B" d="M517.901,159.295h-3.671v-15.246v-5.59h-6.749h-42.54h-6.748v5.59v15.246h-3.672v3.457h63.38V159.295z
					 M467.2,147.004h39.346v12.291H467.2V147.004z"/>
			</g>
			<polygon fill="#1B171B" points="500.962,202.049 470.709,202.049 464.877,202.049 464.877,205.624 470.709,205.624 
				500.962,205.624 506.793,205.624 506.793,202.049 			"/>
			<polygon fill="#1B171B" points="500.962,208.454 470.709,208.454 461.913,208.454 461.913,212.022 470.709,212.022 
				500.962,212.022 509.761,212.022 509.761,208.454 			"/>
			<rect x="473.382" y="165.573" fill="#1B171B" width="25.661" height="30.082"/>
			<rect x="473.382" y="149.922" fill="#1B171B" width="25.661" height="6.064"/>
			<g>
				<rect x="477.396" y="170.002" fill="#D0EBF8" width="7.716" height="9.27"/>
				<rect x="487.314" y="170.002" fill="#D0EBF8" width="7.713" height="9.27"/>
				<rect x="477.396" y="181.534" fill="#D0EBF8" width="7.716" height="12.425"/>
				<rect x="487.314" y="181.534" fill="#D0EBF8" width="7.713" height="12.425"/>
			</g>
			<rect x="384.853" y="149.612" fill="#ADA895" width="28.287" height="1.986"/>
			<rect x="555.562" y="149.612" fill="#777879" width="26.426" height="1.986"/>
			<polygon fill="#1B171B" points="459.653,206.811 452.752,206.811 458.702,195.655 465.605,195.655 			"/>
			<polygon fill="#1B171B" points="512.395,206.811 519.297,206.811 513.347,195.655 506.441,195.655 			"/>
			<rect x="454.224" y="208.586" fill="#1B171B" width="3.298" height="3.299"/>
			<rect x="514.368" y="208.586" fill="#1B171B" width="3.302" height="3.299"/>
		</g>
		<path clip-path="url(#SVGID_8_)" fill="#96BE0E" d="M370.051,249.188c8.807-19.646,18.071-37.166,57.787-37.166
			s-8.743-5.408-8.743-5.408l-38.35-1.236L370.051,249.188z"/>
		<path clip-path="url(#SVGID_8_)" fill="#FFFFFF" d="M361.561,90.372c-0.084,0-0.162,0.012-0.248,0.016
			c0.16-0.713,0.248-1.451,0.248-2.209c0-5.648-4.582-10.23-10.236-10.23c-4.703,0-8.655,3.176-9.854,7.5
			c-1.037-0.367-2.145-0.578-3.307-0.578c-5.482,0-9.928,4.447-9.928,9.932c0,0.01,0.002,0.018,0.002,0.029
			c-0.105-0.002-0.201-0.029-0.306-0.029c-3.345,0-6.052,2.711-6.052,6.051c0,3.339,2.707,6.052,6.052,6.052
			c1.503,0,2.865-0.571,3.923-1.482c1.416,1.951,3.712,3.229,6.309,3.229c1.629,0,3.139-0.501,4.389-1.356
			c1.893,1.459,4.253,2.332,6.82,2.332c3.457,0,6.545-1.564,8.599-4.02c1.081,0.539,2.298,0.85,3.589,0.85
			c4.439,0,8.042-3.598,8.042-8.041C369.603,93.975,366,90.372,361.561,90.372z"/>
		<path clip-path="url(#SVGID_8_)" fill="#FFFFFF" d="M486.201,44.514c-0.075,0-0.146,0.009-0.223,0.012
			c0.142-0.636,0.223-1.292,0.223-1.969c0-5.048-4.095-9.141-9.144-9.141c-4.198,0-7.731,2.84-8.801,6.697
			c-0.925-0.325-1.912-0.51-2.95-0.51c-4.897,0-8.868,3.973-8.868,8.868c0,0.009,0.002,0.018,0.002,0.026
			c-0.093-0.006-0.178-0.026-0.272-0.026c-2.982,0-5.404,2.417-5.404,5.399c0,2.985,2.422,5.405,5.404,5.405
			c1.345,0,2.559-0.51,3.505-1.324c1.266,1.743,3.316,2.886,5.634,2.886c1.454,0,2.804-0.445,3.92-1.213
			c1.688,1.301,3.795,2.083,6.091,2.083c3.086,0,5.842-1.397,7.679-3.592c0.964,0.483,2.049,0.762,3.205,0.762
			c3.964,0,7.181-3.217,7.181-7.181C493.382,47.728,490.165,44.514,486.201,44.514z"/>
		<path clip-path="url(#SVGID_8_)" fill="#FFFFFF" d="M398.034,59.031c-0.065,0-0.127,0.009-0.191,0.009
			c0.121-0.557,0.191-1.137,0.191-1.734c0-4.436-3.599-8.033-8.035-8.033c-3.693,0-6.799,2.493-7.737,5.889
			c-0.811-0.29-1.682-0.451-2.595-0.451c-4.304,0-7.796,3.489-7.796,7.796c0,0.006,0,0.018,0,0.026
			c-0.079-0.006-0.155-0.026-0.238-0.026c-2.624,0-4.749,2.127-4.749,4.749c0,2.625,2.125,4.752,4.749,4.752
			c1.182,0,2.251-0.449,3.08-1.164c1.113,1.533,2.917,2.535,4.954,2.535c1.277,0,2.466-0.393,3.445-1.064
			c1.484,1.143,3.34,1.828,5.357,1.828c2.71,0,5.134-1.227,6.746-3.154c0.85,0.424,1.805,0.668,2.818,0.668
			c3.486,0,6.313-2.824,6.313-6.311C404.347,61.855,401.521,59.031,398.034,59.031z"/>
		<path clip-path="url(#SVGID_8_)" fill="#FFFFFF" d="M534.171,32.719c-0.102,0-0.202,0.016-0.301,0.018
			c0.192-0.875,0.301-1.783,0.301-2.715c0-6.965-5.646-12.613-12.609-12.613c-5.796,0-10.665,3.92-12.142,9.24
			c-1.276-0.451-2.643-0.709-4.071-0.709c-6.754,0-12.232,5.482-12.232,12.234c0,0.015,0.002,0.029,0.002,0.038
			c-0.129-0.003-0.248-0.038-0.375-0.038c-4.119,0-7.458,3.34-7.458,7.456s3.339,7.453,7.458,7.453c1.852,0,3.529-0.703,4.833-1.822
			c1.745,2.405,4.573,3.976,7.772,3.976c2.006,0,3.869-0.615,5.405-1.667c2.331,1.796,5.238,2.868,8.408,2.868
			c4.254,0,8.057-1.925,10.591-4.951c1.33,0.665,2.828,1.049,4.418,1.049c5.471,0,9.906-4.436,9.906-9.908
			S539.642,32.719,534.171,32.719z"/>
	</g>
	<linearGradient id="SVGID_9_" gradientUnits="userSpaceOnUse" x1="386.2725" y1="278.1753" x2="577.2846" y2="284.7119">
		<stop  offset="0.0121" style="stop-color:#025D39"/>
		<stop  offset="1" style="stop-color:#80B41C"/>
	</linearGradient>
	<polygon fill="url(#SVGID_9_)" points="459.095,305.698 403.861,260.177 431.343,254.687 	"/>
</g>
</svg>
