<?xml version="1.0" encoding="utf-8"?>
<!-- Generator: Adobe Illustrator 15.0.0, SVG Export Plug-In  -->
<!DOCTYPE svg PUBLIC "-//W3C//DTD SVG 1.1//EN" "http://www.w3.org/Graphics/SVG/1.1/DTD/svg11.dtd" [
	<!ENTITY ns_flows "http://ns.adobe.com/Flows/1.0/">
]>
<svg version="1.1"
	 xmlns="http://www.w3.org/2000/svg" xmlns:xlink="http://www.w3.org/1999/xlink" xmlns:a="http://ns.adobe.com/AdobeSVGViewerExtensions/3.0/"
	 x="0px" y="0px" width="72px" height="72px" viewBox="-4.026 -3.633 72 72" enable-background="new -4.026 -3.633 72 72"
	 xml:space="preserve">
<defs>
</defs>
<path fill="#BE172D" d="M30.198,60.396C13.547,60.396,0,46.85,0,30.198S13.547,0,30.198,0c16.651,0,30.198,13.547,30.198,30.198
	S46.849,60.396,30.198,60.396z M30.198,3C15.201,3,3,15.201,3,30.198s12.201,27.198,27.198,27.198
	c14.997,0,27.198-12.201,27.198-27.198S45.195,3,30.198,3z"/>
<path fill="#BE172D" d="M26.809,19.258h-0.111l-6.104,3.164l-1.221-5.716l8.269-4.273h6.382v36.073h-7.214V19.258z"/>
</svg>
