<?xml version="1.0" encoding="utf-8"?>
<!-- Generator: Adobe Illustrator 15.0.0, SVG Export Plug-In  -->
<!DOCTYPE svg PUBLIC "-//W3C//DTD SVG 1.1//EN" "http://www.w3.org/Graphics/SVG/1.1/DTD/svg11.dtd" [
	<!ENTITY ns_flows "http://ns.adobe.com/Flows/1.0/">
]>
<svg version="1.1"
	 xmlns="http://www.w3.org/2000/svg" xmlns:xlink="http://www.w3.org/1999/xlink" xmlns:a="http://ns.adobe.com/AdobeSVGViewerExtensions/3.0/"
	 x="0px" y="0px" width="72px" height="72px" viewBox="-4.026 -3.633 72 72" enable-background="new -4.026 -3.633 72 72"
	 xml:space="preserve">
<defs>
</defs>
<path fill="#BE172D" d="M30.198,60.396C13.547,60.396,0,46.85,0,30.198S13.547,0,30.198,0c16.651,0,30.198,13.547,30.198,30.198
	S46.849,60.396,30.198,60.396z M30.198,3C15.201,3,3,15.201,3,30.198s12.201,27.198,27.198,27.198
	c14.997,0,27.198-12.201,27.198-27.198S45.195,3,30.198,3z"/>
<path fill="#BE172D" d="M38.633,18.759h-9.545l-0.833,6.438c0.333,0,0.721,0,1.11,0c1.554,0.056,4.717,0.777,6.771,2.72
	c1.998,1.942,3.107,4.662,3.107,8.269c0,7.048-4.662,12.765-12.542,12.765c-2.553,0-5.328-0.666-6.771-1.443l1.11-5.771
	c1.332,0.666,3.219,1.276,5.162,1.276c3.552,0,5.882-2.275,5.882-6.16c0-4.828-3.663-6.438-7.825-6.438
	c-0.999,0-1.832,0-2.553,0.111l1.998-18.092h14.929V18.759z"/>
</svg>
