<?xml version="1.0" encoding="utf-8"?>
<!-- Generator: Adobe Illustrator 15.0.0, SVG Export Plug-In  -->
<!DOCTYPE svg PUBLIC "-//W3C//DTD SVG 1.1//EN" "http://www.w3.org/Graphics/SVG/1.1/DTD/svg11.dtd" [
	<!ENTITY ns_flows "http://ns.adobe.com/Flows/1.0/">
]>
<svg version="1.1"
	 xmlns="http://www.w3.org/2000/svg" xmlns:xlink="http://www.w3.org/1999/xlink" xmlns:a="http://ns.adobe.com/AdobeSVGViewerExtensions/3.0/"
	 x="0px" y="0px" width="72px" height="72px" viewBox="-4.026 -3.633 72 72" enable-background="new -4.026 -3.633 72 72"
	 xml:space="preserve">
<defs>
</defs>
<path fill="#BE172D" d="M30.198,60.396C13.547,60.396,0,46.85,0,30.198S13.547,0,30.198,0c16.651,0,30.198,13.547,30.198,30.198
	S46.849,60.396,30.198,60.396z M30.198,3C15.201,3,3,15.201,3,30.198s12.201,27.198,27.198,27.198
	c14.997,0,27.198-12.201,27.198-27.198S45.195,3,30.198,3z"/>
<path fill="#BE172D" d="M19.709,48.505v-4.884l3.607-4.605c4.662-5.938,8.491-10.878,8.491-16.039c0-2.886-1.609-4.939-4.606-4.939
	c-2.275,0-4.106,0.999-5.438,1.831l-1.276-5.661c1.665-1.054,4.772-2.22,8.047-2.22c7.881,0,10.434,5.272,10.434,10.434
	c0,6.771-4.218,12.209-8.38,17.037l-2.164,2.553v0.111h11.043v6.382H19.709z"/>
</svg>
