<?xml version="1.0" encoding="utf-8"?>
<!-- Generator: Adobe Illustrator 15.0.0, SVG Export Plug-In  -->
<!DOCTYPE svg PUBLIC "-//W3C//DTD SVG 1.1//EN" "http://www.w3.org/Graphics/SVG/1.1/DTD/svg11.dtd" [
	<!ENTITY ns_flows "http://ns.adobe.com/Flows/1.0/">
]>
<svg version="1.1"
	 xmlns="http://www.w3.org/2000/svg" xmlns:xlink="http://www.w3.org/1999/xlink" xmlns:a="http://ns.adobe.com/AdobeSVGViewerExtensions/3.0/"
	 x="0px" y="0px" width="72px" height="72px" viewBox="-4.026 -3.633 72 72" enable-background="new -4.026 -3.633 72 72"
	 xml:space="preserve">
<defs>
</defs>
<path fill="#BE172D" d="M30.198,60.396C13.547,60.396,0,46.85,0,30.198S13.547,0,30.198,0c16.651,0,30.198,13.547,30.198,30.198
	S46.849,60.396,30.198,60.396z M30.198,3C15.201,3,3,15.201,3,30.198s12.201,27.198,27.198,27.198
	c14.997,0,27.198-12.201,27.198-27.198S45.195,3,30.198,3z"/>
<path fill="#BE172D" d="M28.901,48.505v-8.603H16.525v-4.994l11.821-22.476h6.993v21.644h3.606v5.826h-3.606v8.603H28.901z
	 M28.901,34.076v-7.381c0-1.942,0.222-4.051,0.388-5.938h-0.222c-0.833,1.998-1.554,3.607-2.498,5.605l-3.885,7.603v0.111H28.901z"
	/>
</svg>
