<?xml version="1.0" encoding="utf-8"?>
<!-- Generator: Adobe Illustrator 15.0.0, SVG Export Plug-In  -->
<!DOCTYPE svg PUBLIC "-//W3C//DTD SVG 1.1//EN" "http://www.w3.org/Graphics/SVG/1.1/DTD/svg11.dtd" [
	<!ENTITY ns_flows "http://ns.adobe.com/Flows/1.0/">
]>
<svg version="1.1"
	 xmlns="http://www.w3.org/2000/svg" xmlns:xlink="http://www.w3.org/1999/xlink" xmlns:a="http://ns.adobe.com/AdobeSVGViewerExtensions/3.0/"
	 x="0px" y="0px" width="72px" height="72px" viewBox="-4.026 -3.633 72 72" enable-background="new -4.026 -3.633 72 72"
	 xml:space="preserve">
<defs>
</defs>
<path fill="#BE172D" d="M30.198,60.396C13.547,60.396,0,46.85,0,30.198S13.547,0,30.198,0c16.651,0,30.198,13.547,30.198,30.198
	S46.849,60.396,30.198,60.396z M30.198,3C15.201,3,3,15.201,3,30.198s12.201,27.198,27.198,27.198
	c14.997,0,27.198-12.201,27.198-27.198S45.195,3,30.198,3z"/>
<path fill="#BE172D" d="M22.54,41.623c1.443,0.832,3.441,1.388,5.383,1.388c3.496,0,5.438-2.165,5.438-5.217
	c0-3.995-3.052-5.716-6.77-5.716h-0.999V26.75h0.722c2.664-0.056,6.104-1.166,6.104-4.662c0-2.608-1.665-4.163-4.218-4.163
	c-1.609,0-3.219,0.611-4.551,1.443l-0.943-5.494c1.499-0.943,4.44-1.887,7.437-1.887c6.327,0,9.49,4.107,9.49,8.713
	c0,3.607-1.998,6.604-5.161,8.103v0.111c3.497,1.166,6.16,4.273,6.16,9.158c0,5.494-4.218,10.877-12.042,10.877
	c-2.941,0-5.494-0.722-7.104-1.609L22.54,41.623z"/>
</svg>
