<?xml version="1.0" encoding="utf-8"?>
<!-- Generator: Adobe Illustrator 15.0.0, SVG Export Plug-In  -->
<!DOCTYPE svg PUBLIC "-//W3C//DTD SVG 1.1//EN" "http://www.w3.org/Graphics/SVG/1.1/DTD/svg11.dtd" [
	<!ENTITY ns_flows "http://ns.adobe.com/Flows/1.0/">
]>
<svg version="1.1"
	 xmlns="http://www.w3.org/2000/svg" xmlns:xlink="http://www.w3.org/1999/xlink" xmlns:a="http://ns.adobe.com/AdobeSVGViewerExtensions/3.0/"
	 x="0px" y="0px" width="342px" height="88px" viewBox="-4.645 -1.986 342 88" enable-background="new -4.645 -1.986 342 88"
	 xml:space="preserve">
<defs>
</defs>
<linearGradient id="SVGID_1_" gradientUnits="userSpaceOnUse" x1="0" y1="42.5879" x2="332.5732" y2="42.5879">
	<stop  offset="0" style="stop-color:#82B727"/>
	<stop  offset="0.0457" style="stop-color:#78B128"/>
	<stop  offset="0.2583" style="stop-color:#4E952A"/>
	<stop  offset="0.4651" style="stop-color:#2D802C"/>
	<stop  offset="0.6621" style="stop-color:#15702E"/>
	<stop  offset="0.845" style="stop-color:#07672F"/>
	<stop  offset="1" style="stop-color:#02642F"/>
</linearGradient>
<path fill="url(#SVGID_1_)" d="M332.573,0.837l-85.464,32.269l29.642,9.031c-8.144,4.704-16.579,8.768-25.281,12.154
	c-5.88,2.283-11.844,4.344-17.908,6.141c-3.032,0.895-6.076,1.771-9.147,2.567c-3.073,0.788-6.168,1.515-9.272,2.229
	c-12.438,2.768-25.203,4.671-38.127,5.495c-1.612,0.115-3.238,0.191-4.846,0.262l-2.409,0.094l-2.487,0.074
	c-3.153,0.092-6.409,0.105-9.609,0.031c-6.428-0.141-12.854-0.584-19.252-1.33c-6.398-0.745-12.769-1.797-19.084-3.152
	c-6.321-1.329-12.595-2.941-18.791-4.846c-12.397-3.806-24.462-8.805-36.099-14.73c-11.635-5.938-22.778-12.916-33.37-20.7
	c-5.295-3.897-10.418-8.036-15.387-12.366C10.732,9.721,5.894,5.182,1.504,0.305L1.479,0.278C1.185-0.047,0.685-0.096,0.331,0.177
	c-0.372,0.287-0.44,0.821-0.153,1.192C8.38,11.984,17.88,21.462,28.03,30.23c10.158,8.764,21.117,16.645,32.684,23.597
	c11.561,6.968,23.809,12.874,36.524,17.663c6.362,2.383,12.839,4.504,19.421,6.277c6.584,1.76,13.262,3.211,20.001,4.338
	c6.738,1.131,13.538,1.943,20.367,2.436c3.427,0.242,6.807,0.416,10.289,0.515l2.489,0.058l2.566,0.037l5.104,0.025
	c13.599-0.024,27.327-0.782,40.948-3.079c3.407-0.558,6.797-1.251,10.168-2.042c3.375-0.775,6.736-1.642,10.059-2.656
	c6.649-2.006,13.192-4.445,19.525-7.355c10.265-4.702,20.008-10.547,28.955-17.328l7.023,31.008L332.573,0.837z"/>
</svg>
