<?xml version="1.0" encoding="utf-8"?>
<!-- Generator: Adobe Illustrator 15.0.0, SVG Export Plug-In  -->
<!DOCTYPE svg PUBLIC "-//W3C//DTD SVG 1.1//EN" "http://www.w3.org/Graphics/SVG/1.1/DTD/svg11.dtd" [
	<!ENTITY ns_flows "http://ns.adobe.com/Flows/1.0/">
]>
<svg version="1.1"
	 xmlns="http://www.w3.org/2000/svg" xmlns:xlink="http://www.w3.org/1999/xlink" xmlns:a="http://ns.adobe.com/AdobeSVGViewerExtensions/3.0/"
	 x="0px" y="0px" width="288px" height="72px" viewBox="-9.907 -5.004 288 72" enable-background="new -9.907 -5.004 288 72"
	 xml:space="preserve">
<defs>
</defs>
<path fill="#1A171B" d="M21.065,8.82v4.83c-2.621-1.459-5.135-2.178-7.547-2.178c-2.299,0-4.193,0.592-5.689,1.792
	c-1.484,1.19-2.232,2.798-2.232,4.798c0,1.799,0.713,3.363,2.139,4.699c1.426,1.322,3.393,1.992,5.904,1.992
	c2.09,0,4.648-0.81,7.676-2.432v4.826c-2.58,1.438-5.464,2.156-8.653,2.156c-3.796,0-6.855-1.084-9.187-3.225
	C1.161,23.924,0,21.299,0,18.206c0-3.237,1.222-5.924,3.667-8.063c2.449-2.148,5.59-3.225,9.414-3.225
	C16.265,6.918,18.925,7.547,21.065,8.82z"/>
<path fill="#1A171B" d="M61.038,7.264h5.008l11.707,13.313V7.264h5.423V28.96h-4.581L66.461,15.055V28.96h-5.423V7.264z"/>
<path fill="#1A171B" d="M97.675,19.656l5.414-12.393h5.842l-9.981,22.041h-2.366L86.108,7.264h5.939L97.675,19.656z"/>
<path fill="#1A171B" d="M112.11,28.96V7.264h15.905v3.984h-10.483v4.571h9.965v3.988h-9.965v5.168h10.729v3.984H112.11z"/>
<path fill="#1A171B" d="M133.528,28.96V7.264h9.693c2.203,0,3.956,0.619,5.259,1.868c1.298,1.232,1.946,2.699,1.946,4.396
	c0,2.391-1.24,4.148-3.73,5.27c1.217,0.592,2.338,2.129,3.356,4.613c0.095,0.189,0.949,2.037,2.576,5.55h-5.944
	c-0.587-1.274-1.359-2.987-2.337-5.13c-0.687-1.443-1.343-2.44-1.972-2.991c-0.534-0.464-1.195-0.706-1.976-0.706h-1.45v8.827
	H133.528z M138.95,16.144h2.809c2.047,0,3.073-0.821,3.073-2.469c0-1.618-1.085-2.427-3.245-2.427h-2.637V16.144z"/>
<path fill="#1A171B" d="M167.589,21.422v-3.996h8.672v8.95c-0.571,0.657-1.721,1.315-3.446,1.964
	c-1.717,0.641-3.583,0.965-5.595,0.965c-3.805,0-6.926-1.06-9.374-3.179c-2.433-2.124-3.647-4.765-3.647-7.92
	c0-3.435,1.232-6.17,3.696-8.22c2.464-2.046,5.554-3.068,9.275-3.068c3.304,0,6.17,0.579,8.594,1.737V13.4
	c-2.642-1.291-5.323-1.928-8.052-1.928c-2.48,0-4.424,0.629-5.828,1.898c-1.393,1.27-2.086,2.953-2.086,5.053
	c0,1.709,0.652,3.199,1.957,4.457c1.324,1.248,3.222,1.873,5.711,1.873c0.584,0,1.216-0.07,1.906-0.209
	c0.689-0.133,1.183-0.321,1.462-0.555v-2.568H167.589z"/>
<path fill="#1A171B" d="M181.095,28.96V7.264h15.906v3.984h-10.483v4.571h9.961v3.988h-9.961v5.168h10.729v3.984H181.095z"/>
<path fill="#1A171B" d="M201.934,7.264h5.008l11.706,13.313V7.264h5.423V28.96h-4.58l-12.126-13.905V28.96h-5.431V7.264z"/>
<path fill="#1A171B" d="M248.445,8.82v4.83c-2.62-1.459-5.134-2.178-7.55-2.178c-2.296,0-4.189,0.592-5.689,1.792
	c-1.482,1.19-2.227,2.798-2.227,4.798c0,1.799,0.711,3.363,2.133,4.699c1.43,1.322,3.393,1.992,5.906,1.992
	c2.096,0,4.65-0.81,7.674-2.432v4.826c-2.571,1.438-5.463,2.156-8.65,2.156c-3.796,0-6.861-1.084-9.182-3.225
	c-2.32-2.156-3.479-4.781-3.479-7.874c0-3.237,1.223-5.924,3.663-8.063c2.448-2.148,5.595-3.225,9.419-3.225
	C243.64,6.918,246.302,7.547,248.445,8.82z"/>
<path fill="#1A171B" d="M252.364,28.96V7.264h15.322v3.984h-9.899v4.571h9.39v3.988h-9.39v5.168h10.149v3.984H252.364z"/>
<path fill="#1A171B" d="M15.189,51.958v-1.404h6.188v8.311c-2.649,1.244-5.215,1.871-7.702,1.871c-3.397,0-6.219-1.037-8.467-3.1
	c-2.242-2.074-3.365-4.773-3.365-8.098c0-3.285,1.107-5.967,3.318-8.063c2.223-2.082,5.012-3.131,8.357-3.131
	c1.068,0,2.186,0.137,3.342,0.42c1.158,0.271,2.498,0.748,4.018,1.416v1.902c-2.598-1.453-5.153-2.182-7.67-2.182
	c-2.732,0-5.011,0.871-6.826,2.617c-1.814,1.746-2.715,4.088-2.715,7.02c0,2.922,0.951,5.264,2.852,7.012
	c1.906,1.742,4.287,2.625,7.156,2.625c2.213,0,4.215-0.455,6.004-1.355v-5.861H15.189z"/>
<path fill="#1A171B" d="M23.343,60.392l9.98-21.813h0.916l9.977,21.813h-1.744l-3.446-7.467H28.519l-3.43,7.467H23.343z
	 M29.157,51.519h9.26L33.76,41.312L29.157,51.519z"/>
<path fill="#1A171B" d="M47.024,60.392V38.687h5.659h0.279c2.235,0,3.954,0.48,5.164,1.449c1.212,0.971,1.823,2.326,1.823,4.076
	c0,2.629-1.396,4.424-4.18,5.359c0.666,0.227,1.535,1.154,2.602,2.785l5.259,8.035h-1.983l-4.676-7.229
	c-0.813-1.238-1.551-2.08-2.215-2.52c-0.664-0.436-1.586-0.648-2.762-0.648h-3.273v10.396H47.024z M48.722,48.582h3.681
	c3.814,0,5.725-1.42,5.725-4.287c0-1.373-0.495-2.412-1.481-3.127c-0.98-0.719-2.199-1.076-3.668-1.076H52.62h-3.898V48.582z"/>
<path fill="#1A171B" d="M65.87,38.687h1.434l16.529,18.99v-18.99h1.696v21.705h-1.401l-16.562-18.99v18.99H65.87V38.687z"/>
<path fill="#1A171B" d="M90.562,60.392V38.687h11.936v1.404H92.271V48.8h9.957v1.408h-9.957v8.783h10.49v1.4H90.562z"/>
<path fill="#1A171B" d="M105.51,60.392l9.978-21.813h0.92l9.98,21.813h-1.749l-3.442-7.467h-10.507l-3.427,7.467H105.51z
	 M111.321,51.519h9.268l-4.662-10.207L111.321,51.519z"/>
<path fill="#1A171B" d="M128.726,38.687h1.701v11.998c0,2.684,0.67,4.773,2.009,6.26c1.354,1.484,3.147,2.23,5.381,2.23
	c2.202,0,3.977-0.746,5.331-2.246c1.361-1.512,2.042-3.59,2.042-6.244V38.687h1.697v12.047c0,3.238-0.867,5.715-2.604,7.428
	c-1.725,1.717-3.902,2.574-6.547,2.574c-2.589,0-4.741-0.857-6.451-2.574c-1.709-1.73-2.559-4.111-2.559-7.156V38.687z"/>
<path fill="#1A171B" d="M156.399,51.195h1.322v9.197h-1.322V51.195z"/>
<path fill="#1A171B" d="M160.319,51.195h1.051l6.235,7.111v-7.111h1.241v9.197h-1.143l-6.149-7.082v7.082h-1.235V51.195z"/>
<path fill="#1A171B" d="M178.187,51.82v1.445c-1.084-0.674-2.135-1.012-3.162-1.012c-1.068,0-1.955,0.338-2.662,1.012
	c-0.698,0.678-1.048,1.527-1.048,2.547c0,1.023,0.341,1.857,1.019,2.521c0.678,0.662,1.566,0.986,2.662,0.986
	c1.109,0,2.206-0.328,3.299-1.006v1.416c-1.117,0.539-2.205,0.811-3.262,0.811c-1.545,0-2.785-0.461-3.705-1.381
	c-0.92-0.932-1.38-2.01-1.38-3.258c0-1.408,0.477-2.574,1.425-3.486c0.957-0.912,2.17-1.373,3.627-1.373
	c0.329,0,0.715,0.045,1.176,0.127C176.634,51.251,177.304,51.47,178.187,51.82z"/>
<path fill="#1A171B" d="M179.518,59.703c0-0.227,0.079-0.416,0.234-0.572c0.16-0.164,0.35-0.246,0.579-0.246
	c0.227,0,0.419,0.082,0.576,0.246c0.164,0.156,0.237,0.346,0.237,0.572c0,0.229-0.073,0.422-0.237,0.586
	c-0.157,0.148-0.35,0.223-0.576,0.223c-0.229,0-0.419-0.074-0.579-0.223C179.597,60.125,179.518,59.931,179.518,59.703z"/>
<path d="M27.401,17.34c0-3.196,1.099-6.137,2.918-8.483l-2.479-2.485c-2.439,2.995-3.909,6.811-3.909,10.969
	c0,4.16,1.473,7.984,3.923,10.971l2.473-2.477C28.501,23.484,27.401,20.543,27.401,17.34z"/>
<path d="M41.299,31.235c-3.232,0-6.204-1.121-8.573-2.978l-2.475,2.473c3.006,2.476,6.856,3.98,11.048,3.98
	c4.142,0,7.94-1.461,10.927-3.89l-2.475-2.477C47.405,30.146,44.483,31.235,41.299,31.235z"/>
<path d="M54.675,6.392l-2.479,2.474c1.823,2.357,2.931,5.303,2.931,8.507c0,3.196-1.072,6.161-2.895,8.503
	c-0.018,0.024-0.031,0.054-0.049,0.082l2.471,2.469c2.385-2.867,3.852-6.51,3.982-10.5C58.644,17.746,59.112,11.934,54.675,6.392z"
	/>
<path d="M32.71,6.434c0.547-0.432,3.615-2.934,8.514-2.962c3.24,0,6.213,1.117,8.576,2.982l2.474-2.481
	C49.272,1.492,45.419,0,41.224,0C35.516,0,31.7,2.74,30.297,3.891l0.015,0.012c-0.021,0.018-0.047,0.033-0.072,0.054L32.71,6.434z"
	/>
<path fill="#81B627" d="M28.761,16.781l11.848-0.037L40.597,4.881c-1.152,0.065-2.266,0.267-3.313,0.616l0.015,5.517l-7.06-7.058
	c-0.875,0.724-1.68,1.536-2.398,2.415l7.09,7.107H29.35C29.011,14.529,28.812,15.631,28.761,16.781z"/>
<path fill="#B0B2B2" d="M40.632,29.794l-0.031-11.81l-11.836,0.012c0.063,1.139,0.264,2.23,0.609,3.262h5.501l-7.021,7.053
	c0.719,0.888,1.521,1.697,2.396,2.42l7.088-7.065v5.537C38.381,29.543,39.488,29.744,40.632,29.794z"/>
<path fill="#008A6D" d="M47.487,21.237h5.578c0.346-1.034,0.551-2.136,0.604-3.282H41.807l0.012,11.839
	c1.135-0.054,2.229-0.251,3.26-0.592v-5.5l7.147,7.118c0.89-0.714,1.699-1.516,2.428-2.395L47.487,21.237z"/>
<path fill="#B0B2B2" d="M47.651,13.445l7.023-7.054c-0.722-0.883-1.525-1.688-2.401-2.419l-7.084,7.069V5.518
	c-1.043-0.354-2.146-0.567-3.292-0.625l0.028,11.83l11.744-0.02c-0.058-1.131-0.259-2.223-0.597-3.258H47.651z"/>
</svg>
