<?xml version="1.0" encoding="utf-8"?>
<!-- Generator: Adobe Illustrator 15.0.0, SVG Export Plug-In  -->
<!DOCTYPE svg PUBLIC "-//W3C//DTD SVG 1.1//EN" "http://www.w3.org/Graphics/SVG/1.1/DTD/svg11.dtd" [
	<!ENTITY ns_flows "http://ns.adobe.com/Flows/1.0/">
]>
<svg version="1.1"
	 xmlns="http://www.w3.org/2000/svg" xmlns:xlink="http://www.w3.org/1999/xlink" xmlns:a="http://ns.adobe.com/AdobeSVGViewerExtensions/3.0/"
	 x="0px" y="0px" width="540px" height="126px" viewBox="-5.838 -3.372 540 126" enable-background="new -5.838 -3.372 540 126"
	 xml:space="preserve">
<defs>
</defs>
<path fill="#1A171B" d="M41.522,17.385v9.521c-5.165-2.875-10.121-4.292-14.875-4.292c-4.531,0-8.267,1.167-11.214,3.531
	c-2.927,2.348-4.4,5.514-4.4,9.457c0,3.546,1.405,6.631,4.214,9.263c2.81,2.606,6.688,3.926,11.64,3.926
	c4.117,0,9.162-1.595,15.128-4.793v9.514c-5.084,2.834-10.769,4.251-17.057,4.251c-7.481,0-13.513-2.137-18.108-6.356
	C2.288,47.157,0,41.983,0,35.886c0-6.381,2.409-11.676,7.227-15.895c4.831-4.234,11.02-6.356,18.559-6.356
	C32.06,13.635,37.303,14.875,41.522,17.385z"/>
<path fill="#1A171B" d="M120.316,14.315h9.871l23.076,26.242V14.315h10.688v42.768h-9.028l-23.918-27.409v27.409h-10.688V14.315z"/>
<path fill="#1A171B" d="M192.533,38.744l10.672-24.428h11.514l-19.675,43.448h-4.664l-20.647-43.448h11.708L192.533,38.744z"/>
<path fill="#1A171B" d="M220.987,57.083V14.315h31.351v7.854h-20.664v9.012h19.644v7.862h-19.644V49.23h21.149v7.854H220.987z"/>
<path fill="#1A171B" d="M263.204,57.083V14.315h19.109c4.34,0,7.797,1.223,10.364,3.684c2.558,2.429,3.837,5.32,3.837,8.664
	c0,4.712-2.444,8.178-7.352,10.388c2.396,1.166,4.607,4.194,6.615,9.093c0.188,0.373,1.87,4.016,5.078,10.939h-11.717
	c-1.158-2.51-2.681-5.887-4.607-10.113c-1.353-2.842-2.648-4.81-3.887-5.895c-1.053-0.915-2.356-1.393-3.895-1.393h-2.858v17.4
	H263.204z M273.892,31.821h5.538c4.031,0,6.057-1.619,6.057-4.866c0-3.19-2.138-4.785-6.396-4.785h-5.198V31.821z"/>
<path fill="#1A171B" d="M330.344,42.226v-7.878h17.093v17.644c-1.126,1.295-3.394,2.591-6.794,3.87
	c-3.384,1.263-7.061,1.903-11.027,1.903c-7.498,0-13.652-2.089-18.477-6.267c-4.795-4.186-7.191-9.393-7.191-15.611
	c0-6.769,2.43-12.162,7.287-16.202c4.857-4.033,10.947-6.049,18.283-6.049c6.511,0,12.162,1.142,16.939,3.425v9.352
	c-5.207-2.543-10.494-3.798-15.871-3.798c-4.889,0-8.72,1.239-11.488,3.741c-2.745,2.502-4.113,5.822-4.113,9.959
	c0,3.368,1.287,6.307,3.86,8.785c2.608,2.462,6.349,3.692,11.256,3.692c1.149,0,2.397-0.138,3.757-0.412
	c1.36-0.259,2.332-0.632,2.883-1.094v-5.061H330.344z"/>
<path fill="#1A171B" d="M356.967,57.083V14.315h31.352v7.854h-20.663v9.012h19.634v7.862h-19.634V49.23h21.148v7.854H356.967z"/>
<path fill="#1A171B" d="M398.042,14.315h9.87l23.076,26.242V14.315h10.688v42.768h-9.028l-23.902-27.409v27.409h-10.704V14.315z"/>
<path fill="#1A171B" d="M489.723,17.385v9.521c-5.164-2.875-10.119-4.292-14.881-4.292c-4.525,0-8.26,1.167-11.214,3.531
	c-2.924,2.348-4.389,5.514-4.389,9.457c0,3.546,1.401,6.631,4.202,9.263c2.818,2.606,6.688,3.926,11.643,3.926
	c4.131,0,9.166-1.595,15.126-4.793v9.514c-5.067,2.834-10.769,4.251-17.052,4.251c-7.482,0-13.522-2.137-18.098-6.356
	c-4.574-4.251-6.857-9.425-6.857-15.522c0-6.381,2.412-11.676,7.222-15.895c4.826-4.234,11.028-6.356,18.566-6.356
	C480.25,13.635,485.498,14.875,489.723,17.385z"/>
<path fill="#1A171B" d="M497.448,57.083V14.315h30.201v7.854h-19.512v9.012h18.508v7.862h-18.508V49.23h20.006v7.854H497.448z"/>
<path fill="#1A171B" d="M29.94,102.419v-2.77h12.197v16.38c-5.222,2.454-10.279,3.692-15.182,3.692
	c-6.696,0-12.258-2.049-16.688-6.113c-4.42-4.089-6.635-9.408-6.635-15.959c0-6.479,2.184-11.766,6.542-15.895
	c4.381-4.105,9.879-6.17,16.474-6.17c2.104,0,4.308,0.268,6.587,0.826c2.283,0.534,4.923,1.474,7.918,2.793v3.749
	c-5.121-2.866-10.157-4.3-15.117-4.3c-5.388,0-9.878,1.717-13.457,5.158c-3.575,3.441-5.353,8.057-5.353,13.838
	c0,5.757,1.875,10.372,5.624,13.82c3.757,3.434,8.449,5.175,14.105,5.175c4.36,0,8.308-0.898,11.833-2.672v-11.554H29.94z"/>
<path fill="#1A171B" d="M46.011,119.042l19.672-42.996h1.808l19.664,42.996h-3.437l-6.793-14.721H56.213l-6.761,14.721H46.011z
	 M57.473,101.552h18.254l-9.181-20.121L57.473,101.552z"/>
<path fill="#1A171B" d="M92.694,119.042V76.257h11.154h0.55c4.405,0,7.794,0.947,10.179,2.858c2.388,1.911,3.594,4.583,3.594,8.032
	c0,5.182-2.753,8.721-8.238,10.566c1.312,0.445,3.024,2.275,5.129,5.49l10.365,15.838h-3.911l-9.215-14.251
	c-1.602-2.438-3.056-4.097-4.367-4.964c-1.308-0.858-3.126-1.279-5.442-1.279h-6.453v20.494H92.694z M96.038,95.763h7.255
	c7.518,0,11.283-2.801,11.283-8.453c0-2.705-0.976-4.753-2.919-6.162c-1.935-1.416-4.335-2.121-7.23-2.121h-0.704h-7.685V95.763z"/>
<path fill="#1A171B" d="M129.838,76.257h2.826l32.583,37.433V76.257h3.344v42.785h-2.762l-32.646-37.433v37.433h-3.345V76.257z"/>
<path fill="#1A171B" d="M178.511,119.042V76.257h23.528v2.77h-20.16v17.166h19.627v2.776h-19.627v17.312h20.679v2.762H178.511z"/>
<path fill="#1A171B" d="M207.976,119.042l19.667-42.996h1.813l19.675,42.996h-3.449l-6.786-14.721h-20.711l-6.753,14.721H207.976z
	 M219.432,101.552h18.267l-9.19-20.121L219.432,101.552z"/>
<path fill="#1A171B" d="M253.738,76.257h3.352v23.651c0,5.287,1.321,9.409,3.96,12.34c2.672,2.923,6.203,4.396,10.606,4.396
	c4.34,0,7.839-1.474,10.51-4.429c2.682-2.98,4.024-7.077,4.024-12.308V76.257h3.345v23.748c0,6.381-1.709,11.264-5.134,14.64
	c-3.4,3.385-7.691,5.077-12.905,5.077c-5.102,0-9.345-1.692-12.713-5.077c-3.369-3.409-5.044-8.104-5.044-14.104V76.257z"/>
<path fill="#1A171B" d="M308.287,100.913h2.607v18.129h-2.607V100.913z"/>
<path fill="#1A171B" d="M316.012,100.913h2.072l12.292,14.016v-14.016h2.445v18.129h-2.251l-12.121-13.959v13.959h-2.438V100.913z"
	/>
<path fill="#1A171B" d="M351.233,102.144v2.85c-2.138-1.328-4.21-1.992-6.235-1.992c-2.104,0-3.854,0.664-5.246,1.992
	c-1.376,1.336-2.064,3.012-2.064,5.021c0,2.016,0.672,3.659,2.008,4.971c1.336,1.304,3.086,1.944,5.247,1.944
	c2.187,0,4.349-0.648,6.503-1.984v2.793c-2.203,1.061-4.35,1.596-6.43,1.596c-3.045,0-5.49-0.907-7.304-2.721
	c-1.813-1.838-2.72-3.959-2.72-6.421c0-2.777,0.938-5.077,2.809-6.874c1.887-1.799,4.275-2.705,7.149-2.705
	c0.649,0,1.409,0.09,2.316,0.252C348.174,101.025,349.492,101.454,351.233,102.144z"/>
<path fill="#1A171B" d="M353.857,117.681c0-0.445,0.154-0.818,0.461-1.125c0.315-0.324,0.688-0.486,1.142-0.486
	c0.446,0,0.826,0.162,1.134,0.486c0.324,0.307,0.469,0.68,0.469,1.125c0,0.453-0.145,0.834-0.469,1.158
	c-0.308,0.291-0.688,0.438-1.134,0.438c-0.453,0-0.826-0.146-1.142-0.438C354.012,118.515,353.857,118.134,353.857,117.681z"/>
<path d="M54.012,34.177c0-6.299,2.165-12.097,5.752-16.72l-4.887-4.898c-4.81,5.903-7.705,13.425-7.705,21.619
	c0,8.202,2.903,15.741,7.732,21.627l4.875-4.883C56.181,46.29,54.012,40.493,54.012,34.177z"/>
<path d="M81.406,61.569c-6.371,0-12.229-2.21-16.897-5.87l-4.878,4.874c5.923,4.883,13.514,7.846,21.776,7.846
	c8.163,0,15.652-2.882,21.538-7.668l-4.878-4.882C93.443,59.423,87.683,61.569,81.406,61.569z"/>
<path d="M107.771,12.599l-4.887,4.875c3.595,4.648,5.776,10.453,5.776,16.769c0,6.299-2.112,12.145-5.704,16.761
	c-0.036,0.048-0.061,0.105-0.097,0.162l4.87,4.867c4.701-5.652,7.592-12.834,7.851-20.696
	C115.596,34.979,116.519,23.522,107.771,12.599z"/>
<path d="M64.477,12.68c1.076-0.851,7.125-5.782,16.78-5.838c6.389,0,12.246,2.202,16.906,5.878l4.876-4.891
	C97.124,2.939,89.528,0,81.257,0C70.006,0,62.485,5.4,59.719,7.668l0.029,0.024c-0.041,0.032-0.094,0.064-0.142,0.105L64.477,12.68z
	"/>
<path fill="#83B719" d="M56.691,33.076l23.353-0.073L80.023,9.619c-2.271,0.129-4.466,0.526-6.531,1.215l0.029,10.874L59.606,7.797
	c-1.725,1.425-3.311,3.028-4.729,4.761l13.975,14.008h-11C57.185,28.639,56.792,30.809,56.691,33.076z"/>
<path fill="#B0B2B3" d="M80.091,58.728l-0.06-23.279l-23.332,0.025c0.125,2.242,0.519,4.396,1.203,6.429h10.842L54.905,55.805
	c1.417,1.748,3,3.344,4.725,4.769l13.971-13.927v10.915C75.654,58.233,77.837,58.63,80.091,58.728z"/>
<path fill="#008A6C" d="M93.605,41.861h10.995c0.68-2.041,1.085-4.21,1.191-6.47H82.407l0.023,23.336
	c2.236-0.105,4.394-0.494,6.425-1.167V46.719l14.088,14.032c1.754-1.408,3.35-2.987,4.786-4.72L93.605,41.861z"/>
<path fill="#B0B2B3" d="M93.929,26.501l13.842-13.903c-1.421-1.741-3.004-3.328-4.732-4.769L89.075,21.764v-10.89
	c-2.056-0.696-4.231-1.118-6.49-1.231l0.056,23.319l23.15-0.041c-0.114-2.227-0.511-4.38-1.174-6.421H93.929z"/>
</svg>
