<?xml version="1.0" encoding="utf-8"?>
<!-- Generator: Adobe Illustrator 15.0.0, SVG Export Plug-In  -->
<!DOCTYPE svg PUBLIC "-//W3C//DTD SVG 1.1//EN" "http://www.w3.org/Graphics/SVG/1.1/DTD/svg11.dtd" [
	<!ENTITY ns_flows "http://ns.adobe.com/Flows/1.0/">
]>
<svg version="1.1"
	 xmlns="http://www.w3.org/2000/svg" xmlns:xlink="http://www.w3.org/1999/xlink" xmlns:a="http://ns.adobe.com/AdobeSVGViewerExtensions/3.0/"
	 x="0px" y="0px" width="486px" height="180px" viewBox="-7.783 -11.371 486 180" enable-background="new -7.783 -11.371 486 180"
	 xml:space="preserve">
<defs>
</defs>
<polygon fill="#006742" points="173.35,158.52 162.798,158.52 162.798,143.205 173.068,143.205 173.068,144.744 164.395,144.744 
	164.395,149.664 171.445,149.664 171.445,151.191 164.395,151.191 164.395,156.98 173.35,156.98 "/>
<path fill="#006742" d="M176.685,158.52h-1.614v-11.599h1.614v0.681c0,0.167,0.016,0.361,0,0.592v0.146
	c0.685-0.45,1.287-0.807,1.962-1.073c0.502-0.198,0.993-0.356,1.481-0.444c0.479-0.091,0.958-0.132,1.424-0.132
	c1.413,0,2.496,0.378,3.218,1.131c0.334,0.345,0.575,0.732,0.743,1.179c0.158,0.429,0.242,0.951,0.242,1.585v7.935h-1.554v-7.914
	c0-0.339-0.037-0.679-0.117-1.011c-0.067-0.26-0.204-0.496-0.418-0.7c-0.198-0.21-0.455-0.377-0.791-0.508
	c-0.752-0.298-2.16-0.298-3.726,0.277c-0.209,0.079-0.429,0.173-0.67,0.304c-0.24,0.12-0.492,0.255-0.743,0.403
	c-0.242,0.142-0.827,0.424-1.051,0.58V158.52z"/>
<path fill="#006742" d="M328.295,158.52h-1.611v-11.599h1.611v0.681c0,0.167,0.012,0.361,0,0.592v0.146
	c0.679-0.45,1.286-0.807,1.967-1.073c0.497-0.198,0.994-0.356,1.478-0.444c0.479-0.091,0.962-0.132,1.423-0.132
	c1.413,0,2.501,0.378,3.22,1.131c0.329,0.345,0.578,0.732,0.743,1.179c0.161,0.429,0.24,0.951,0.24,1.585v7.935h-1.555v-7.914
	c0-0.339-0.031-0.679-0.116-1.011c-0.067-0.26-0.204-0.496-0.418-0.7c-0.204-0.21-0.455-0.377-0.784-0.508
	c-0.766-0.298-2.167-0.298-3.733,0.277c-0.209,0.079-0.429,0.173-0.665,0.304c-0.246,0.12-0.49,0.255-0.742,0.403
	c-0.245,0.142-0.837,0.424-1.057,0.58V158.52z"/>
<path fill="#006742" d="M384.035,158.52h-1.601v-11.599h1.601v0.681c0,0.167,0.016,0.361,0,0.592v0.146
	c0.691-0.45,1.298-0.807,1.975-1.073c0.502-0.198,0.998-0.356,1.48-0.444c0.476-0.091,0.963-0.132,1.424-0.132
	c1.414,0,2.502,0.378,3.214,1.131c0.334,0.345,0.585,0.732,0.743,1.179c0.157,0.429,0.239,0.951,0.239,1.585v7.935h-1.548v-7.914
	c0-0.339-0.041-0.679-0.121-1.011c-0.069-0.26-0.199-0.496-0.418-0.7c-0.205-0.21-0.455-0.377-0.786-0.508
	c-0.757-0.298-2.161-0.298-3.726,0.277c-0.215,0.079-0.435,0.173-0.67,0.304c-0.247,0.12-0.498,0.255-0.748,0.403
	c-0.236,0.142-0.828,0.424-1.059,0.58V158.52z"/>
<path fill="#006742" d="M445.984,158.52h-1.603v-11.599h1.603v0.681c0,0.167,0.021,0.361,0,0.592v0.146
	c0.689-0.45,1.299-0.807,1.979-1.073c0.501-0.198,0.993-0.356,1.474-0.444c0.481-0.091,0.965-0.132,1.419-0.132
	c1.424,0,2.503,0.378,3.23,1.131c0.323,0.345,0.575,0.732,0.736,1.179c0.163,0.429,0.24,0.951,0.24,1.585v7.935h-1.554v-7.914
	c0-0.339-0.041-0.679-0.113-1.011c-0.063-0.26-0.205-0.496-0.42-0.7c-0.199-0.21-0.455-0.377-0.785-0.508
	c-0.764-0.298-2.168-0.298-3.727,0.277c-0.215,0.079-0.429,0.173-0.67,0.304c-0.245,0.12-0.492,0.255-0.742,0.403
	c-0.247,0.142-0.839,0.424-1.068,0.58V158.52z"/>
<path fill="#006742" d="M227.605,163.388h-1.549v-16.467h1.56l-0.021,1.005c0.038-0.026,0.074-0.047,0.105-0.072
	c0.314-0.2,0.669-0.399,1.074-0.577c0.397-0.197,0.842-0.345,1.324-0.444c0.471-0.094,1.004-0.142,1.569-0.142
	c1.905,0,3.465,0.629,4.642,1.874c0.478,0.512,0.858,1.11,1.147,1.801c0.271,0.691,0.419,1.471,0.419,2.313
	c0,0.738-0.126,1.477-0.367,2.197c-0.241,0.745-0.659,1.414-1.24,2.037c-0.487,0.539-1.136,0.984-1.91,1.329
	c-0.78,0.336-1.687,0.518-2.691,0.518c-0.325,0-0.723-0.036-1.184-0.083c-0.481-0.063-1.015-0.215-1.59-0.466
	c-0.302-0.116-0.654-0.299-1.004-0.53c-0.1-0.062-0.189-0.124-0.283-0.187V163.388z M227.605,155.595
	c0.356,0.307,0.669,0.56,0.962,0.737c0.321,0.225,0.619,0.393,0.884,0.519c0.273,0.118,0.597,0.215,0.959,0.288
	c0.884,0.193,2.113,0.167,3.167-0.195c0.585-0.208,1.104-0.56,1.554-1.058c0.351-0.376,0.633-0.836,0.859-1.365
	c0.214-0.518,0.331-1.141,0.331-1.842c0-0.57-0.101-1.136-0.3-1.681c-0.198-0.545-0.487-1.029-0.868-1.438
	c-0.367-0.414-0.859-0.755-1.434-1.006c-0.874-0.365-2.047-0.465-3.205-0.271c-0.376,0.058-0.753,0.167-1.14,0.335
	c-0.325,0.157-0.66,0.355-0.973,0.58c-0.282,0.199-0.551,0.416-0.795,0.645V155.595z"/>
<path fill="#006742" d="M252.758,158.52h-1.559v-11.599h1.559V158.52z M252.758,145.403h-1.559V143.1h1.559V145.403z"/>
<path fill="#006742" d="M261.336,158.76c-0.685,0-1.328-0.058-1.903-0.146c-0.577-0.094-1.115-0.221-1.603-0.36
	c-0.498-0.158-0.945-0.361-1.313-0.619c-0.357-0.229-0.713-0.506-1.08-0.82l-0.344-0.304l1.141-1.146l0.304,0.329
	c0.388,0.419,0.974,0.784,1.763,1.083c0.791,0.309,1.791,0.465,2.958,0.465c0.606,0,1.229-0.067,1.827-0.197
	c0.584-0.126,1.094-0.319,1.507-0.598c0.555-0.345,0.811-0.764,0.811-1.329c0-0.184-0.042-0.382-0.126-0.602
	c-0.072-0.188-0.188-0.36-0.365-0.513c-0.121-0.104-0.268-0.199-0.43-0.288c-0.178-0.084-0.396-0.163-0.665-0.24
	c-0.288-0.084-0.634-0.163-1.062-0.236c-0.445-0.077-0.984-0.162-1.623-0.272c-0.639-0.093-1.184-0.177-1.622-0.261
	c-0.45-0.079-0.838-0.157-1.153-0.236c-0.334-0.084-0.605-0.184-0.846-0.293c-0.231-0.109-0.456-0.247-0.671-0.407
	c-0.345-0.252-0.617-0.552-0.816-0.891c-0.198-0.34-0.298-0.737-0.298-1.177c0-0.551,0.15-1.031,0.445-1.435
	c0.281-0.393,0.685-0.707,1.193-0.938c0.471-0.22,1.035-0.387,1.685-0.492c1.088-0.172,2.512-0.21,3.831-0.048
	c0.572,0.069,1.121,0.221,1.649,0.473c0.349,0.151,0.675,0.33,0.974,0.545c0.309,0.225,0.611,0.512,0.885,0.863l0.25,0.324
	l-1.213,1.047l-0.268-0.397c-0.266-0.398-0.718-0.738-1.346-1.011c-0.648-0.288-1.539-0.428-2.627-0.428
	c-0.613,0-1.21,0.035-1.779,0.104c-0.544,0.067-1.006,0.198-1.377,0.392c-0.256,0.137-0.455,0.289-0.586,0.45
	c-0.111,0.147-0.163,0.33-0.163,0.551c0,0.146,0.032,0.283,0.085,0.407c0.062,0.126,0.178,0.262,0.346,0.403
	c0.119,0.084,0.262,0.178,0.406,0.246c0.169,0.074,0.367,0.146,0.607,0.21c0.273,0.069,0.628,0.141,1.049,0.213
	c0.438,0.085,0.998,0.174,1.689,0.283c0.633,0.1,1.173,0.192,1.623,0.283c0.466,0.083,0.873,0.177,1.209,0.281
	c0.354,0.085,0.658,0.205,0.91,0.331c0.256,0.141,0.492,0.287,0.707,0.461c0.324,0.267,0.582,0.597,0.764,0.999
	c0.183,0.398,0.277,0.807,0.277,1.241c0,0.597-0.126,1.109-0.377,1.518c-0.23,0.397-0.591,0.77-1.072,1.114
	c-0.508,0.352-1.11,0.617-1.795,0.797C263.027,158.671,262.23,158.76,261.336,158.76z"/>
<path fill="#006742" d="M299.796,158.76c-1.021,0-1.937-0.178-2.71-0.502c-0.791-0.346-1.451-0.802-1.969-1.366
	c-0.52-0.56-0.926-1.22-1.178-1.937c-0.252-0.718-0.388-1.47-0.388-2.23c0-0.852,0.157-1.647,0.44-2.38
	c0.292-0.728,0.711-1.372,1.251-1.911c0.528-0.544,1.198-0.979,1.961-1.288c1.461-0.591,3.397-0.622,5.067-0.036
	c0.545,0.194,1.059,0.461,1.537,0.802V143.1h1.561v15.42h-1.561v-0.613c0-0.129,0.013-0.272,0.022-0.423
	c-0.032,0.021-0.046,0.036-0.072,0.047c-0.167,0.116-0.351,0.23-0.546,0.346c-0.396,0.235-0.878,0.444-1.433,0.617
	C301.225,158.671,300.555,158.76,299.796,158.76z M299.77,148.188c-0.738,0-1.413,0.115-2,0.356
	c-0.574,0.24-1.066,0.564-1.443,0.957c-0.403,0.413-0.691,0.884-0.902,1.438c-0.207,0.556-0.322,1.157-0.322,1.784
	c0,0.598,0.115,1.174,0.314,1.724c0.191,0.544,0.496,1.02,0.889,1.434c0.387,0.408,0.879,0.754,1.455,1s1.251,0.381,2.01,0.381
	c0.603,0,1.12-0.068,1.549-0.197c0.439-0.137,0.838-0.304,1.174-0.487c0.35-0.215,0.639-0.42,0.848-0.592l0.469-0.414v-5.73
	c-0.611-0.597-1.24-1.021-1.867-1.266C301.276,148.313,300.545,148.188,299.77,148.188z"/>
<polygon fill="#006742" points="309.578,146.742 308.191,146.742 309.022,142.881 310.719,142.881 "/>
<path fill="#006742" d="M368.275,158.76c-0.936,0-1.731-0.095-2.359-0.282c-0.639-0.188-1.173-0.449-1.57-0.78
	c-0.403-0.33-0.701-0.717-0.879-1.141c-0.173-0.424-0.256-0.848-0.256-1.262c0-0.842,0.223-1.559,0.674-2.124
	c0.42-0.539,1.057-0.995,1.863-1.329c0.779-0.325,1.749-0.586,2.879-0.775c1.01-0.168,2.172-0.309,3.455-0.42
	c0-0.434-0.053-0.805-0.158-1.118c-0.104-0.299-0.271-0.528-0.492-0.733c-0.24-0.198-0.564-0.346-0.973-0.439
	c-0.438-0.115-1.016-0.167-1.695-0.167c-0.848,0-1.607,0.083-2.256,0.257l-0.487,0.131l-0.146-1.561l0.385-0.073
	c3.09-0.571,5.096-0.227,6.198,0.727c0.78,0.676,1.171,1.65,1.171,2.895v5.496c0,0.23,0.008,0.43,0.027,0.569
	c0.007,0.133,0.027,0.227,0.058,0.32c0.021,0.069,0.063,0.152,0.122,0.23c0.077,0.114,0.182,0.235,0.313,0.377l0.114,0.116v0.847
	h-1.303l-0.121-0.135c-0.246-0.279-0.418-0.545-0.518-0.797c-0.011-0.021-0.021-0.047-0.021-0.068
	c-0.199,0.136-0.408,0.273-0.617,0.378c-0.408,0.208-0.827,0.387-1.225,0.507c-0.42,0.146-0.822,0.23-1.199,0.282
	C368.877,158.733,368.549,158.76,368.275,158.76z M372.082,152.149c-1.152,0.099-2.188,0.226-3.1,0.371
	c-0.994,0.158-1.815,0.367-2.459,0.625c-0.607,0.245-1.059,0.538-1.346,0.883c-0.277,0.336-0.413,0.749-0.413,1.245
	c0,0.205,0.046,0.436,0.13,0.666c0.073,0.204,0.236,0.397,0.467,0.59c0.245,0.206,0.605,0.373,1.072,0.515
	c0.472,0.146,1.105,0.219,1.878,0.219c0.212,0,0.483-0.021,0.808-0.058c0.313-0.031,0.648-0.114,1.025-0.236
	c0.361-0.118,0.723-0.291,1.088-0.512c0.305-0.184,0.592-0.429,0.85-0.732V152.149z"/>
<path fill="#006742" d="M379.163,158.52h-1.565v-11.599h1.565V158.52z M379.163,145.146h-1.565V143.1h1.565V145.146z"/>
<path fill="#006742" d="M426.963,158.52h-1.554v-8.327c0-0.272-0.025-0.54-0.089-0.811c-0.052-0.236-0.166-0.45-0.339-0.66
	c-0.132-0.136-0.331-0.262-0.582-0.377c-0.597-0.24-1.694-0.24-2.909,0.263c-0.357,0.156-0.738,0.365-1.142,0.611
	c-0.362,0.225-0.743,0.497-1.119,0.822v8.479h-1.555v-8.585c0-0.302-0.042-0.563-0.122-0.773c-0.073-0.188-0.197-0.366-0.359-0.513
	c-0.174-0.142-0.395-0.262-0.628-0.34c-0.44-0.143-1.063-0.177-1.813-0.026c-0.328,0.073-0.685,0.183-1.052,0.335
	c-0.372,0.178-0.763,0.393-1.15,0.639c-0.356,0.214-0.706,0.486-1.063,0.791v8.473h-1.548v-11.599h1.554l-0.01,1.277
	c0.219-0.157,0.44-0.299,0.654-0.419c0.422-0.251,0.832-0.46,1.219-0.611c0.42-0.184,0.817-0.304,1.199-0.372
	c0.927-0.173,1.794-0.137,2.496,0.1c0.419,0.141,0.786,0.334,1.078,0.563c0.262,0.21,0.477,0.456,0.648,0.754
	c0.039,0.069,0.08,0.143,0.111,0.211c0.297-0.215,0.581-0.408,0.862-0.591c0.419-0.273,0.849-0.494,1.247-0.649
	c0.428-0.174,0.831-0.304,1.219-0.383c1.036-0.209,2.046-0.131,2.765,0.162c0.443,0.183,0.819,0.425,1.13,0.733
	c0.314,0.313,0.533,0.68,0.665,1.099c0.13,0.413,0.187,0.849,0.187,1.299V158.52z"/>
<path fill="#1A171B" d="M399.921,43.604h-17.983c-1.268,0-2.309-1.067-2.309-2.354v-3.183c0-1.288,1.041-2.349,2.309-2.349h14.775
	c1.266,0,2.303-1.059,2.303-2.345v-1.23c0-1.3-1.037-2.356-2.303-2.356h-14.775c-1.268,0-2.309-1.057-2.309-2.345v-3.183
	c0-1.291,1.041-2.344,2.309-2.344h12.281c1.279,0,2.315-1.059,2.315-2.355v-1.226c0-1.293-1.036-2.349-2.315-2.349h-18.106
	c-1.267,0-2.315,0.879-2.315,1.951v30.41c0,0.653,1.049,1.183,2.315,1.183h23.809c1.271,0,2.313-1.059,2.313-2.355v-1.227
	C402.233,44.655,401.192,43.604,399.921,43.604z"/>
<path fill="#1A171B" d="M243.684,56.652c-1.277,0-2.314,1.052-2.314,2.346v0.711c0,1.293,1.037,2.35,2.314,2.35h15.88
	c1.276,0,2.313-1.057,2.313-2.35v-0.711c0-1.294-1.037-2.346-2.313-2.346H243.684z"/>
<path fill="#1A171B" d="M267.492,94.521h-17.979c-1.271,0-2.313-1.06-2.313-2.352v-3.178c0-1.291,1.042-2.348,2.313-2.348h15.031
	c1.271,0,2.305-1.063,2.305-2.353v-1.229c0-1.294-1.033-2.351-2.305-2.351h-15.031c-1.271,0-2.313-1.056-2.313-2.345V75.18
	c0-1.287,1.042-2.344,2.313-2.344h12.283c1.268,0,2.309-1.059,2.309-2.351v-1.23c0-1.292-1.041-2.349-2.309-2.349h-18.113
	c-1.277,0-2.314,0.883-2.314,1.951v30.414c0,0.65,1.037,1.183,2.314,1.183h23.809c1.273,0,2.309-1.063,2.309-2.354v-1.23
	C269.801,95.581,268.766,94.521,267.492,94.521z"/>
<path fill="#1A171B" d="M338.15,94.521h-17.979c-1.271,0-2.308-1.06-2.308-2.352v-3.178c0-1.291,1.037-2.348,2.308-2.348h14.771
	c1.265,0,2.313-1.063,2.313-2.353v-1.229c0-1.294-1.048-2.351-2.313-2.351h-14.771c-1.271,0-2.308-1.056-2.308-2.345V75.18
	c0-1.287,1.037-2.344,2.308-2.344h12.28c1.275,0,2.313-1.059,2.313-2.351v-1.23c0-1.292-1.037-2.349-2.313-2.349H314.34
	c-1.266,0-2.313,0.883-2.313,1.951v30.414c0,0.65,1.047,1.183,2.313,1.183h23.811c1.277,0,2.319-1.063,2.319-2.354v-1.23
	C340.47,95.581,339.428,94.521,338.15,94.521z"/>
<path fill="#1A171B" d="M349.492,21.915c1.276,0,2.313,1.053,2.313,2.344v22.915c0,1.297,1.037,2.355,2.309,2.355h1.209
	c1.277,0,2.313-1.059,2.313-2.355V24.259c0-1.291,1.041-2.344,2.313-2.344h6.469c1.266,0,2.303-1.059,2.303-2.355v-1.226
	c0-1.293-1.037-2.349-2.303-2.349h-23.391c-1.271,0-2.313,1.056-2.313,2.349v1.226c0,1.297,1.041,2.355,2.313,2.355H349.492z"/>
<path fill="#1A171B" d="M196.939,49.529c1.826,0,2.901-0.869,3.622-1.937l8.914-13.09c0.549-0.802,1.025-1.501,1.219-1.791
	c0.137,0.21,0.644,0.979,1.247,1.899l8.498,12.959c0.707,1.074,2.319,1.959,3.592,1.959h2.925c1.27,0,1.738-0.885,1.037-1.959
	l-8.604-13.11c-0.703-1.077-0.687-2.831,0.035-3.889l8.622-12.655c0.716-1.067,0.272-1.931-1.005-1.931h-2.721
	c-1.267,0-2.9,0.863-3.623,1.931l-8.721,12.803c-0.542,0.801-1.02,1.497-1.212,1.784c-0.137-0.198-0.649-0.979-1.252-1.9
	l-8.306-12.66c-0.702-1.078-2.318-1.957-3.596-1.957h-2.92c-1.271,0-1.737,0.879-1.031,1.957l8.406,12.817
	c0.701,1.073,0.69,2.826-0.032,3.89l-6.096,8.954h-24.994c-1.272,0-2.313-1.067-2.313-2.354v-3.183c0-1.288,1.041-2.349,2.313-2.349
	h16.44c1.271,0,2.308-1.059,2.308-2.345v-1.23c0-1.3-1.037-2.356-2.308-2.356h-16.44c-1.272,0-2.313-1.057-2.313-2.345v-3.183
	c0-1.291,1.041-2.344,2.313-2.344h13.788c1.276,0,2.313-1.059,2.313-2.355v-1.226c0-1.293-1.037-2.349-2.313-2.349h-19.616
	c-1.278,0-2.315,0.879-2.315,1.951v30.41c0,0.653,1.037,1.183,2.315,1.183H196.939z"/>
<path fill="#1A171B" d="M432.885,40.601c-0.948-0.87-2.137-0.933-2.641-0.144c0,0,0,0-0.617,0.646
	c-1.909,1.982-4.541,2.979-7.906,2.979c-3.397,0-6.051-1-7.953-3.011c-1.898-2.005-2.851-4.327-2.851-8.223
	c0-4.014,0.942-6.505,2.833-8.453c1.897-1.956,4.547-2.931,7.971-2.931c3.381,0,6.027,0.975,7.922,2.931
	c0.775,0.795,0.775,0.795,0.775,0.795c0.598,1.068,1.64,1.053,2.33-0.03l1.178-1.853c0.69-1.093,1.067-2.193,0.827-2.45
	c0,0,0,0-0.23-0.221c-3.188-2.982-7.454-4.468-12.802-4.468c-5.393,0-9.668,1.485-12.839,4.468
	c-3.178,2.979-4.759,7.042-4.759,12.177c0,5.134,1.581,9.185,4.759,12.164c3.171,2.962,7.446,4.457,12.839,4.457
	c5.348,0,9.614-1.495,12.802-4.457c0.522-0.488,0.522-0.488,0.522-0.488c0.488-0.58,0.116-1.774-0.827-2.643L432.885,40.601z"/>
<path fill="#1A171B" d="M371.134,91.525c-0.937-0.862-2.13-0.937-2.633-0.135c0,0,0,0-0.618,0.639
	c-1.916,1.988-4.542,2.982-7.902,2.982c-3.401,0-6.061-1.011-7.956-3.016c-1.903-2.004-2.858-4.333-2.858-8.222
	c0-4.019,0.943-6.506,2.844-8.458c1.889-1.957,4.548-2.931,7.971-2.931c3.381,0,6.019,0.974,7.92,2.931
	c0.778,0.796,0.778,0.796,0.778,0.796c0.587,1.072,1.634,1.057,2.325-0.032l1.178-1.863c0.686-1.077,1.063-2.183,0.832-2.439
	c0,0,0,0-0.242-0.214c-3.181-2.983-7.447-4.475-12.791-4.475c-5.391,0-9.673,1.491-12.855,4.475c-3.165,2.978-4.75,7.04-4.75,12.169
	c0,5.139,1.585,9.196,4.75,12.164c3.183,2.973,7.465,4.459,12.855,4.459c5.344,0,9.61-1.486,12.791-4.459
	c0.524-0.482,0.524-0.482,0.524-0.482c0.493-0.586,0.12-1.773-0.816-2.643L371.134,91.525z"/>
<path fill="#1A171B" d="M467.967,15.985h-1.21c-1.276,0-2.317,1.056-2.317,2.349v6.914c0,1.294-1.025,2.35-2.304,2.35h-13.138
	c-1.271,0-2.309-1.056-2.309-2.35v-6.914c0-1.293-1.042-2.349-2.308-2.349h-1.208c-1.272,0-2.313,1.056-2.313,2.349v28.84
	c0,1.297,1.041,2.355,2.313,2.355h1.208c1.266,0,2.308-1.059,2.308-2.355V35.88c0-1.294,1.037-2.353,2.309-2.353h13.138
	c1.278,0,2.304,1.059,2.304,2.353v11.294c0,1.297,1.041,2.355,2.317,2.355h1.21c1.267,0,2.302-1.059,2.302-2.355v-28.84
	C470.269,17.041,469.233,15.985,467.967,15.985z"/>
<path fill="#1A171B" d="M180.406,67.089c-5.386,0-9.673,1.491-12.844,4.475c-3.173,2.978-4.764,7.04-4.764,12.169
	c0,5.139,1.591,9.196,4.764,12.164c3.171,2.973,7.458,4.459,12.844,4.459c5.349,0,9.609-1.486,12.797-4.459
	c3.181-2.968,4.777-7.025,4.777-12.164c0-5.129-1.596-9.191-4.777-12.169C190.015,68.58,185.755,67.089,180.406,67.089z
	 M188.313,92.029c-1.919,1.988-4.547,2.982-7.907,2.982c-3.403,0-6.051-1.011-7.957-3.016c-1.894-2.004-2.848-4.333-2.848-8.222
	c0-4.019,0.942-6.506,2.833-8.458c1.889-1.957,4.554-2.931,7.972-2.931c3.375,0,6.019,0.974,7.924,2.931
	c1.896,1.952,2.847,4.439,2.847,8.458C191.176,87.7,190.225,90.034,188.313,92.029z"/>
<path fill="#1A171B" d="M296.629,44.977c3.188-2.979,4.773-7.03,4.773-12.164c0-5.135-1.586-9.197-4.773-12.177
	c-3.187-2.982-7.447-4.468-12.801-4.468c-5.387,0-9.668,1.485-12.844,4.468c-3.167,2.979-4.764,7.042-4.764,12.177
	c0,5.134,1.597,9.185,4.764,12.164c3.176,2.962,7.457,4.457,12.844,4.457C289.182,49.434,293.442,47.938,296.629,44.977z
	 M273.023,32.848c0-4.014,0.948-6.505,2.838-8.453c1.895-1.956,4.549-2.931,7.967-2.931c3.385,0,6.018,0.975,7.922,2.931
	c1.906,1.948,2.858,4.439,2.858,8.453c0,3.931-0.956,6.261-2.874,8.255c-1.909,1.982-4.547,2.979-7.906,2.979
	c-3.397,0-6.051-1-7.945-3.011C273.977,39.065,273.023,36.743,273.023,32.848z"/>
<path fill="#1A171B" d="M233.634,66.93h-2.276c-1.272,0-2.309,1.053-2.309,2.353v14.492c0,3.926-0.972,6.26-2.921,8.255
	c-1.937,1.988-4.034,2.982-7.436,2.982c-3.456,0-5.71-1.011-7.639-3.016c-1.93-2.004-2.898-4.333-2.898-8.222V69.282
	c0-1.3-1.037-2.353-2.313-2.353h-2.271c-1.277,0-2.319,1.053-2.319,2.353v14.45c0,5.139,1.619,9.196,4.831,12.164
	c3.226,2.973,7.13,4.459,12.61,4.459c5.427,0,9.17-1.486,12.397-4.459c3.246-2.968,4.857-7.025,4.857-12.164v-14.45
	C235.947,67.982,234.9,66.93,233.634,66.93z"/>
<path fill="#1A171B" d="M171.357,103.103c-1.536,0-2.781,1.267-2.781,2.828c0,1.568,1.246,2.825,2.781,2.825
	c3.531,0,10.947,0.947,13.774,4.526c0.55,0.696,1.354,1.053,2.171,1.053c0.607,0,1.224-0.193,1.733-0.623
	c1.198-0.969,1.386-2.747,0.428-3.962C184.481,103.423,173.508,103.103,171.357,103.103z"/>
<path fill="#1A171B" d="M303.376,83.539c-1.09-0.874-2.381-1.55-3.853-2.026c0.743-1.298,1.166-2.836,1.094-4.627
	c-0.184-4.59-3.898-9.3-9.798-9.3h-13.946c-1.273,0-2.311,1.078-2.311,2.37v28.84c0,1.292,1.037,2.37,2.311,2.37h19.525
	c6.48,0,10.488-5.354,10.488-10.331C306.887,87.967,305.643,85.381,303.376,83.539z M296.398,95.168h-13.691
	c-1.277,0-2.313-1.046-2.313-2.334V75.96c0-1.292,1.035-2.36,2.313-2.36h8.112c2.304,0,3.801,1.827,3.873,3.522
	c0.067,1.896-1.695,3.188-4.741,3.522h-1.366c-1.278,0-2.313,1.062-2.313,2.35v1.336c0,1.286,1.046,2.354,2.317,2.354h4.999
	c3.423,0,5.207,0.858,6.098,1.581c0.847,0.686,1.267,1.55,1.267,2.57C300.953,92.934,299.125,95.168,296.398,95.168z"/>
<path fill="#1A171B" d="M257.657,26.452c0,1.021-0.434,1.89-1.282,2.569c-0.889,0.729-2.668,1.577-6.098,1.577h-3.945
	c-1.268,0-2.313,1.053-2.313,2.349v1.33c0,1.282,1.046,2.354,2.313,2.354h3.945c4.125,0,7.417-0.969,9.787-2.888
	c2.271-1.833,3.519-4.424,3.519-7.292c0-4.982-4.003-10.358-10.489-10.358H234.21c-1.277,0-2.313,1.063-2.313,2.355v28.702
	c0,1.288,1.037,2.346,2.313,2.346h1.354c1.273,0,2.314-1.058,2.314-2.346V24.521c0-1.28,1.041-2.37,2.314-2.37h12.9
	C255.82,22.15,257.657,24.365,257.657,26.452z"/>
<path fill="#1A171B" d="M314.115,22.233h12.934c2.951,0,4.484,1.974,4.484,3.91c0,0.795-0.246,2.365-1.543,3.302
	c-1.58,1.131-4.334,1.478-4.334,1.478c-1.25,0.214-3.318,0.113-4.59,0.113h-1.23c-1.277,0-1.7,0.865-0.957,1.911l12.965,18.215
	c0.746,1.046,2.203,1.277,3.229,0.522l1.104-0.812c1.027-0.754,1.256-2.229,0.523-3.28l-6.896-9.585
	c-0.744-1.046-0.383-2.274,0.811-2.716c0,0,1.815-0.502,3.418-1.606c1.611-1.098,3.49-4.548,3.49-7.542
	c0-6.25-5.323-9.976-10.473-9.976h-18.916c-1.266,0-2.313,1.052-2.313,2.345v28.708c0,1.293,1.047,2.355,2.313,2.355h1.361
	c1.266,0,2.313-1.063,2.313-2.355V24.594C311.808,23.307,312.849,22.233,314.115,22.233z"/>
<path fill="#006742" d="M222.037,156.536c-0.299,0.088-0.631,0.173-1.028,0.267c-0.513,0.11-1.058,0.22-1.643,0.314
	c-1.13,0.184-2.146,0.224-3.271-0.09c-0.529-0.146-1.02-0.398-1.459-0.743c-0.452-0.345-0.816-0.812-1.11-1.375
	c-0.23-0.456-0.377-1.017-0.429-1.665h10.457v-0.424c0-0.932-0.146-1.764-0.439-2.476c-0.292-0.712-0.681-1.323-1.153-1.822
	c-0.563-0.597-1.213-1.063-1.945-1.37c-1.549-0.665-3.393-0.565-4.742-0.054c-0.718,0.263-1.35,0.649-1.885,1.126
	c-0.586,0.519-1.051,1.157-1.382,1.884c-0.318,0.724-0.48,1.555-0.48,2.477c0,1.005,0.146,1.889,0.461,2.638
	c0.308,0.743,0.732,1.382,1.256,1.884c0.596,0.581,1.308,1.005,2.114,1.267c0.77,0.251,1.56,0.387,2.366,0.387
	c0.544,0,1.14-0.063,1.78-0.167c0.622-0.104,1.204-0.226,1.748-0.367c0.308-0.067,0.66-0.154,1.026-0.255L222.037,156.536z
	 M213.43,150.646c0.237-0.48,0.556-0.904,0.953-1.265c0.408-0.366,0.896-0.66,1.461-0.87c1.057-0.407,2.475-0.461,3.543,0
	c0.502,0.22,0.941,0.519,1.307,0.885c0.367,0.383,0.664,0.811,0.879,1.3c0.158,0.341,0.267,0.679,0.336,1.029h-8.803
	C213.165,151.35,213.269,150.983,213.43,150.646z"/>
<path fill="#006742" d="M279.357,156.536c-0.291,0.088-0.627,0.173-1.025,0.267c-0.508,0.11-1.057,0.22-1.643,0.314
	c-1.133,0.184-2.146,0.224-3.271-0.09c-0.529-0.146-1.022-0.398-1.461-0.743c-0.45-0.345-0.816-0.812-1.11-1.375
	c-0.229-0.456-0.376-1.017-0.429-1.665h10.463v-0.424c0-0.932-0.152-1.764-0.445-2.476c-0.294-0.712-0.676-1.323-1.151-1.822
	c-0.565-0.597-1.214-1.063-1.946-1.37c-1.555-0.665-3.393-0.565-4.743-0.054c-0.716,0.263-1.35,0.649-1.884,1.126
	c-0.585,0.519-1.052,1.157-1.377,1.884c-0.324,0.724-0.497,1.555-0.497,2.477c0,1.005,0.168,1.889,0.471,2.638
	c0.305,0.743,0.733,1.382,1.251,1.884c0.602,0.581,1.32,1.005,2.116,1.267c0.769,0.251,1.573,0.387,2.37,0.387
	c0.543,0,1.141-0.063,1.779-0.167c0.619-0.104,1.209-0.226,1.748-0.367c0.309-0.067,0.659-0.154,1.026-0.255L279.357,156.536z
	 M270.758,150.646c0.227-0.48,0.55-0.904,0.947-1.265c0.408-0.366,0.901-0.66,1.461-0.87c1.059-0.407,2.47-0.461,3.543,0
	c0.508,0.22,0.942,0.519,1.309,0.885c0.366,0.383,0.67,0.811,0.881,1.3c0.155,0.341,0.264,0.679,0.333,1.029h-8.803
	C270.486,151.35,270.596,150.983,270.758,150.646z"/>
<path fill="#006742" d="M322.019,156.536c-0.298,0.088-0.623,0.173-1.021,0.267c-0.507,0.11-1.057,0.22-1.644,0.314
	c-1.129,0.184-2.146,0.224-3.276-0.09c-0.527-0.146-1.014-0.398-1.461-0.743c-0.443-0.345-0.811-0.812-1.104-1.375
	c-0.235-0.456-0.377-1.017-0.43-1.665h10.463v-0.424c0-0.932-0.151-1.764-0.445-2.476c-0.291-0.712-0.68-1.323-1.146-1.822
	c-0.569-0.597-1.231-1.063-1.953-1.37c-1.548-0.665-3.392-0.565-4.739-0.054c-0.712,0.263-1.352,0.649-1.887,1.126
	c-0.585,0.519-1.045,1.157-1.381,1.884c-0.326,0.724-0.482,1.555-0.482,2.477c0,1.005,0.148,1.889,0.462,2.638
	c0.313,0.743,0.728,1.382,1.249,1.884c0.604,0.581,1.327,1.005,2.115,1.267c0.77,0.251,1.576,0.387,2.373,0.387
	c0.544,0,1.141-0.063,1.777-0.167c0.619-0.104,1.209-0.226,1.748-0.367c0.31-0.067,0.661-0.154,1.026-0.255L322.019,156.536z
	 M313.424,150.646c0.232-0.48,0.551-0.904,0.947-1.265c0.404-0.366,0.896-0.66,1.455-0.87c1.059-0.407,2.482-0.461,3.55,0
	c0.507,0.22,0.942,0.519,1.302,0.885c0.373,0.383,0.672,0.811,0.886,1.3c0.157,0.341,0.262,0.679,0.336,1.029h-8.805
	C313.152,151.35,313.258,150.983,313.424,150.646z"/>
<path fill="#006742" d="M405.871,156.536c-0.293,0.088-0.629,0.173-1.016,0.267c-0.514,0.11-1.068,0.22-1.653,0.314
	c-1.126,0.184-2.146,0.224-3.271-0.09c-0.53-0.146-1.016-0.398-1.461-0.743c-0.443-0.345-0.816-0.812-1.105-1.375
	c-0.234-0.456-0.377-1.017-0.434-1.665h10.465v-0.424c0-0.932-0.152-1.764-0.448-2.476c-0.291-0.712-0.669-1.323-1.141-1.822
	c-0.574-0.597-1.224-1.063-1.956-1.37c-1.551-0.665-3.393-0.565-4.742-0.054c-0.712,0.263-1.351,0.649-1.879,1.126
	c-0.593,0.519-1.053,1.157-1.377,1.884c-0.325,0.724-0.498,1.555-0.498,2.477c0,1.005,0.163,1.889,0.471,2.638
	c0.305,0.743,0.729,1.382,1.252,1.884c0.603,0.581,1.319,1.005,2.115,1.267c0.77,0.251,1.57,0.387,2.365,0.387
	c0.549,0,1.152-0.063,1.781-0.167c0.627-0.104,1.208-0.226,1.746-0.367c0.314-0.067,0.66-0.154,1.031-0.255L405.871,156.536z
	 M397.277,150.646c0.23-0.48,0.544-0.904,0.941-1.265c0.408-0.366,0.9-0.66,1.462-0.87c1.052-0.407,2.476-0.461,3.553,0
	c0.503,0.22,0.933,0.519,1.298,0.885c0.372,0.383,0.664,0.811,0.885,1.3c0.151,0.341,0.267,0.679,0.318,1.029h-8.782
	C397.004,151.35,397.109,150.983,397.277,150.646z"/>
<path fill="#006742" d="M439.755,156.536c-0.292,0.088-0.627,0.173-1.015,0.267c-0.513,0.11-1.068,0.22-1.654,0.314
	c-1.124,0.184-2.141,0.224-3.267-0.09c-0.534-0.146-1.025-0.398-1.466-0.743c-0.445-0.345-0.809-0.812-1.098-1.375
	c-0.24-0.456-0.383-1.017-0.436-1.665h10.457v-0.424c0-0.932-0.146-1.764-0.443-2.476c-0.287-0.712-0.67-1.323-1.141-1.822
	c-0.57-0.597-1.226-1.063-1.953-1.37c-1.554-0.665-3.393-0.565-4.742-0.054c-0.717,0.263-1.355,0.649-1.878,1.126
	c-0.597,0.519-1.063,1.157-1.382,1.884c-0.326,0.724-0.492,1.555-0.492,2.477c0,1.005,0.156,1.889,0.471,2.638
	c0.305,0.743,0.723,1.382,1.246,1.884c0.602,0.581,1.318,1.005,2.113,1.267c0.775,0.251,1.572,0.387,2.366,0.387
	c0.551,0,1.151-0.063,1.778-0.167c0.629-0.104,1.216-0.226,1.756-0.367c0.308-0.067,0.652-0.154,1.02-0.255L439.755,156.536z
	 M431.162,150.646c0.23-0.48,0.544-0.904,0.942-1.265c0.408-0.366,0.899-0.66,1.465-0.87c1.052-0.407,2.47-0.461,3.548,0
	c0.502,0.22,0.938,0.519,1.299,0.885c0.378,0.383,0.669,0.811,0.891,1.3c0.151,0.341,0.262,0.679,0.322,1.029h-8.793
	C430.891,151.35,430.994,150.983,431.162,150.646z"/>
<path fill="#006742" d="M115.529,81.031c-5.97,7.673-14.439,13.095-24.661,16.236c-15.201,4.662-31.139,0.503-42.88-8.38
	c-7.596,1.287-17.301,1.675-23.752,0.644c13.902,18.864,39.438,28.666,63.361,21.328c14.55-4.464,27.16-14.471,32.76-26.253
	C123.112,78.786,117.852,78.042,115.529,81.031z"/>
<path fill="#006742" d="M14.849,45.399c3.457,2.093,10.617,2.239,16.087,1.774c5.134-19.423,17.282-31.603,36.837-35.627
	c19.558-4.036,32.938,3.575,32.848,8.201C100.518,25.29,91,36.359,61.372,46.101c-28.931,9.516-52.141,9.887-54.18-2.69
	C-0.14,62.163,18.597,66.067,33.817,65.251c17.793-0.957,42.861-8.338,61.491-20.401c18.627-12.06,25.374-26.698,1.43-38.795
	c-24.476-12.367-50.08-3.441-61.353,5.916C25.236,20.402,16.814,32.189,14.849,45.399z"/>
<path fill="#83B719" d="M119.291,22.124c1.618,1.053,2.738,2.339,3.254,3.867c3.449,10.244-20.839,29.734-54.218,41.579
	C35.256,79.304,5.09,75.368,1.644,65.135c-0.516-1.536-0.402-3.218,0.259-5.013c-1.913,3.904-2.449,7.651-1.309,11.029
	c4.793,14.223,36.232,17.627,71.145,6.322c34.913-11.307,60.086-33.027,55.294-47.246C125.902,26.84,123.202,24.149,119.291,22.124z
	"/>
<path fill="#006742" d="M199.98,155.976l-0.292,0.157c-0.21,0.116-0.472,0.24-0.755,0.371c-0.271,0.132-0.565,0.258-0.883,0.366
	c-0.313,0.11-0.655,0.211-1.004,0.278c-0.76,0.168-1.65,0.13-2.514-0.01c-0.455-0.073-0.874-0.221-1.244-0.43
	c-0.352-0.205-0.635-0.482-0.854-0.844c-0.215-0.355-0.324-0.847-0.324-1.46v-5.967h7.259v-1.518h-7.259v-4.134h-1.561v4.134h-3.246
	v1.518h3.246v5.967c0,0.933,0.189,1.696,0.554,2.277c0.367,0.58,0.833,1.021,1.388,1.335c0.54,0.303,1.13,0.497,1.753,0.596
	c0.606,0.095,1.172,0.146,1.685,0.146c0.481,0,0.942-0.042,1.382-0.125c0.435-0.084,0.842-0.188,1.214-0.309
	c0.388-0.126,0.728-0.255,1.047-0.403c0.252-0.115,0.455-0.22,0.66-0.329L199.98,155.976z"/>
<path fill="#006742" d="M352.15,155.955l-0.287,0.157c-0.215,0.114-0.468,0.241-0.749,0.377c-0.272,0.135-0.571,0.255-0.89,0.366
	c-0.313,0.113-0.654,0.21-1.006,0.283c-0.758,0.167-1.648,0.136-2.512,0c-0.455-0.073-0.879-0.221-1.246-0.425
	c-0.346-0.204-0.628-0.482-0.853-0.849c-0.22-0.35-0.335-0.843-0.335-1.454l-0.021-5.966l7.271-0.021l-0.01-1.522l-7.267,0.025
	l-0.015-4.135l-1.554,0.004l0.011,4.136l-3.245,0.011v1.518l3.254-0.011l0.016,5.967c0.007,0.937,0.193,1.696,0.561,2.282
	c0.373,0.564,0.839,1.01,1.398,1.33c0.544,0.292,1.136,0.486,1.758,0.585c0.603,0.089,1.168,0.136,1.686,0.136
	c0.477,0,0.936-0.047,1.387-0.13c0.424-0.083,0.827-0.188,1.204-0.31c0.388-0.124,0.733-0.262,1.047-0.403
	c0.239-0.113,0.45-0.226,0.655-0.334L352.15,155.955z"/>
<path fill="#006742" d="M469.516,155.955l-0.293,0.157c-0.21,0.114-0.471,0.241-0.75,0.377c-0.271,0.135-0.564,0.255-0.884,0.366
	c-0.313,0.113-0.649,0.21-1.005,0.283c-0.764,0.167-1.654,0.136-2.512,0c-0.461-0.073-0.879-0.221-1.246-0.425
	c-0.351-0.204-0.633-0.482-0.857-0.849c-0.219-0.35-0.329-0.843-0.329-1.454l-0.028-5.966l7.266-0.021l-0.006-1.522l-7.264,0.025
	l-0.006-4.135l-1.56,0.004l0.011,4.136l-3.245,0.011l0.006,1.518l3.239-0.011l0.027,5.967c0.004,0.937,0.192,1.696,0.563,2.282
	c0.362,0.564,0.833,1.01,1.393,1.33c0.55,0.292,1.126,0.486,1.755,0.585c0.605,0.089,1.171,0.136,1.684,0.136
	c0.481,0,0.943-0.047,1.383-0.13c0.43-0.083,0.838-0.188,1.215-0.31c0.381-0.124,0.727-0.262,1.045-0.403
	c0.242-0.113,0.451-0.226,0.65-0.334L469.516,155.955z"/>
<path fill="#006742" d="M249.199,147.737c-0.125-0.109-0.262-0.229-0.377-0.31c-0.193-0.141-0.418-0.271-0.637-0.365
	c-0.315-0.152-0.639-0.247-0.969-0.304c-0.822-0.121-1.639-0.089-2.404,0.105c-0.454,0.12-0.889,0.277-1.266,0.465
	c-0.376,0.172-0.732,0.367-1.066,0.57c-0.101,0.069-0.205,0.136-0.305,0.215l0.011-1.193h-1.56v11.599h1.56v-8.585
	c0.272-0.233,0.575-0.465,0.89-0.662c0.355-0.236,0.733-0.446,1.089-0.613c0.397-0.184,0.774-0.304,1.119-0.377
	c0.952-0.178,1.722-0.111,2.257,0.13c0.136,0.073,0.266,0.152,0.392,0.247c0.126,0.094,0.272,0.235,0.44,0.417l0.303,0.347
	L249.199,147.737z"/>
<path fill="#006742" d="M363.211,147.737c-0.132-0.109-0.269-0.229-0.383-0.31c-0.189-0.141-0.42-0.271-0.641-0.365
	c-0.307-0.152-0.638-0.247-0.967-0.304c-0.822-0.121-1.639-0.089-2.402,0.105c-0.455,0.12-0.889,0.277-1.266,0.465
	c-0.378,0.172-0.733,0.367-1.063,0.57c-0.1,0.069-0.206,0.136-0.31,0.215l0.015-1.193h-1.564v11.599h1.556v-8.585
	c0.276-0.233,0.581-0.465,0.894-0.662c0.356-0.236,0.733-0.446,1.09-0.613c0.397-0.184,0.773-0.304,1.114-0.377
	c0.958-0.178,1.733-0.111,2.263,0.13c0.135,0.073,0.266,0.152,0.396,0.247c0.12,0.094,0.267,0.235,0.435,0.417l0.305,0.347
	L363.211,147.737z"/>
<path fill="#006742" d="M210.625,147.737c-0.125-0.109-0.272-0.229-0.388-0.31c-0.183-0.141-0.408-0.271-0.627-0.365
	c-0.314-0.152-0.65-0.247-0.974-0.304c-0.817-0.121-1.644-0.089-2.407,0.105c-0.451,0.12-0.88,0.277-1.261,0.465
	c-0.377,0.172-0.734,0.367-1.063,0.57c-0.105,0.069-0.208,0.136-0.314,0.215l0.021-1.193h-1.565v11.599h1.56v-8.585
	c0.267-0.233,0.575-0.465,0.89-0.662c0.356-0.236,0.732-0.446,1.088-0.613c0.394-0.184,0.776-0.304,1.121-0.377
	c0.958-0.178,1.726-0.111,2.254,0.13c0.137,0.073,0.267,0.152,0.394,0.247c0.125,0.094,0.276,0.235,0.439,0.417l0.308,0.347
	L210.625,147.737z"/>
</svg>
