<?xml version="1.0" encoding="utf-8"?>
<!-- Generator: Adobe Illustrator 15.0.0, SVG Export Plug-In  -->
<!DOCTYPE svg PUBLIC "-//W3C//DTD SVG 1.1//EN" "http://www.w3.org/Graphics/SVG/1.1/DTD/svg11.dtd" [
	<!ENTITY ns_flows "http://ns.adobe.com/Flows/1.0/">
]>
<svg version="1.1"
	 xmlns="http://www.w3.org/2000/svg" xmlns:xlink="http://www.w3.org/1999/xlink" xmlns:a="http://ns.adobe.com/AdobeSVGViewerExtensions/3.0/"
	 x="0px" y="0px" width="234px" height="90px" viewBox="-12.038 -10.755 234 90" enable-background="new -12.038 -10.755 234 90"
	 xml:space="preserve">
<defs>
</defs>
<polygon fill="#006742" points="77.211,70.604 72.511,70.604 72.511,63.784 77.085,63.784 77.085,64.47 73.222,64.47 73.222,66.661 
	76.362,66.661 76.362,67.343 73.222,67.343 73.222,69.921 77.211,69.921 "/>
<path fill="#006742" d="M78.696,70.604h-0.719V65.44h0.719v0.303c0,0.074,0.007,0.16,0,0.264v0.064
	c0.306-0.201,0.573-0.359,0.874-0.479c0.224-0.088,0.442-0.158,0.659-0.197c0.215-0.039,0.428-0.059,0.635-0.059
	c0.629,0,1.111,0.168,1.434,0.504c0.148,0.154,0.256,0.326,0.331,0.525c0.069,0.189,0.106,0.424,0.106,0.705v3.533h-0.691v-3.523
	c0-0.152-0.017-0.303-0.053-0.451c-0.029-0.115-0.09-0.221-0.186-0.311c-0.088-0.094-0.203-0.17-0.352-0.227
	c-0.336-0.133-0.963-0.133-1.66,0.123c-0.094,0.035-0.191,0.076-0.299,0.135c-0.107,0.055-0.219,0.115-0.33,0.18
	c-0.107,0.064-0.369,0.189-0.469,0.26V70.604z"/>
<path fill="#006742" d="M146.224,70.604h-0.717V65.44h0.717v0.303c0,0.074,0.006,0.16,0,0.264v0.064
	c0.303-0.201,0.574-0.359,0.877-0.479c0.222-0.088,0.442-0.158,0.658-0.197c0.213-0.039,0.428-0.059,0.633-0.059
	c0.631,0,1.115,0.168,1.435,0.504c0.147,0.154,0.258,0.326,0.331,0.525c0.072,0.189,0.107,0.424,0.107,0.705v3.533h-0.693v-3.523
	c0-0.152-0.014-0.303-0.051-0.451c-0.03-0.115-0.092-0.221-0.188-0.311c-0.09-0.094-0.201-0.17-0.348-0.227
	c-0.342-0.133-0.966-0.133-1.663,0.123c-0.093,0.035-0.191,0.076-0.297,0.135c-0.108,0.055-0.218,0.115-0.331,0.18
	c-0.108,0.064-0.372,0.189-0.471,0.26V70.604z"/>
<path fill="#006742" d="M171.052,70.604h-0.713V65.44h0.713v0.303c0,0.074,0.006,0.16,0,0.264v0.064
	c0.308-0.201,0.578-0.359,0.879-0.479c0.224-0.088,0.445-0.158,0.66-0.197c0.211-0.039,0.429-0.059,0.634-0.059
	c0.63,0,1.114,0.168,1.433,0.504c0.148,0.154,0.26,0.326,0.33,0.525c0.07,0.189,0.106,0.424,0.106,0.705v3.533h-0.689v-3.523
	c0-0.152-0.019-0.303-0.054-0.451c-0.031-0.115-0.09-0.221-0.187-0.311c-0.091-0.094-0.203-0.17-0.35-0.227
	c-0.338-0.133-0.963-0.133-1.66,0.123c-0.096,0.035-0.192,0.076-0.299,0.135c-0.11,0.055-0.221,0.115-0.333,0.18
	c-0.105,0.064-0.369,0.189-0.471,0.26V70.604z"/>
<path fill="#006742" d="M198.644,70.604h-0.713V65.44h0.713v0.303c0,0.074,0.011,0.16,0,0.264v0.064
	c0.308-0.201,0.579-0.359,0.881-0.479c0.225-0.088,0.443-0.158,0.658-0.197s0.43-0.059,0.631-0.059c0.635,0,1.116,0.168,1.439,0.504
	c0.144,0.154,0.256,0.326,0.328,0.525c0.072,0.189,0.107,0.424,0.107,0.705v3.533h-0.692v-3.523c0-0.152-0.019-0.303-0.05-0.451
	c-0.029-0.115-0.092-0.221-0.188-0.311c-0.088-0.094-0.203-0.17-0.35-0.227c-0.342-0.133-0.965-0.133-1.66,0.123
	c-0.096,0.035-0.191,0.076-0.297,0.135c-0.111,0.055-0.221,0.115-0.332,0.18c-0.11,0.064-0.373,0.189-0.477,0.26V70.604z"/>
<path fill="#006742" d="M101.376,72.774h-0.689V65.44h0.695l-0.01,0.447c0.016-0.012,0.032-0.021,0.047-0.033
	c0.14-0.088,0.297-0.178,0.478-0.256c0.177-0.088,0.376-0.154,0.59-0.199c0.21-0.041,0.447-0.063,0.698-0.063
	c0.85,0,1.545,0.279,2.068,0.834c0.213,0.229,0.383,0.494,0.511,0.803c0.121,0.309,0.187,0.654,0.187,1.031
	c0,0.328-0.056,0.656-0.164,0.979c-0.106,0.33-0.293,0.629-0.552,0.906c-0.217,0.24-0.505,0.438-0.851,0.592
	c-0.348,0.15-0.751,0.232-1.199,0.232c-0.144,0-0.321-0.018-0.526-0.039c-0.214-0.027-0.452-0.096-0.708-0.207
	c-0.135-0.051-0.292-0.133-0.447-0.234c-0.045-0.029-0.084-0.057-0.127-0.084V72.774z M101.376,69.302
	c0.159,0.139,0.299,0.25,0.43,0.33c0.143,0.1,0.275,0.174,0.394,0.23c0.121,0.053,0.266,0.096,0.427,0.127
	c0.395,0.088,0.941,0.076,1.41-0.086c0.261-0.094,0.492-0.248,0.693-0.471c0.155-0.168,0.281-0.373,0.381-0.607
	c0.096-0.232,0.147-0.51,0.147-0.82c0-0.256-0.044-0.506-0.133-0.75c-0.089-0.242-0.217-0.459-0.387-0.641
	c-0.163-0.184-0.383-0.336-0.64-0.447c-0.389-0.164-0.911-0.207-1.427-0.121c-0.167,0.025-0.335,0.074-0.507,0.148
	c-0.146,0.07-0.295,0.158-0.434,0.26c-0.127,0.088-0.246,0.184-0.355,0.287V69.302z"/>
<path fill="#006742" d="M112.579,70.604h-0.693V65.44h0.693V70.604z M112.579,64.763h-0.693v-1.025h0.693V64.763z"/>
<path fill="#006742" d="M116.4,70.714c-0.305,0-0.592-0.027-0.848-0.066c-0.257-0.043-0.497-0.098-0.714-0.16
	c-0.221-0.07-0.422-0.162-0.585-0.275c-0.159-0.104-0.317-0.227-0.48-0.367l-0.153-0.135l0.508-0.51l0.135,0.146
	c0.174,0.188,0.434,0.35,0.786,0.482c0.353,0.137,0.798,0.207,1.317,0.207c0.27,0,0.547-0.029,0.813-0.088
	c0.261-0.057,0.487-0.143,0.671-0.266c0.248-0.154,0.361-0.34,0.361-0.592c0-0.082-0.019-0.17-0.056-0.268
	c-0.032-0.084-0.084-0.162-0.163-0.23c-0.054-0.045-0.119-0.088-0.191-0.127c-0.079-0.037-0.177-0.072-0.297-0.107
	c-0.127-0.037-0.281-0.072-0.472-0.105c-0.198-0.035-0.438-0.072-0.724-0.121c-0.284-0.041-0.526-0.078-0.723-0.115
	c-0.199-0.037-0.373-0.07-0.513-0.105c-0.149-0.037-0.271-0.082-0.378-0.131c-0.102-0.049-0.202-0.109-0.298-0.182
	c-0.153-0.113-0.274-0.246-0.364-0.396c-0.088-0.152-0.133-0.328-0.133-0.525c0-0.244,0.068-0.459,0.199-0.639
	c0.125-0.174,0.305-0.314,0.531-0.416c0.21-0.098,0.461-0.174,0.75-0.221c0.484-0.076,1.119-0.092,1.707-0.02
	c0.254,0.029,0.499,0.098,0.734,0.209c0.156,0.068,0.301,0.146,0.434,0.242c0.138,0.102,0.272,0.229,0.395,0.385l0.111,0.145
	l-0.541,0.467l-0.119-0.178c-0.118-0.178-0.319-0.328-0.599-0.449c-0.289-0.129-0.687-0.191-1.171-0.191
	c-0.272,0-0.539,0.016-0.792,0.047c-0.242,0.029-0.448,0.088-0.613,0.174c-0.114,0.061-0.203,0.129-0.261,0.201
	c-0.049,0.066-0.072,0.146-0.072,0.244c0,0.066,0.014,0.127,0.037,0.182c0.027,0.057,0.079,0.117,0.154,0.18
	c0.053,0.037,0.116,0.08,0.181,0.111c0.075,0.031,0.163,0.064,0.271,0.092c0.121,0.031,0.279,0.063,0.467,0.096
	c0.195,0.037,0.445,0.078,0.753,0.127c0.282,0.043,0.522,0.086,0.723,0.125c0.208,0.037,0.39,0.08,0.538,0.125
	c0.158,0.039,0.294,0.092,0.406,0.148c0.114,0.063,0.219,0.129,0.314,0.205c0.145,0.119,0.26,0.266,0.34,0.445
	c0.082,0.176,0.124,0.359,0.124,0.553c0,0.266-0.056,0.494-0.168,0.676c-0.103,0.176-0.263,0.342-0.478,0.496
	c-0.227,0.156-0.494,0.275-0.799,0.355S116.8,70.714,116.4,70.714z"/>
<path fill="#006742" d="M133.53,70.714c-0.453,0-0.861-0.08-1.207-0.225c-0.352-0.154-0.646-0.357-0.876-0.609
	c-0.231-0.248-0.413-0.543-0.524-0.861c-0.113-0.32-0.174-0.656-0.174-0.994c0-0.379,0.07-0.734,0.197-1.061
	c0.13-0.324,0.316-0.611,0.557-0.85c0.235-0.244,0.533-0.438,0.873-0.574c0.65-0.264,1.514-0.277,2.258-0.016
	c0.242,0.086,0.471,0.205,0.685,0.355v-2.143h0.694v6.867h-0.694v-0.271c0-0.059,0.005-0.121,0.01-0.189
	c-0.015,0.01-0.021,0.018-0.032,0.021c-0.074,0.051-0.156,0.104-0.243,0.154c-0.177,0.104-0.391,0.197-0.638,0.273
	C134.167,70.673,133.868,70.714,133.53,70.714z M133.52,66.003c-0.329,0-0.63,0.053-0.892,0.16
	c-0.256,0.107-0.475,0.252-0.643,0.426c-0.18,0.184-0.309,0.395-0.401,0.641c-0.093,0.248-0.144,0.516-0.144,0.795
	c0,0.266,0.051,0.523,0.14,0.768c0.085,0.242,0.222,0.455,0.396,0.639c0.172,0.182,0.393,0.336,0.648,0.445s0.557,0.17,0.896,0.17
	c0.268,0,0.499-0.029,0.689-0.088c0.196-0.061,0.373-0.135,0.522-0.217c0.156-0.096,0.285-0.188,0.377-0.264l0.21-0.184v-2.553
	c-0.272-0.268-0.553-0.455-0.832-0.564C134.19,66.06,133.864,66.003,133.52,66.003z"/>
<polygon fill="#006742" points="137.888,65.36 137.271,65.36 137.641,63.64 138.396,63.64 "/>
<path fill="#006742" d="M164.032,70.714c-0.416,0-0.771-0.043-1.051-0.127c-0.285-0.084-0.523-0.201-0.699-0.348
	c-0.18-0.146-0.313-0.318-0.393-0.508c-0.076-0.189-0.113-0.377-0.113-0.563c0-0.375,0.1-0.693,0.3-0.945
	c0.187-0.24,0.472-0.443,0.831-0.592c0.346-0.146,0.777-0.262,1.281-0.346c0.449-0.074,0.967-0.137,1.539-0.188
	c0-0.193-0.023-0.357-0.07-0.498c-0.047-0.133-0.121-0.234-0.22-0.326c-0.106-0.088-0.251-0.154-0.433-0.195
	c-0.195-0.053-0.453-0.076-0.756-0.076c-0.377,0-0.716,0.037-1.004,0.115l-0.218,0.059l-0.064-0.695l0.172-0.033
	c1.376-0.254,2.269-0.1,2.761,0.324c0.347,0.301,0.521,0.734,0.521,1.289v2.447c0,0.104,0.003,0.191,0.012,0.254
	c0.003,0.061,0.012,0.102,0.025,0.143c0.01,0.031,0.027,0.068,0.055,0.104c0.035,0.051,0.081,0.105,0.139,0.168l0.052,0.051v0.377
	h-0.581l-0.053-0.061c-0.11-0.123-0.186-0.242-0.23-0.354c-0.005-0.01-0.01-0.021-0.01-0.029c-0.089,0.061-0.182,0.121-0.275,0.166
	c-0.182,0.094-0.367,0.174-0.545,0.227c-0.188,0.066-0.367,0.104-0.533,0.127C164.3,70.7,164.153,70.714,164.032,70.714z
	 M165.728,67.769c-0.514,0.045-0.975,0.1-1.381,0.166c-0.442,0.07-0.809,0.162-1.096,0.277c-0.27,0.109-0.471,0.24-0.598,0.393
	c-0.125,0.15-0.185,0.334-0.185,0.555c0,0.092,0.021,0.195,0.058,0.297c0.033,0.092,0.105,0.178,0.207,0.264
	c0.109,0.09,0.271,0.166,0.479,0.229c0.209,0.064,0.492,0.098,0.836,0.098c0.094,0,0.216-0.01,0.359-0.025
	c0.141-0.014,0.289-0.051,0.457-0.105c0.161-0.053,0.322-0.131,0.484-0.229c0.137-0.082,0.264-0.191,0.379-0.326V67.769z"/>
<path fill="#006742" d="M168.882,70.604h-0.697V65.44h0.697V70.604z M168.882,64.649h-0.697v-0.912h0.697V64.649z"/>
<path fill="#006742" d="M190.173,70.604h-0.693v-3.709c0-0.121-0.011-0.24-0.039-0.361c-0.023-0.104-0.074-0.199-0.151-0.293
	c-0.06-0.061-0.147-0.117-0.259-0.168c-0.266-0.107-0.756-0.107-1.296,0.117c-0.159,0.07-0.329,0.162-0.509,0.273
	c-0.161,0.1-0.33,0.221-0.498,0.365v3.775h-0.693v-3.822c0-0.135-0.018-0.252-0.053-0.346c-0.033-0.084-0.089-0.162-0.161-0.229
	c-0.077-0.063-0.175-0.115-0.28-0.15c-0.195-0.063-0.473-0.08-0.807-0.012c-0.146,0.033-0.305,0.082-0.469,0.148
	c-0.166,0.08-0.34,0.176-0.512,0.285c-0.158,0.096-0.315,0.217-0.475,0.352v3.773h-0.689V65.44h0.692l-0.005,0.568
	c0.098-0.07,0.196-0.133,0.291-0.188c0.188-0.111,0.371-0.205,0.543-0.271c0.188-0.082,0.364-0.135,0.535-0.166
	c0.412-0.076,0.799-0.061,1.111,0.045c0.187,0.063,0.35,0.148,0.48,0.25c0.117,0.094,0.213,0.203,0.289,0.336
	c0.018,0.031,0.035,0.064,0.049,0.094c0.133-0.096,0.259-0.182,0.385-0.264c0.188-0.121,0.377-0.219,0.555-0.289
	c0.191-0.076,0.371-0.135,0.543-0.17c0.461-0.094,0.911-0.059,1.231,0.072c0.197,0.082,0.366,0.189,0.503,0.326
	c0.141,0.141,0.238,0.303,0.297,0.49c0.059,0.184,0.084,0.377,0.084,0.578V70.604z"/>
<path fill="#1A171B" d="M178.128,19.421h-8.012c-0.563,0-1.027-0.475-1.027-1.049v-1.418c0-0.572,0.464-1.046,1.027-1.046h6.582
	c0.563,0,1.025-0.471,1.025-1.044v-0.548c0-0.579-0.462-1.05-1.025-1.05h-6.582c-0.563,0-1.027-0.471-1.027-1.044v-1.417
	c0-0.576,0.464-1.045,1.027-1.045h5.471c0.57,0,1.032-0.471,1.032-1.049V8.167c0-0.575-0.462-1.046-1.032-1.046h-8.064
	c-0.564,0-1.031,0.391-1.031,0.869v13.545c0,0.291,0.467,0.525,1.031,0.525h10.605c0.564,0,1.029-0.471,1.029-1.049v-0.545
	C179.157,19.89,178.692,19.421,178.128,19.421z"/>
<path fill="#1A171B" d="M108.538,25.234c-0.569,0-1.031,0.469-1.031,1.044v0.317c0,0.576,0.462,1.047,1.031,1.047h7.073
	c0.567,0,1.03-0.471,1.03-1.047v-0.317c0-0.575-0.463-1.044-1.03-1.044H108.538z"/>
<path fill="#1A171B" d="M119.143,42.101h-8.008c-0.565,0-1.03-0.473-1.03-1.047v-1.416c0-0.576,0.465-1.047,1.03-1.047h6.694
	c0.567,0,1.027-0.473,1.027-1.047v-0.547c0-0.576-0.46-1.047-1.027-1.047h-6.694c-0.565,0-1.03-0.471-1.03-1.044v-1.42
	c0-0.574,0.465-1.044,1.03-1.044h5.472c0.564,0,1.027-0.472,1.027-1.047v-0.548c0-0.576-0.463-1.047-1.027-1.047h-8.068
	c-0.569,0-1.031,0.395-1.031,0.869v13.546c0,0.289,0.462,0.527,1.031,0.527h10.604c0.567,0,1.028-0.473,1.028-1.049v-0.549
	C120.171,42.573,119.71,42.101,119.143,42.101z"/>
<path fill="#1A171B" d="M150.614,42.101h-8.008c-0.566,0-1.028-0.473-1.028-1.047v-1.416c0-0.576,0.462-1.047,1.028-1.047h6.578
	c0.564,0,1.031-0.473,1.031-1.047v-0.547c0-0.576-0.467-1.047-1.031-1.047h-6.578c-0.566,0-1.028-0.471-1.028-1.044v-1.42
	c0-0.574,0.462-1.044,1.028-1.044h5.469c0.568,0,1.031-0.472,1.031-1.047v-0.548c0-0.576-0.463-1.047-1.031-1.047h-8.066
	c-0.564,0-1.03,0.395-1.03,0.869v13.546c0,0.289,0.466,0.527,1.03,0.527h10.605c0.568,0,1.033-0.473,1.033-1.049v-0.549
	C151.647,42.573,151.183,42.101,150.614,42.101z"/>
<path fill="#1A171B" d="M155.665,9.761c0.57,0,1.031,0.469,1.031,1.045v10.205c0,0.578,0.462,1.049,1.027,1.049h0.539
	c0.568,0,1.03-0.471,1.03-1.049V10.806c0-0.576,0.464-1.045,1.03-1.045h2.882c0.563,0,1.025-0.471,1.025-1.049V8.167
	c0-0.575-0.462-1.046-1.025-1.046h-10.419c-0.566,0-1.029,0.471-1.029,1.046v0.546c0,0.578,0.463,1.049,1.029,1.049H155.665z"/>
<path fill="#1A171B" d="M87.718,22.06c0.813,0,1.292-0.387,1.613-0.862l3.971-5.83c0.244-0.356,0.456-0.669,0.543-0.797
	c0.061,0.093,0.287,0.436,0.555,0.847l3.785,5.771c0.314,0.479,1.033,0.871,1.6,0.871h1.303c0.566,0,0.774-0.393,0.462-0.871
	l-3.831-5.84c-0.314-0.48-0.307-1.262,0.015-1.732l3.84-5.637c0.319-0.476,0.122-0.859-0.448-0.859h-1.211
	c-0.564,0-1.293,0.384-1.614,0.859l-3.884,5.703c-0.242,0.355-0.455,0.666-0.541,0.794c-0.061-0.089-0.289-0.437-0.557-0.847
	l-3.699-5.639c-0.313-0.48-1.033-0.871-1.602-0.871h-1.301c-0.566,0-0.774,0.391-0.459,0.871L90,13.701
	c0.313,0.479,0.308,1.26-0.015,1.732l-2.715,3.988H76.138c-0.566,0-1.029-0.475-1.029-1.049v-1.418c0-0.572,0.463-1.046,1.029-1.046
	h7.323c0.565,0,1.028-0.471,1.028-1.044v-0.548c0-0.579-0.463-1.05-1.028-1.05h-7.323c-0.566,0-1.029-0.471-1.029-1.044v-1.417
	c0-0.576,0.463-1.045,1.029-1.045h6.142c0.568,0,1.03-0.471,1.03-1.049V8.167c0-0.575-0.462-1.046-1.03-1.046h-8.737
	c-0.569,0-1.031,0.391-1.031,0.869v13.545c0,0.291,0.462,0.525,1.031,0.525H87.718z"/>
<path fill="#1A171B" d="M192.81,18.083c-0.422-0.387-0.951-0.415-1.176-0.063c0,0,0,0-0.275,0.287
	c-0.852,0.883-2.023,1.326-3.522,1.326c-1.513,0-2.694-0.445-3.541-1.341c-0.846-0.894-1.271-1.929-1.271-3.663
	c0-1.787,0.42-2.896,1.262-3.765c0.846-0.872,2.025-1.306,3.55-1.306c1.507,0,2.687,0.434,3.53,1.306
	c0.345,0.354,0.345,0.354,0.345,0.354c0.267,0.476,0.729,0.469,1.038-0.014l0.523-0.825c0.307-0.487,0.475-0.978,0.369-1.091
	c0,0,0,0-0.104-0.098c-1.42-1.33-3.319-1.991-5.702-1.991c-2.401,0-4.306,0.661-5.718,1.991c-1.416,1.326-2.119,3.135-2.119,5.422
	s0.703,4.092,2.119,5.418c1.412,1.319,3.316,1.986,5.718,1.986c2.383,0,4.282-0.667,5.702-1.986
	c0.232-0.217,0.232-0.217,0.232-0.217c0.219-0.259,0.053-0.791-0.367-1.178L192.81,18.083z"/>
<path fill="#1A171B" d="M165.306,40.767c-0.418-0.385-0.949-0.418-1.174-0.061c0,0,0,0-0.275,0.283
	c-0.853,0.887-2.022,1.33-3.52,1.33c-1.514,0-2.699-0.451-3.543-1.344c-0.848-0.893-1.273-1.93-1.273-3.662
	c0-1.791,0.421-2.898,1.267-3.767c0.841-0.872,2.026-1.306,3.55-1.306c1.507,0,2.682,0.434,3.527,1.306
	c0.348,0.354,0.348,0.354,0.348,0.354c0.262,0.478,0.728,0.471,1.035-0.014l0.525-0.83c0.305-0.48,0.473-0.972,0.369-1.087
	c0,0,0,0-0.107-0.096c-1.416-1.328-3.316-1.993-5.697-1.993c-2.4,0-4.309,0.665-5.725,1.993c-1.41,1.326-2.117,3.136-2.117,5.419
	c0,2.289,0.707,4.098,2.117,5.418c1.416,1.324,3.324,1.986,5.725,1.986c2.381,0,4.281-0.662,5.697-1.986
	c0.234-0.215,0.234-0.215,0.234-0.215c0.219-0.26,0.053-0.789-0.364-1.176L165.306,40.767z"/>
<path fill="#1A171B" d="M208.435,7.121h-0.538c-0.569,0-1.032,0.471-1.032,1.046v3.079c0,0.576-0.457,1.047-1.025,1.047h-5.853
	c-0.567,0-1.028-0.471-1.028-1.047V8.167c0-0.575-0.463-1.046-1.027-1.046h-0.539c-0.566,0-1.029,0.471-1.029,1.046v12.845
	c0,0.578,0.463,1.049,1.029,1.049h0.539c0.564,0,1.027-0.471,1.027-1.049v-5.03c0-0.575,0.461-1.047,1.028-1.047h5.853
	c0.568,0,1.025,0.472,1.025,1.047v5.03c0,0.578,0.463,1.049,1.032,1.049h0.538c0.564,0,1.026-0.471,1.026-1.049V8.167
	C209.461,7.591,208.999,7.121,208.435,7.121z"/>
<path fill="#1A171B" d="M80.354,29.881c-2.398,0-4.308,0.665-5.721,1.993c-1.413,1.326-2.122,3.136-2.122,5.419
	c0,2.289,0.709,4.098,2.122,5.418c1.413,1.324,3.322,1.986,5.721,1.986c2.382,0,4.28-0.662,5.7-1.986
	c1.416-1.32,2.128-3.129,2.128-5.418c0-2.284-0.712-4.093-2.128-5.419C84.634,30.546,82.735,29.881,80.354,29.881z M83.876,40.989
	c-0.855,0.887-2.025,1.33-3.522,1.33c-1.515,0-2.694-0.451-3.544-1.344c-0.844-0.893-1.268-1.93-1.268-3.662
	c0-1.791,0.42-2.898,1.261-3.767c0.842-0.872,2.028-1.306,3.551-1.306c1.504,0,2.681,0.434,3.53,1.306
	c0.844,0.869,1.268,1.976,1.268,3.767C85.151,39.062,84.728,40.101,83.876,40.989z"/>
<path fill="#1A171B" d="M132.12,20.033c1.42-1.326,2.127-3.131,2.127-5.418s-0.707-4.096-2.127-5.422
	c-1.42-1.33-3.317-1.991-5.701-1.991c-2.398,0-4.307,0.661-5.721,1.991c-1.411,1.326-2.122,3.135-2.122,5.422
	s0.711,4.092,2.122,5.418c1.414,1.319,3.322,1.986,5.721,1.986C128.803,22.019,130.7,21.352,132.12,20.033z M121.606,14.63
	c0-1.787,0.422-2.896,1.264-3.765c0.844-0.872,2.025-1.306,3.549-1.306c1.508,0,2.68,0.434,3.529,1.306
	c0.848,0.868,1.271,1.978,1.271,3.765c0,1.752-0.426,2.789-1.279,3.678c-0.851,0.883-2.025,1.326-3.521,1.326
	c-1.514,0-2.695-0.445-3.539-1.341C122.03,17.4,121.606,16.365,121.606,14.63z"/>
<path fill="#1A171B" d="M104.062,29.812h-1.014c-0.566,0-1.028,0.469-1.028,1.047v6.455c0,1.748-0.433,2.787-1.301,3.676
	c-0.862,0.887-1.797,1.33-3.312,1.33c-1.54,0-2.544-0.451-3.402-1.344c-0.859-0.893-1.291-1.93-1.291-3.662v-6.455
	c0-0.578-0.462-1.047-1.031-1.047h-1.012c-0.568,0-1.033,0.469-1.033,1.047v6.435c0,2.289,0.722,4.098,2.152,5.418
	c1.438,1.324,3.176,1.986,5.617,1.986c2.416,0,4.084-0.662,5.521-1.986c1.445-1.32,2.164-3.129,2.164-5.418v-6.435
	C105.093,30.281,104.626,29.812,104.062,29.812z"/>
<path fill="#1A171B" d="M76.323,45.923c-0.684,0-1.238,0.564-1.238,1.26c0,0.697,0.555,1.258,1.238,1.258
	c1.573,0,4.876,0.422,6.136,2.016c0.245,0.311,0.603,0.469,0.967,0.469c0.271,0,0.546-0.086,0.772-0.277
	c0.533-0.432,0.617-1.223,0.189-1.764C82.169,46.065,77.282,45.923,76.323,45.923z"/>
<path fill="#1A171B" d="M135.126,37.208c-0.486-0.389-1.061-0.689-1.717-0.902c0.331-0.578,0.52-1.263,0.487-2.06
	c-0.081-2.045-1.737-4.143-4.364-4.143h-6.211c-0.567,0-1.029,0.48-1.029,1.057v12.845c0,0.576,0.462,1.055,1.029,1.055h8.696
	c2.887,0,4.672-2.385,4.672-4.602C136.689,39.181,136.134,38.028,135.126,37.208z M132.018,42.388h-6.099
	c-0.568,0-1.029-0.465-1.029-1.039v-7.515c0-0.576,0.461-1.052,1.029-1.052h3.613c1.026,0,1.693,0.813,1.726,1.569
	c0.03,0.844-0.755,1.419-2.112,1.568h-0.608c-0.569,0-1.03,0.475-1.03,1.047v0.596c0,0.572,0.467,1.049,1.033,1.049h2.227
	c1.523,0,2.318,0.381,2.716,0.703c0.377,0.305,0.563,0.689,0.563,1.145C134.046,41.394,133.231,42.388,132.018,42.388z"/>
<path fill="#1A171B" d="M114.763,11.783c0,0.454-0.193,0.842-0.572,1.145c-0.396,0.324-1.188,0.701-2.715,0.701h-1.758
	c-0.564,0-1.031,0.469-1.031,1.047v0.592c0,0.572,0.467,1.049,1.031,1.049h1.758c1.836,0,3.303-0.431,4.358-1.286
	c1.013-0.815,1.567-1.97,1.567-3.247c0-2.22-1.783-4.614-4.672-4.614h-8.411c-0.568,0-1.03,0.474-1.03,1.05v12.783
	c0,0.574,0.462,1.045,1.03,1.045h0.604c0.567,0,1.03-0.471,1.03-1.045V10.922c0-0.571,0.464-1.057,1.031-1.057h5.746
	C113.944,9.866,114.763,10.853,114.763,11.783z"/>
<path fill="#1A171B" d="M139.909,9.904h5.76c1.314,0,1.998,0.879,1.998,1.74c0,0.355-0.109,1.055-0.688,1.473
	c-0.703,0.502-1.93,0.656-1.93,0.656c-0.558,0.096-1.479,0.051-2.045,0.051h-0.548c-0.569,0-0.758,0.385-0.427,0.852l5.775,8.113
	c0.332,0.465,0.98,0.568,1.438,0.232l0.492-0.361c0.457-0.336,0.559-0.992,0.232-1.462l-3.072-4.269
	c-0.331-0.466-0.17-1.014,0.361-1.209c0,0,0.809-0.225,1.522-0.717c0.718-0.488,1.555-2.025,1.555-3.359
	c0-2.783-2.37-4.442-4.665-4.442h-8.424c-0.564,0-1.031,0.468-1.031,1.044v12.787c0,0.576,0.467,1.049,1.031,1.049h0.605
	c0.563,0,1.03-0.473,1.03-1.049V10.955C138.881,10.381,139.345,9.904,139.909,9.904z"/>
<path fill="#006742" d="M98.896,69.722c-0.133,0.041-0.279,0.078-0.457,0.119c-0.229,0.049-0.471,0.098-0.732,0.141
	c-0.502,0.082-0.955,0.1-1.456-0.041c-0.235-0.064-0.454-0.178-0.649-0.33c-0.201-0.154-0.364-0.361-0.495-0.613
	c-0.103-0.203-0.168-0.453-0.19-0.742h4.656v-0.188c0-0.416-0.064-0.785-0.195-1.104c-0.131-0.316-0.303-0.59-0.514-0.811
	c-0.251-0.266-0.54-0.475-0.865-0.611c-0.691-0.295-1.512-0.252-2.113-0.023c-0.319,0.117-0.602,0.289-0.84,0.502
	c-0.261,0.23-0.468,0.514-0.615,0.838c-0.142,0.322-0.214,0.693-0.214,1.104c0,0.447,0.065,0.842,0.206,1.176
	c0.137,0.33,0.325,0.615,0.559,0.838c0.266,0.26,0.583,0.447,0.941,0.564c0.344,0.111,0.695,0.174,1.055,0.174
	c0.242,0,0.508-0.029,0.793-0.076c0.275-0.045,0.535-0.1,0.777-0.162c0.138-0.031,0.294-0.07,0.457-0.115L98.896,69.722z
	 M95.063,67.099c0.106-0.213,0.248-0.402,0.425-0.564c0.182-0.162,0.398-0.293,0.65-0.387c0.471-0.182,1.104-0.205,1.58,0
	c0.223,0.098,0.418,0.232,0.581,0.395c0.163,0.17,0.296,0.361,0.392,0.578c0.07,0.152,0.119,0.303,0.149,0.459h-3.921
	C94.944,67.411,94.991,67.249,95.063,67.099z"/>
<path fill="#006742" d="M124.427,69.722c-0.129,0.041-0.279,0.078-0.456,0.119c-0.227,0.049-0.471,0.098-0.731,0.141
	c-0.504,0.082-0.956,0.1-1.457-0.041c-0.236-0.064-0.455-0.178-0.65-0.33c-0.201-0.154-0.364-0.361-0.495-0.613
	c-0.103-0.203-0.167-0.453-0.191-0.742h4.661v-0.188c0-0.416-0.068-0.785-0.199-1.104c-0.131-0.316-0.301-0.59-0.512-0.811
	c-0.252-0.266-0.541-0.475-0.867-0.611c-0.693-0.295-1.512-0.252-2.113-0.023c-0.318,0.117-0.601,0.289-0.838,0.502
	c-0.262,0.23-0.47,0.514-0.613,0.838c-0.146,0.322-0.223,0.693-0.223,1.104c0,0.447,0.075,0.842,0.21,1.176
	c0.136,0.33,0.326,0.615,0.558,0.838c0.268,0.26,0.588,0.447,0.941,0.564c0.344,0.111,0.701,0.174,1.057,0.174
	c0.242,0,0.508-0.029,0.793-0.076c0.275-0.045,0.538-0.1,0.777-0.162c0.139-0.031,0.294-0.07,0.457-0.115L124.427,69.722z
	 M120.597,67.099c0.102-0.213,0.245-0.402,0.423-0.564c0.181-0.162,0.401-0.293,0.65-0.387c0.472-0.182,1.1-0.205,1.577,0
	c0.227,0.098,0.42,0.232,0.584,0.395c0.162,0.17,0.298,0.361,0.392,0.578c0.069,0.152,0.118,0.303,0.148,0.459h-3.921
	C120.476,67.411,120.524,67.249,120.597,67.099z"/>
<path fill="#006742" d="M143.429,69.722c-0.133,0.041-0.277,0.078-0.454,0.119c-0.226,0.049-0.472,0.098-0.731,0.141
	c-0.504,0.082-0.957,0.1-1.46-0.041c-0.235-0.064-0.452-0.178-0.651-0.33c-0.197-0.154-0.36-0.361-0.49-0.613
	c-0.105-0.203-0.169-0.453-0.191-0.742h4.659v-0.188c0-0.416-0.067-0.785-0.198-1.104c-0.129-0.316-0.303-0.59-0.51-0.811
	c-0.254-0.266-0.549-0.475-0.87-0.611c-0.689-0.295-1.511-0.252-2.11-0.023c-0.318,0.117-0.603,0.289-0.841,0.502
	c-0.261,0.23-0.466,0.514-0.616,0.838c-0.144,0.322-0.214,0.693-0.214,1.104c0,0.447,0.065,0.842,0.206,1.176
	c0.14,0.33,0.324,0.615,0.557,0.838c0.268,0.26,0.59,0.447,0.941,0.564c0.343,0.111,0.702,0.174,1.057,0.174
	c0.242,0,0.508-0.029,0.792-0.076c0.275-0.045,0.538-0.1,0.779-0.162c0.138-0.031,0.294-0.07,0.456-0.115L143.429,69.722z
	 M139.601,67.099c0.104-0.213,0.246-0.402,0.422-0.564c0.18-0.162,0.399-0.293,0.648-0.387c0.472-0.182,1.105-0.205,1.581,0
	c0.226,0.098,0.419,0.232,0.58,0.395c0.166,0.17,0.298,0.361,0.394,0.578c0.07,0.152,0.117,0.303,0.15,0.459h-3.922
	C139.479,67.411,139.526,67.249,139.601,67.099z"/>
<path fill="#006742" d="M180.778,69.722c-0.132,0.041-0.281,0.078-0.453,0.119c-0.229,0.049-0.477,0.098-0.736,0.141
	c-0.502,0.082-0.957,0.1-1.457-0.041c-0.236-0.064-0.453-0.178-0.65-0.33c-0.198-0.154-0.363-0.361-0.492-0.613
	c-0.105-0.203-0.168-0.453-0.193-0.742h4.66v-0.188c0-0.416-0.067-0.785-0.199-1.104c-0.129-0.316-0.297-0.59-0.508-0.811
	c-0.256-0.266-0.545-0.475-0.871-0.611c-0.69-0.295-1.512-0.252-2.111-0.023c-0.318,0.117-0.602,0.289-0.838,0.502
	c-0.264,0.23-0.469,0.514-0.613,0.838c-0.145,0.322-0.221,0.693-0.221,1.104c0,0.447,0.072,0.842,0.209,1.176
	c0.136,0.33,0.324,0.615,0.558,0.838c0.269,0.26,0.587,0.447,0.942,0.564c0.342,0.111,0.699,0.174,1.053,0.174
	c0.245,0,0.514-0.029,0.793-0.076c0.28-0.045,0.539-0.1,0.779-0.162c0.139-0.031,0.293-0.07,0.459-0.115L180.778,69.722z
	 M176.95,67.099c0.103-0.213,0.242-0.402,0.419-0.564c0.183-0.162,0.4-0.293,0.651-0.387c0.468-0.182,1.102-0.205,1.582,0
	c0.225,0.098,0.416,0.232,0.578,0.395c0.166,0.17,0.296,0.361,0.395,0.578c0.066,0.152,0.119,0.303,0.143,0.459h-3.912
	C176.828,67.411,176.874,67.249,176.95,67.099z"/>
<path fill="#006742" d="M195.87,69.722c-0.131,0.041-0.281,0.078-0.452,0.119c-0.229,0.049-0.476,0.098-0.737,0.141
	c-0.5,0.082-0.954,0.1-1.455-0.041c-0.238-0.064-0.455-0.178-0.652-0.33c-0.199-0.154-0.361-0.361-0.49-0.613
	c-0.105-0.203-0.17-0.453-0.193-0.742h4.658v-0.188c0-0.416-0.064-0.785-0.199-1.104c-0.127-0.316-0.296-0.59-0.507-0.811
	c-0.254-0.266-0.546-0.475-0.869-0.611c-0.692-0.295-1.511-0.252-2.112-0.023c-0.319,0.117-0.604,0.289-0.836,0.502
	c-0.268,0.23-0.475,0.514-0.617,0.838c-0.145,0.322-0.219,0.693-0.219,1.104c0,0.447,0.07,0.842,0.211,1.176
	c0.135,0.33,0.321,0.615,0.555,0.838c0.267,0.26,0.587,0.447,0.941,0.564c0.344,0.111,0.7,0.174,1.053,0.174
	c0.246,0,0.514-0.029,0.792-0.076c0.28-0.045,0.542-0.1,0.783-0.162c0.136-0.031,0.29-0.07,0.454-0.115L195.87,69.722z
	 M192.042,67.099c0.104-0.213,0.243-0.402,0.42-0.564c0.183-0.162,0.4-0.293,0.652-0.387c0.469-0.182,1.1-0.205,1.581,0
	c0.224,0.098,0.417,0.232,0.577,0.395c0.168,0.17,0.299,0.361,0.397,0.578c0.067,0.152,0.116,0.303,0.144,0.459h-3.916
	C191.921,67.411,191.967,67.249,192.042,67.099z"/>
<path fill="#006742" d="M51.458,36.093c-2.66,3.416-6.432,5.832-10.984,7.23c-6.771,2.076-13.87,0.225-19.1-3.732
	c-3.383,0.574-7.705,0.746-10.58,0.287c6.192,8.402,17.566,12.768,28.223,9.5c6.48-1.988,12.098-6.445,14.591-11.693
	C54.835,35.092,52.491,34.761,51.458,36.093z"/>
<path fill="#006742" d="M6.614,20.221c1.539,0.933,4.729,0.997,7.165,0.79c2.286-8.65,7.697-14.076,16.407-15.869
	c8.711-1.797,14.67,1.593,14.631,3.654c-0.047,2.469-4.285,7.398-17.482,11.737c-12.887,4.237-23.224,4.403-24.132-1.198
	c-3.267,8.353,5.079,10.092,11.858,9.729c7.926-0.427,19.092-3.715,27.389-9.088c8.297-5.371,11.303-11.891,0.637-17.279
	c-10.9-5.508-22.306-1.533-27.326,2.635C11.24,9.087,7.489,14.337,6.614,20.221z"/>
<path fill="#83B719" d="M53.133,9.854c0.721,0.47,1.22,1.042,1.449,1.724c1.536,4.563-9.282,13.243-24.149,18.52
	C15.704,35.323,2.267,33.57,0.731,29.012c-0.229-0.686-0.178-1.434,0.115-2.233c-0.852,1.739-1.09,3.408-0.582,4.912
	c2.135,6.335,16.138,7.851,31.688,2.816c15.551-5.035,26.764-14.711,24.629-21.045C56.077,11.955,54.874,10.757,53.133,9.854z"/>
<path fill="#006742" d="M89.071,69.472l-0.129,0.07c-0.094,0.053-0.211,0.107-0.338,0.166c-0.12,0.059-0.251,0.115-0.393,0.162
	c-0.14,0.051-0.291,0.094-0.447,0.125c-0.338,0.074-0.734,0.059-1.119-0.006c-0.203-0.031-0.389-0.098-0.555-0.189
	c-0.156-0.092-0.283-0.215-0.381-0.377c-0.095-0.158-0.144-0.377-0.144-0.65v-2.656H88.8V65.44h-3.233v-1.842h-0.694v1.842h-1.446
	v0.676h1.446v2.656c0,0.416,0.084,0.756,0.246,1.016c0.164,0.258,0.371,0.453,0.618,0.594c0.241,0.135,0.503,0.221,0.78,0.266
	c0.271,0.041,0.523,0.066,0.752,0.066c0.214,0,0.419-0.02,0.614-0.057c0.194-0.037,0.376-0.084,0.542-0.139
	c0.172-0.055,0.324-0.113,0.466-0.18c0.112-0.051,0.202-0.098,0.294-0.146L89.071,69.472z"/>
<path fill="#006742" d="M156.85,69.464l-0.128,0.07c-0.096,0.051-0.208,0.105-0.334,0.166c-0.121,0.063-0.254,0.115-0.396,0.164
	c-0.14,0.051-0.292,0.094-0.448,0.125c-0.338,0.076-0.734,0.063-1.119,0c-0.201-0.031-0.391-0.098-0.555-0.188
	c-0.154-0.092-0.279-0.215-0.379-0.379c-0.098-0.156-0.15-0.375-0.15-0.646l-0.01-2.658l3.238-0.01l-0.004-0.678l-3.235,0.012
	l-0.007-1.842l-0.692,0.002l0.005,1.842l-1.445,0.004v0.676l1.449-0.004l0.006,2.658c0.004,0.418,0.088,0.756,0.251,1.016
	c0.165,0.252,0.374,0.449,0.622,0.592c0.242,0.131,0.506,0.217,0.783,0.262c0.268,0.039,0.521,0.061,0.751,0.061
	c0.212,0,0.417-0.021,0.618-0.059c0.188-0.037,0.367-0.084,0.536-0.137c0.171-0.057,0.326-0.117,0.466-0.18
	c0.107-0.051,0.2-0.1,0.291-0.148L156.85,69.464z"/>
<path fill="#006742" d="M209.125,69.464l-0.131,0.07c-0.093,0.051-0.209,0.105-0.333,0.166c-0.121,0.063-0.252,0.115-0.395,0.164
	c-0.14,0.051-0.289,0.094-0.447,0.125c-0.34,0.076-0.736,0.063-1.119,0c-0.205-0.031-0.392-0.098-0.555-0.188
	c-0.155-0.092-0.282-0.215-0.383-0.379c-0.096-0.156-0.146-0.375-0.146-0.646l-0.012-2.658l3.236-0.01l-0.002-0.678l-3.236,0.012
	l-0.002-1.842l-0.695,0.002l0.006,1.842l-1.445,0.004l0.002,0.676l1.443-0.004l0.012,2.658c0.002,0.418,0.086,0.756,0.25,1.016
	c0.162,0.252,0.371,0.449,0.621,0.592c0.244,0.131,0.5,0.217,0.781,0.262c0.27,0.039,0.521,0.061,0.751,0.061
	c0.214,0,0.42-0.021,0.614-0.059c0.191-0.037,0.375-0.084,0.543-0.137c0.17-0.057,0.323-0.117,0.465-0.18
	c0.107-0.051,0.199-0.1,0.289-0.148L209.125,69.464z"/>
<path fill="#006742" d="M110.995,65.804c-0.057-0.049-0.117-0.104-0.168-0.139c-0.086-0.063-0.187-0.121-0.284-0.162
	c-0.14-0.068-0.284-0.109-0.431-0.135c-0.367-0.055-0.73-0.041-1.072,0.047c-0.201,0.053-0.395,0.121-0.563,0.207
	c-0.168,0.076-0.326,0.162-0.476,0.254c-0.044,0.029-0.091,0.061-0.136,0.096l0.005-0.531h-0.694v5.164h0.694v-3.822
	c0.121-0.105,0.257-0.207,0.396-0.295c0.159-0.105,0.328-0.199,0.486-0.273c0.176-0.082,0.344-0.135,0.498-0.168
	c0.424-0.08,0.767-0.049,1.005,0.059c0.061,0.031,0.118,0.066,0.175,0.109c0.057,0.041,0.121,0.105,0.195,0.186l0.136,0.154
	L110.995,65.804z"/>
<path fill="#006742" d="M161.776,65.804c-0.059-0.049-0.119-0.104-0.17-0.139c-0.084-0.063-0.188-0.121-0.285-0.162
	c-0.137-0.068-0.285-0.109-0.432-0.135c-0.365-0.055-0.729-0.041-1.07,0.047c-0.203,0.053-0.396,0.121-0.564,0.207
	c-0.166,0.076-0.326,0.162-0.473,0.254c-0.045,0.029-0.091,0.061-0.137,0.096l0.006-0.531h-0.697v5.164h0.693v-3.822
	c0.123-0.105,0.258-0.207,0.398-0.295c0.158-0.105,0.326-0.199,0.484-0.273c0.178-0.082,0.346-0.135,0.496-0.168
	c0.428-0.08,0.773-0.049,1.008,0.059c0.061,0.031,0.119,0.066,0.178,0.109c0.053,0.041,0.119,0.105,0.193,0.186l0.135,0.154
	L161.776,65.804z"/>
<path fill="#006742" d="M93.813,65.804c-0.056-0.049-0.121-0.104-0.173-0.139c-0.081-0.063-0.181-0.121-0.279-0.162
	c-0.14-0.068-0.289-0.109-0.434-0.135c-0.364-0.055-0.731-0.041-1.071,0.047c-0.201,0.053-0.393,0.121-0.563,0.207
	c-0.168,0.076-0.326,0.162-0.473,0.254c-0.047,0.029-0.094,0.061-0.141,0.096l0.01-0.531h-0.697v5.164h0.695v-3.822
	c0.118-0.105,0.256-0.207,0.396-0.295c0.159-0.105,0.326-0.199,0.484-0.273c0.176-0.082,0.347-0.135,0.499-0.168
	c0.428-0.08,0.77-0.049,1.005,0.059c0.061,0.031,0.118,0.066,0.175,0.109c0.057,0.041,0.123,0.105,0.196,0.186l0.138,0.154
	L93.813,65.804z"/>
</svg>
