<?xml version="1.0" encoding="utf-8"?>
<!-- Generator: Adobe Illustrator 15.0.0, SVG Export Plug-In  -->
<!DOCTYPE svg PUBLIC "-//W3C//DTD SVG 1.1//EN" "http://www.w3.org/Graphics/SVG/1.1/DTD/svg11.dtd" [
	<!ENTITY ns_flows "http://ns.adobe.com/Flows/1.0/">
]>
<svg version="1.1"
	 xmlns="http://www.w3.org/2000/svg" xmlns:xlink="http://www.w3.org/1999/xlink" xmlns:a="http://ns.adobe.com/AdobeSVGViewerExtensions/3.0/"
	 x="0px" y="0px" width="288px" height="288px" viewBox="-52.865 -20.783 288 288" enable-background="new -52.865 -20.783 288 288"
	 xml:space="preserve">
<defs>
</defs>
<linearGradient id="SVGID_1_" gradientUnits="userSpaceOnUse" x1="160.7285" y1="238.501" x2="160.7285" y2="107.2571">
	<stop  offset="0" style="stop-color:#FFFFFF"/>
	<stop  offset="1" style="stop-color:#979798"/>
</linearGradient>
<path fill="url(#SVGID_1_)" d="M173.44,244.487v-7.215c-3.813-0.268-8.487-0.416-12.665-0.416c-4.172,0-8.945,0.148-12.76,0.416
	v7.215H173.44z"/>
<linearGradient id="SVGID_2_" gradientUnits="userSpaceOnUse" x1="178.3174" y1="238.499" x2="178.3174" y2="107.2156">
	<stop  offset="0" style="stop-color:#FFFFFF"/>
	<stop  offset="1" style="stop-color:#979798"/>
</linearGradient>
<path fill="url(#SVGID_2_)" d="M182.212,244.487c0.017-1.936,0.042-4.238,0.058-6.242c-2.583-0.363-4.963-0.547-7.865-0.773
	c-0.023,2.139-0.036,5.096-0.039,7.016H182.212z"/>
<linearGradient id="SVGID_3_" gradientUnits="userSpaceOnUse" x1="143.1133" y1="238.498" x2="143.1133" y2="107.195">
	<stop  offset="0" style="stop-color:#FFFFFF"/>
	<stop  offset="1" style="stop-color:#979798"/>
</linearGradient>
<path fill="url(#SVGID_3_)" d="M146.934,244.487c-0.006-1.914-0.022-4.961-0.045-7.139c-2.896,0.23-5.012,0.539-7.596,0.896
	c0.016,2.004,0.033,4.307,0.055,6.242H146.934z"/>
<linearGradient id="SVGID_4_" gradientUnits="userSpaceOnUse" x1="160.7813" y1="238.502" x2="160.7813" y2="107.3332">
	<stop  offset="0" style="stop-color:#FFFFFF"/>
	<stop  offset="1" style="stop-color:#979798"/>
</linearGradient>
<path fill="url(#SVGID_4_)" d="M178.578,197.497c-2.908,1.598-8.71,3.453-10.913,4.133c-0.062,0.016-0.112,0.029-0.171,0.055
	c-0.045,0.008-0.084,0.014-0.122,0.035c-0.203-2.213-3.389-16.154-3.389-16.154s-1.843,10.947-1.882,10.965
	c-0.025,0.014,1.111,2.598,1.111,2.598l-1.801,1.703h-0.56h-0.139h-0.563l-1.805-1.703l1.109-2.598l-1.885-10.965
	c0,0-3.183,13.941-3.383,16.148c-0.039,0-0.067-0.016-0.109-0.029c-0.067-0.025-0.125-0.039-0.196-0.061
	c-2.21-0.68-8.005-2.529-10.907-4.127c-1.063-1.086-3.008-2.998-3.553-9.527c-0.051-0.58-0.096-6.102-0.129-10.275
	c2.584-0.365,4.699-0.67,7.596-0.889c0.032,2.998,0.049,7.678,0.049,8.705c0,1.438,0.695,2.523,1.078,3.426v-12.215
	c3.814-0.266,8.588-0.412,12.76-0.412c4.178,0,8.852,0.146,12.665,0.412v12.215c0.486-0.832,0.918-1.869,0.918-3.293
	c0-1.037,0.02-5.721,0.046-8.719c2.902,0.221,5.282,0.404,7.865,0.77c-0.041,4.174-0.087,9.695-0.129,10.275
	C181.597,194.499,179.645,196.411,178.578,197.497z"/>
<linearGradient id="SVGID_5_" gradientUnits="userSpaceOnUse" x1="160.7793" y1="238.502" x2="160.7793" y2="107.3498">
	<stop  offset="0" style="stop-color:#FFFFFF"/>
	<stop  offset="1" style="stop-color:#979798"/>
</linearGradient>
<path fill="url(#SVGID_5_)" d="M160.9,203.263c4.668,0,7.525,4.35,8.723,9.143c1.309,0.58,2.129,2.631,1.955,4.162
	c-0.112,0.984-0.621,1.525-1.323,1.777c-0.29,5.904-3.911,10.578-9.354,10.578c-5.418,0-9.035-4.633-9.344-10.494
	c-0.842-0.213-1.45-0.768-1.576-1.861c-0.18-1.637,0.758-3.834,2.22-4.24C153.404,207.563,156.271,203.263,160.9,203.263z"/>
<linearGradient id="SVGID_6_" gradientUnits="userSpaceOnUse" x1="35.0171" y1="240.4492" x2="35.0171" y2="109.2834">
	<stop  offset="0" style="stop-color:#FFFFFF"/>
	<stop  offset="1" style="stop-color:#979798"/>
</linearGradient>
<path fill="url(#SVGID_6_)" d="M53.653,246.433v-60.582c0-4.568-3.708-8.275-8.278-8.275h-0.01h-0.01
	c-4.574,0-8.282,3.707-8.282,8.275v55.217h-4.12v-55.217c0-4.568-3.698-8.275-8.272-8.275h-0.01h-0.006
	c-4.571,0-8.285,3.707-8.285,8.275v60.582H53.653z"/>
<linearGradient id="SVGID_7_" gradientUnits="userSpaceOnUse" x1="62.8521" y1="240.4541" x2="62.852" y2="109.3778">
	<stop  offset="0" style="stop-color:#FFFFFF"/>
	<stop  offset="1" style="stop-color:#979798"/>
</linearGradient>
<path fill="url(#SVGID_7_)" d="M68.431,246.433c-0.712-2.85-1.656-4.967-5.038-5.098c-3.769-0.156-5.637,2.129-6.12,5.098H68.431z"
	/>
<linearGradient id="SVGID_8_" gradientUnits="userSpaceOnUse" x1="7.1846" y1="240.4541" x2="7.1846" y2="109.3778">
	<stop  offset="0" style="stop-color:#FFFFFF"/>
	<stop  offset="1" style="stop-color:#979798"/>
</linearGradient>
<path fill="url(#SVGID_8_)" d="M12.76,246.433c-0.477-2.969-2.348-5.254-6.117-5.098c-3.382,0.131-4.319,2.248-5.034,5.098H12.76z"
	/>
<linearGradient id="SVGID_9_" gradientUnits="userSpaceOnUse" x1="115.8203" y1="238.5039" x2="115.8203" y2="107.3295">
	<stop  offset="0" style="stop-color:#FFFFFF"/>
	<stop  offset="1" style="stop-color:#979798"/>
</linearGradient>
<path fill="url(#SVGID_9_)" d="M104.492,244.487v-41.592c0.003-2.242,0.898-4.234,2.364-5.707c1.472-1.469,3.47-2.367,5.714-2.367
	h17.748c1.756,0,3.177-1.414,3.177-3.174c0-1.752-1.421-3.172-3.177-3.172H112.57c-7.973,0-14.424,6.457-14.424,14.42v41.592
	H104.492z"/>
<path fill="#006742" d="M146.938,43.398c0-1.424,0.695-2.513,1.078-3.414v12.214c3.814,0.265,8.588,0.412,12.76,0.412
	c4.178,0,8.852-0.147,12.665-0.412V39.984c0.486,0.827,0.918,1.868,0.918,3.295c0,1.034,0.02,5.711,0.046,8.716
	c2.902-0.225,5.282-0.415,7.865-0.77c-0.041-4.181-0.087-9.689-0.129-10.278c-0.544-6.529-2.496-8.437-3.563-9.525
	c-2.908-1.598-8.71-3.453-10.913-4.133c-0.062-0.016-0.112-0.032-0.171-0.051c-0.045-0.017-0.084-0.022-0.122-0.039
	c-0.203,2.213-3.389,16.154-3.389,16.154s-1.843-10.949-1.882-10.962c-0.025-0.016,1.111-2.605,1.111-2.605l-1.801-1.701h-0.56
	h-0.139h-0.563l-1.805,1.701l1.109,2.605l-1.885,10.962c0,0-3.183-13.941-3.383-16.154c-0.039,0.017-0.067,0.022-0.109,0.035
	c-0.067,0.02-0.125,0.039-0.196,0.059c-2.21,0.68-8.005,2.531-10.907,4.129c-1.063,1.089-3.008,2.996-3.553,9.525
	c-0.051,0.589-0.096,6.098-0.129,10.278c2.584,0.354,4.699,0.667,7.596,0.89C146.921,49.116,146.938,44.436,146.938,43.398z"/>
<path fill="#006742" d="M152.2,16.599c1.204,4.754,4.071,9.064,8.7,9.064c4.668,0,7.525-4.358,8.723-9.148
	c1.309-0.58,2.129-2.635,1.955-4.162c-0.112-0.991-0.621-1.526-1.323-1.777C169.965,4.667,166.344,0,160.9,0
	c-5.418,0-9.035,4.629-9.344,10.491c-0.842,0.209-1.45,0.764-1.576,1.861C149.801,13.979,150.738,16.189,152.2,16.599z"/>
<path fill="#006742" d="M178.578,91.974c-2.908-1.604-8.71-3.46-10.913-4.137c-0.062-0.016-0.112-0.032-0.171-0.051
	c-0.045-0.017-0.084-0.026-0.122-0.039c-0.203,2.213-3.389,16.15-3.389,16.15s-1.843-10.945-1.882-10.958
	c-0.025-0.02,1.111-2.603,1.111-2.603l-1.801-1.707h-0.56h-0.139h-0.563l-1.805,1.707l1.109,2.603l-1.885,10.958
	c0,0-3.183-13.938-3.383-16.15c-0.039,0.013-0.067,0.02-0.109,0.032c-0.067,0.02-0.125,0.042-0.196,0.064
	c-2.21,0.677-8.005,2.532-10.907,4.13c-1.063,1.088-3.008,2.989-3.553,9.515c-0.051,0.597-0.096,6.101-0.129,10.282
	c2.584,0.36,4.699,0.667,7.596,0.893c0.032-3.006,0.049-7.677,0.049-8.714c0-1.43,0.695-2.516,1.078-3.421v12.218
	c3.814,0.268,8.588,0.413,12.76,0.413c4.178,0,8.852-0.146,12.665-0.413v-12.218c0.486,0.831,0.918,1.872,0.918,3.299
	c0,1.03,0.02,5.714,0.046,8.717c2.902-0.226,5.282-0.413,7.865-0.773c-0.041-4.182-0.087-9.686-0.129-10.282
	C181.597,94.963,179.645,93.062,178.578,91.974z"/>
<path fill="#006742" d="M170.255,71.12c-0.29-5.901-3.911-10.575-9.354-10.575c-5.418,0-9.035,4.628-9.344,10.497
	c-0.842,0.206-1.45,0.757-1.576,1.862c-0.18,1.623,0.758,3.833,2.22,4.239c1.204,4.761,4.071,9.063,8.7,9.063
	c4.668,0,7.525-4.354,8.723-9.142c1.309-0.586,2.129-2.635,1.955-4.161C171.466,71.912,170.957,71.371,170.255,71.12z"/>
<path fill="#006742" d="M178.578,152.518c-2.908-1.594-8.71-3.459-10.913-4.129c-0.062-0.022-0.112-0.039-0.171-0.059
	c-0.045-0.013-0.084-0.019-0.122-0.035c-0.203,2.213-3.389,16.154-3.389,16.154s-1.843-10.949-1.882-10.965
	c-0.025-0.013,1.111-2.597,1.111-2.597l-1.801-1.71h-0.56h-0.139h-0.563l-1.805,1.71l1.109,2.597l-1.885,10.965
	c0,0-3.183-13.941-3.383-16.154c-0.039,0.017-0.067,0.022-0.109,0.035c-0.067,0.02-0.125,0.036-0.196,0.059
	c-2.21,0.676-8.005,2.535-10.907,4.129c-1.063,1.089-3.008,2.993-3.553,9.522c-0.051,0.586-0.096,6.101-0.129,10.281
	c2.584,0.357,4.699,0.667,7.596,0.89c0.032-2.996,0.049-7.683,0.049-8.714c0-1.427,0.695-2.516,1.078-3.417v12.208
	c3.814,0.273,8.588,0.412,12.76,0.412c4.178,0,8.852-0.139,12.665-0.412V161.08c0.486,0.824,0.918,1.868,0.918,3.298
	c0,1.031,0.02,5.708,0.046,8.71c2.902-0.226,5.282-0.409,7.865-0.767c-0.041-4.181-0.087-9.695-0.129-10.281
	C181.597,155.511,179.645,153.606,178.578,152.518z"/>
<path fill="#006742" d="M160.9,146.762c4.668,0,7.525-4.364,8.723-9.148c1.309-0.583,2.129-2.635,1.955-4.161
	c-0.112-0.989-0.621-1.533-1.323-1.788c-0.29-5.895-3.911-10.568-9.354-10.568c-5.418,0-9.035,4.629-9.344,10.491
	c-0.842,0.213-1.45,0.76-1.576,1.865c-0.18,1.627,0.758,3.83,2.22,4.238C153.404,142.455,156.271,146.762,160.9,146.762z"/>
<path fill="#006742" d="M60.952,47.1c-3.169-1.746-8.713-3.701-12.64-4.986c-1.089-0.632-2.319-1.073-3.669-1.343v0.006
	c-0.01-0.003-0.016-0.006-0.016-0.006c-0.271,3.117-1.359,10.606-5.795,19.777c-0.686-6.033-1.759-11.48-1.872-12.041l1.617-3.784
	l-2.628-2.49h-0.026h-1.81h-0.026l-2.628,2.49l1.61,3.784c-0.109,0.561-1.179,6.008-1.865,12.041
	c-4.436-9.171-5.527-16.66-5.795-19.777l-0.016,0.006v-0.006c-1.353,0.27-2.586,0.711-3.663,1.343
	c-3.93,1.285-9.477,3.24-12.646,4.986c-1.553,1.581-7.1,9.241-8.987,33.78c-0.477,7.55,0.943,22.248,0.943,22.248
	c0.944,4.014,1.324,7.335,5.602,7.502c4.436,0.184,6.256-3.002,6.256-6.709c0,0-1.308-12.103-0.767-22.349
	c0.438-8.172,2.706-19.858,3.775-20.315c0.013-0.004,0.016-0.007,0.02-0.01v38.711c0,1.621,0.148,3.07,0.454,4.353v61.801
	c0,4.574,3.714,8.278,8.285,8.278h0.006h0.01c4.574,0,8.272-3.704,8.272-8.278v-55.214h4.12v55.214c0,4.574,3.708,8.278,8.282,8.278
	h0.01h0.01c4.571,0,8.278-3.704,8.278-8.278v-61.801c0.309-1.282,0.457-2.731,0.457-4.353V61.247c0.007,0.003,0.01,0.006,0.02,0.01
	c1.069,0.457,3.337,12.144,3.769,20.315c0.554,10.246-0.767,22.349-0.767,22.349c0,3.707,1.833,6.893,6.262,6.709
	c4.281-0.167,4.658-3.488,5.602-7.502c0,0,1.42-14.698,0.944-22.248C68.051,56.341,62.501,48.681,60.952,47.1z"/>
<path fill="#006742" d="M21.615,25.502c1.894,6.932,6.365,13.206,13.593,13.206c7.286,0,11.767-6.346,13.645-13.319
	c2.045-0.847,3.318-3.836,3.051-6.062c-0.177-1.44-0.96-2.227-2.075-2.594C49.388,8.134,43.735,1.33,35.208,1.33
	c-8.456,0-14.109,6.739-14.605,15.288c-1.308,0.296-2.254,1.102-2.441,2.709C17.866,21.694,19.341,24.915,21.615,25.502z"/>
<path fill="#809D9D" d="M106.856,40.898c1.472-1.462,3.47-2.364,5.714-2.364h17.748c1.756,0,3.177-1.42,3.177-3.176
	c0-1.752-1.421-3.17-3.177-3.17H112.57c-7.973,0-14.424,6.455-14.424,14.422v47.076H77.692c-1.752,0-3.179,1.421-3.179,3.177
	c0,1.752,1.427,3.176,3.179,3.176h20.455v47.08c0,7.963,6.451,14.425,14.424,14.425h17.748c1.756,0,3.177-1.424,3.177-3.177
	c0-1.759-1.421-3.179-3.177-3.179H112.57c-2.244,0-4.242-0.896-5.714-2.368c-1.466-1.469-2.361-3.466-2.364-5.701v-47.08h25.826
	c1.756,0,3.177-1.424,3.177-3.176c0-1.756-1.421-3.177-3.177-3.177h-25.826V46.61C104.495,44.371,105.391,42.371,106.856,40.898z"/>
</svg>
